<svg width="584" height="375" viewBox="0 0 584 375" fill="none" xmlns="http://www.w3.org/2000/svg">
<g clip-path="url(#clip0_2484_2)">
<path d="M545.889 331.337H398.317C392.948 331.331 387.8 329.194 384.004 325.394C380.207 321.593 378.072 316.441 378.066 311.066V78.0472C378.072 72.6727 380.207 67.5201 384.004 63.7197C387.8 59.9194 392.948 57.7817 398.317 57.7756H545.889C551.258 57.7817 556.405 59.9194 560.202 63.7197C563.998 67.5201 566.133 72.6727 566.14 78.0472V311.066C566.133 316.441 563.998 321.593 560.202 325.394C556.405 329.194 551.258 331.331 545.889 331.337V331.337Z" fill="#E6E6E6"/>
<path d="M548.336 69.8718H398.039C396.358 69.8739 394.747 70.5431 393.558 71.7328C392.37 72.9224 391.701 74.5353 391.699 76.2177V312.275C391.702 313.957 392.371 315.57 393.559 316.759C394.747 317.949 396.358 318.618 398.039 318.621H548.336C550.017 318.619 551.628 317.949 552.817 316.76C554.005 315.57 554.674 313.957 554.676 312.275V76.2177C554.674 74.5353 554.005 72.9224 552.817 71.7328C551.628 70.5431 550.017 69.8739 548.336 69.8718V69.8718Z" fill="white"/>
<path d="M401.924 57.7755C401.924 57.3644 402.088 56.9702 402.378 56.6795C402.669 56.3888 403.062 56.2252 403.473 56.2247H414.008C414.419 56.2247 414.813 56.3881 415.103 56.679C415.394 56.9698 415.557 57.3642 415.557 57.7755C415.557 58.1868 415.394 58.5813 415.103 58.8721C414.813 59.163 414.419 59.3263 414.008 59.3263H403.473C403.062 59.3258 402.669 59.1623 402.378 58.8716C402.088 58.5808 401.924 58.1867 401.924 57.7755Z" fill="#E6E6E6"/>
<path d="M419.275 57.7755C419.275 57.3644 419.439 56.9702 419.729 56.6795C420.02 56.3888 420.413 56.2252 420.824 56.2247H431.359C431.77 56.2247 432.164 56.3881 432.454 56.679C432.745 56.9698 432.908 57.3642 432.908 57.7755C432.908 58.1868 432.745 58.5813 432.454 58.8721C432.164 59.163 431.77 59.3263 431.359 59.3263H420.824C420.413 59.3258 420.02 59.1623 419.729 58.8716C419.439 58.5809 419.275 58.1867 419.275 57.7755Z" fill="#E6E6E6"/>
<path d="M523.382 57.7755C523.382 57.3644 523.546 56.9702 523.836 56.6795C524.127 56.3888 524.52 56.2252 524.931 56.2247H535.466C535.877 56.2247 536.271 56.3881 536.561 56.679C536.852 56.9698 537.015 57.3642 537.015 57.7755C537.015 58.1868 536.852 58.5813 536.561 58.8721C536.271 59.163 535.877 59.3263 535.466 59.3263H524.931C524.52 59.3258 524.127 59.1623 523.836 58.8716C523.546 58.5809 523.382 58.1867 523.382 57.7755V57.7755Z" fill="#E6E6E6"/>
<path d="M494.015 313.757C494.015 315.389 493.984 317.014 493.91 318.621H398.039C396.358 318.618 394.747 317.949 393.559 316.759C392.371 315.57 391.702 313.957 391.699 312.275V193.458C420.249 198.076 446.224 212.717 464.972 234.76C483.72 256.803 494.015 284.808 494.015 313.757Z" fill="#F2F2F2"/>
<path d="M490.759 130.534H455.005C453.378 130.534 452.059 131.854 452.059 133.483V137.163C452.059 138.792 453.378 140.112 455.005 140.112H490.759C492.386 140.112 493.705 138.792 493.705 137.163V133.483C493.705 131.854 492.386 130.534 490.759 130.534Z" fill="url(#paint0_linear_2484_2)"/>
<path d="M513.484 149.69H432.28C430.653 149.69 429.334 151.011 429.334 152.639V156.319C429.334 157.948 430.653 159.268 432.28 159.268H513.484C515.111 159.268 516.43 157.948 516.43 156.319V152.639C516.43 151.011 515.111 149.69 513.484 149.69Z" fill="#E6E6E6"/>
<path d="M513.484 168.846H432.28C430.653 168.846 429.334 170.167 429.334 171.795V175.475C429.334 177.104 430.653 178.425 432.28 178.425H513.484C515.111 178.425 516.43 177.104 516.43 175.475V171.795C516.43 170.167 515.111 168.846 513.484 168.846Z" fill="#E6E6E6"/>
<path d="M499.579 302.488C499.113 302.509 498.652 302.387 498.259 302.138C497.865 301.888 497.557 301.523 497.377 301.093C497.198 300.662 497.154 300.187 497.253 299.731C497.353 299.275 497.589 298.861 497.932 298.544L498.087 297.924C498.067 297.875 498.046 297.825 498.025 297.775C497.556 296.666 496.77 295.721 495.766 295.058C494.762 294.394 493.585 294.043 492.381 294.047C491.178 294.052 490.003 294.412 489.004 295.083C488.005 295.754 487.226 296.705 486.765 297.817C484.924 302.257 482.579 306.705 482.002 311.4C481.747 313.475 481.855 315.579 482.319 317.617C477.993 308.172 475.747 297.906 475.733 287.515C475.732 284.908 475.876 282.303 476.166 279.711C476.405 277.587 476.738 275.478 477.162 273.384C479.481 262.022 484.458 251.373 491.687 242.311C495.185 240.4 498.014 237.462 499.793 233.892C500.437 232.609 500.893 231.239 501.145 229.825C500.751 229.877 500.349 229.909 499.955 229.935C499.832 229.941 499.702 229.948 499.58 229.954L499.533 229.956C499.099 229.976 498.669 229.869 498.295 229.65C497.92 229.43 497.617 229.107 497.421 228.719C497.226 228.331 497.147 227.895 497.193 227.462C497.24 227.03 497.41 226.621 497.684 226.283C497.854 226.074 498.024 225.864 498.195 225.654C498.454 225.33 498.719 225.013 498.978 224.689C499.008 224.658 499.036 224.626 499.062 224.592C499.36 224.223 499.657 223.86 499.955 223.491C499.412 222.647 498.681 221.94 497.82 221.425C494.837 219.676 490.723 220.888 488.568 223.588C486.407 226.289 486 230.077 486.75 233.451C487.488 236.322 488.709 239.047 490.36 241.508C490.199 241.715 490.03 241.916 489.869 242.123C486.912 245.929 484.335 250.016 482.175 254.325C482.7 249.497 482.073 244.614 480.345 240.077C478.594 235.848 475.312 232.287 472.422 228.631C468.95 224.24 461.831 226.156 461.219 231.723C461.213 231.776 461.208 231.83 461.202 231.884C461.631 232.127 462.052 232.384 462.463 232.656C462.979 233.002 463.38 233.495 463.611 234.072C463.843 234.649 463.894 235.283 463.76 235.89C463.626 236.497 463.311 237.05 462.858 237.475C462.405 237.9 461.834 238.178 461.22 238.273L461.157 238.283C461.31 239.832 461.58 241.367 461.965 242.874C463.082 247.084 465.056 251.017 467.762 254.427C470.468 257.837 473.849 260.651 477.693 262.692C477.945 262.821 478.191 262.951 478.443 263.074C476.273 269.231 474.912 275.644 474.393 282.153C474.1 285.993 474.117 289.85 474.445 293.687L474.426 293.551C473.598 289.284 471.324 285.435 467.988 282.652C463.035 278.578 456.036 277.078 450.692 273.804C450.124 273.439 449.463 273.244 448.788 273.242C448.113 273.24 447.452 273.432 446.882 273.794C446.312 274.157 445.858 274.674 445.573 275.287C445.287 275.899 445.183 276.58 445.271 277.25C445.279 277.298 445.286 277.345 445.293 277.393C446.09 277.718 446.866 278.092 447.616 278.513C448.045 278.756 448.465 279.013 448.877 279.285C449.393 279.631 449.793 280.124 450.025 280.701C450.256 281.279 450.308 281.912 450.174 282.519C450.04 283.126 449.725 283.679 449.272 284.104C448.818 284.529 448.247 284.807 447.633 284.902L447.57 284.912C447.525 284.918 447.486 284.925 447.441 284.931C448.802 288.185 450.713 291.18 453.089 293.784C456.024 296.937 459.572 299.457 463.515 301.189C467.457 302.92 471.712 303.828 476.017 303.855H476.024C477.192 308.939 478.886 313.887 481.077 318.621H499.127C499.191 318.42 499.25 318.213 499.308 318.012C497.637 318.117 495.96 318.017 494.313 317.714C495.652 316.069 496.992 314.411 498.331 312.766C498.361 312.736 498.389 312.703 498.415 312.669C499.094 311.827 499.78 310.992 500.459 310.15L500.46 310.149C500.496 307.568 500.2 304.993 499.58 302.488L499.579 302.488ZM478.909 261.785L478.919 261.772L478.909 261.798V261.785ZM474.911 297.864L474.756 297.515C474.762 297.262 474.762 297.01 474.756 296.751C474.756 296.679 474.743 296.608 474.743 296.537C474.801 296.984 474.853 297.43 474.918 297.877L474.911 297.864Z" fill="#8C8C8C"/>
<path d="M540.824 90.7124H405.551C405.259 90.706 404.98 90.5851 404.775 90.3756C404.571 90.1661 404.456 89.8848 404.456 89.5917C404.456 89.2987 404.571 89.0174 404.775 88.8079C404.98 88.5984 405.259 88.4775 405.551 88.4711H540.824C541.116 88.4775 541.395 88.5984 541.599 88.8079C541.804 89.0174 541.919 89.2987 541.919 89.5917C541.919 89.8848 541.804 90.1661 541.599 90.3756C541.395 90.5851 541.116 90.706 540.824 90.7124V90.7124Z" fill="#CACACA"/>
<path d="M412.768 85.2305C414.586 85.2305 416.059 83.723 416.059 81.8633C416.059 80.0036 414.586 78.4961 412.768 78.4961C410.951 78.4961 409.478 80.0036 409.478 81.8633C409.478 83.723 410.951 85.2305 412.768 85.2305Z" fill="#0F2E00"/>
<path d="M424.135 85.2305C425.952 85.2305 427.426 83.723 427.426 81.8633C427.426 80.0036 425.952 78.4961 424.135 78.4961C422.318 78.4961 420.845 80.0036 420.845 81.8633C420.845 83.723 422.318 85.2305 424.135 85.2305Z" fill="#0F2E00"/>
<path d="M435.502 85.2305C437.32 85.2305 438.793 83.723 438.793 81.8633C438.793 80.0036 437.32 78.4961 435.502 78.4961C433.685 78.4961 432.212 80.0036 432.212 81.8633C432.212 83.723 433.685 85.2305 435.502 85.2305Z" fill="#0F2E00"/>
<path d="M535.536 79.797H528.173C528.027 79.7999 527.888 79.86 527.785 79.9643C527.683 80.0687 527.626 80.209 527.626 80.3551C527.626 80.5013 527.683 80.6416 527.785 80.7459C527.888 80.8503 528.027 80.9104 528.173 80.9132H535.536C535.682 80.9104 535.821 80.8503 535.923 80.7459C536.026 80.6416 536.083 80.5013 536.083 80.3551C536.083 80.209 536.026 80.0687 535.923 79.9643C535.821 79.86 535.682 79.7999 535.536 79.797V79.797Z" fill="#0F2E00"/>
<path d="M535.536 81.892H528.173C528.027 81.8949 527.888 81.9549 527.785 82.0593C527.683 82.1636 527.626 82.3039 527.626 82.4501C527.626 82.5962 527.683 82.7365 527.785 82.8409C527.888 82.9453 528.027 83.0053 528.173 83.0082H535.536C535.682 83.0053 535.821 82.9453 535.923 82.8409C536.026 82.7365 536.083 82.5962 536.083 82.4501C536.083 82.3039 536.026 82.1636 535.923 82.0593C535.821 81.9549 535.682 81.8949 535.536 81.892V81.892Z" fill="#0F2E00"/>
<path d="M535.536 83.9843H528.173C528.027 83.9871 527.888 84.0472 527.785 84.1516C527.683 84.2559 527.626 84.3962 527.626 84.5424C527.626 84.6885 527.683 84.8288 527.785 84.9332C527.888 85.0375 528.027 85.0976 528.173 85.1005H535.536C535.682 85.0976 535.821 85.0375 535.923 84.9332C536.026 84.8288 536.083 84.6885 536.083 84.5424C536.083 84.3962 536.026 84.2559 535.923 84.1516C535.821 84.0472 535.682 83.9871 535.536 83.9843Z" fill="#0F2E00"/>
<path d="M316.058 193.547H237.63C236.521 193.549 235.457 193.991 234.674 194.778C233.89 195.564 233.451 196.63 233.452 197.74V321.76H320.247V197.74C320.247 197.19 320.139 196.644 319.928 196.135C319.718 195.626 319.409 195.164 319.02 194.775C318.631 194.385 318.169 194.076 317.661 193.866C317.153 193.655 316.608 193.547 316.058 193.547ZM277.108 264.014C274.655 264.002 272.306 263.022 270.572 261.286C268.838 259.55 267.858 257.198 267.847 254.743V240.439C267.849 237.981 268.826 235.625 270.562 233.889C272.299 232.152 274.653 231.176 277.108 231.176C279.563 231.176 281.917 232.152 283.654 233.889C285.39 235.625 286.367 237.981 286.369 240.439V254.743C286.357 257.198 285.378 259.55 283.644 261.286C281.909 263.022 279.561 264.002 277.108 264.014V264.014Z" fill="#E6E6E6"/>
<path d="M233.183 317.793V329.759C233.184 330.379 233.43 330.973 233.868 331.412C234.306 331.85 234.9 332.097 235.519 332.098H318.179C318.798 332.095 319.39 331.848 319.828 331.41C320.265 330.972 320.512 330.378 320.516 329.759V317.793L233.183 317.793Z" fill="#8C8C8C"/>
<path d="M445.926 0H110.68C107.8 0.00458695 105.039 1.15199 103.002 3.19076C100.965 5.22953 99.8191 7.99338 99.8145 10.8766V237.336C99.8172 240.22 100.963 242.984 103 245.024C105.037 247.063 107.799 248.21 110.68 248.212H445.926C448.807 248.21 451.569 247.063 453.606 245.024C455.644 242.984 456.789 240.22 456.792 237.336V10.8766C456.787 7.99338 455.641 5.22953 453.604 3.19076C451.568 1.15199 448.807 0.00458516 445.926 0Z" fill="#E6E6E6"/>
<path d="M443.128 7.85608H113.481C111.939 7.85943 110.461 8.47502 109.371 9.56777C108.282 10.6605 107.67 12.1412 107.67 13.685V234.531C107.673 236.073 108.286 237.551 109.375 238.641C110.464 239.732 111.94 240.345 113.481 240.348H443.128C444.668 240.345 446.145 239.732 447.234 238.641C448.323 237.551 448.936 236.073 448.939 234.531V13.685C448.939 12.1412 448.327 10.6605 447.237 9.56777C446.148 8.47502 444.67 7.85943 443.128 7.85608Z" fill="white"/>
<path d="M448.939 13.685V234.531C448.936 236.073 448.323 237.551 447.234 238.641C446.145 239.732 444.668 240.345 443.128 240.348H326.887C314.028 228.41 303.478 214.201 295.767 198.433C295.26 197.417 294.776 196.389 294.317 195.349C287.292 180.087 283.037 163.695 281.753 146.94C281.669 145.912 281.596 144.884 281.548 143.844C281.391 141.184 281.318 138.487 281.318 135.778C281.295 117.762 284.694 99.9057 291.333 83.1604C291.732 82.1204 292.155 81.0925 292.59 80.0645C305.952 48.6377 330.096 23.0275 360.665 7.85608H443.128C444.67 7.85943 446.148 8.47502 447.237 9.56777C448.327 10.6605 448.939 12.1412 448.939 13.685Z" fill="url(#paint1_linear_2484_2)"/>
<path d="M426.557 38.2836H118.107C117.787 38.2768 117.481 38.1444 117.257 37.9149C117.032 37.6854 116.907 37.377 116.907 37.0558C116.907 36.7346 117.032 36.4261 117.257 36.1966C117.481 35.9671 117.787 35.8347 118.107 35.8279H426.557C426.878 35.8347 427.183 35.9671 427.408 36.1966C427.632 36.4261 427.758 36.7346 427.758 37.0558C427.758 37.377 427.632 37.6854 427.408 37.9149C427.183 38.1444 426.878 38.2768 426.557 38.2836V38.2836Z" fill="#CACACA"/>
<path d="M139.104 29.5586C143.074 29.5586 146.293 26.2651 146.293 22.2023C146.293 18.1395 143.074 14.8459 139.104 14.8459C135.134 14.8459 131.916 18.1395 131.916 22.2023C131.916 26.2651 135.134 29.5586 139.104 29.5586Z" fill="#0F2E00"/>
<path d="M163.938 29.5586C167.908 29.5586 171.126 26.2651 171.126 22.2023C171.126 18.1395 167.908 14.8459 163.938 14.8459C159.967 14.8459 156.749 18.1395 156.749 22.2023C156.749 26.2651 159.967 29.5586 163.938 29.5586Z" fill="#0F2E00"/>
<path d="M188.771 29.5586C192.741 29.5586 195.959 26.2651 195.959 22.2023C195.959 18.1395 192.741 14.8459 188.771 14.8459C184.8 14.8459 181.582 18.1395 181.582 22.2023C181.582 26.2651 184.8 29.5586 188.771 29.5586Z" fill="#0F2E00"/>
<path d="M411.606 16.6693H393.965C393.616 16.6762 393.283 16.8201 393.038 17.0701C392.793 17.3201 392.656 17.6563 392.656 18.0064C392.656 18.3565 392.793 18.6926 393.038 18.9426C393.283 19.1926 393.616 19.3365 393.965 19.3434H411.606C411.955 19.3365 412.288 19.1926 412.533 18.9426C412.778 18.6926 412.915 18.3565 412.915 18.0064C412.915 17.6563 412.778 17.3201 412.533 17.0701C412.288 16.8201 411.955 16.6762 411.606 16.6693V16.6693Z" fill="#0F2E00"/>
<path d="M411.606 21.6882H393.965C393.616 21.6952 393.283 21.8391 393.038 22.0891C392.793 22.3391 392.656 22.6752 392.656 23.0253C392.656 23.3754 392.793 23.7115 393.038 23.9615C393.283 24.2115 393.616 24.3554 393.965 24.3623H411.606C411.955 24.3554 412.288 24.2115 412.533 23.9615C412.778 23.7115 412.915 23.3754 412.915 23.0253C412.915 22.6752 412.778 22.3391 412.533 22.0891C412.288 21.8391 411.955 21.6952 411.606 21.6882V21.6882Z" fill="#0F2E00"/>
<path d="M411.606 26.7006H393.965C393.616 26.7075 393.283 26.8514 393.038 27.1014C392.793 27.3514 392.656 27.6875 392.656 28.0376C392.656 28.3877 392.793 28.7239 393.038 28.9738C393.283 29.2238 393.616 29.3678 393.965 29.3747H411.606C411.955 29.3678 412.288 29.2238 412.533 28.9738C412.778 28.7239 412.915 28.3877 412.915 28.0376C412.915 27.6875 412.778 27.3514 412.533 27.1014C412.288 26.8514 411.955 26.7075 411.606 26.7006V26.7006Z" fill="#0F2E00"/>
<path d="M212.551 110.018H169.417C167.79 110.018 166.471 111.338 166.471 112.967V117.563C166.471 119.192 167.79 120.512 169.417 120.512H212.551C214.178 120.512 215.497 119.192 215.497 117.563V112.967C215.497 111.338 214.178 110.018 212.551 110.018Z" fill="url(#paint2_linear_2484_2)"/>
<path d="M237.449 131.007H144.518C142.891 131.007 141.572 132.327 141.572 133.956V138.552C141.572 140.181 142.891 141.501 144.518 141.501H237.449C239.076 141.501 240.395 140.181 240.395 138.552V133.956C240.395 132.327 239.076 131.007 237.449 131.007Z" fill="#E6E6E6"/>
<path d="M237.449 151.996H144.518C142.891 151.996 141.572 153.316 141.572 154.945V159.541C141.572 161.17 142.891 162.49 144.518 162.49H237.449C239.076 162.49 240.395 161.17 240.395 159.541V154.945C240.395 153.316 239.076 151.996 237.449 151.996Z" fill="#E6E6E6"/>
<path d="M149.638 227.686C149.646 232.009 148.876 236.298 147.367 240.348H113.481C111.94 240.345 110.464 239.732 109.375 238.641C108.286 237.551 107.673 236.073 107.67 234.531V191.866C109.563 191.56 111.478 191.406 113.396 191.407C118.156 191.406 122.869 192.345 127.266 194.168C131.663 195.991 135.659 198.663 139.024 202.032C142.389 205.401 145.059 209.401 146.88 213.802C148.701 218.204 149.639 222.922 149.638 227.686V227.686Z" fill="url(#paint3_linear_2484_2)"/>
<path opacity="0.2" d="M449.241 83.1604V80.0646H397.402V44.1841H394.322V80.0646H334.908V44.1841H331.828V80.0646H292.59C292.155 81.0925 291.732 82.1205 291.333 83.1605H331.828V143.844H281.548C281.596 144.884 281.669 145.912 281.753 146.94H331.828V195.349H294.317C294.776 196.389 295.26 197.417 295.767 198.433H331.828V239.126H334.908V198.433H394.322V239.126H397.402V198.433H449.241V195.349H397.402V195.349C397.402 188.992 398.653 182.697 401.083 176.824C403.514 170.95 407.076 165.614 411.566 161.119C416.057 156.623 421.388 153.058 427.255 150.625C433.122 148.192 439.411 146.94 445.761 146.94H449.241V143.844H397.402V83.1604H449.241ZM394.322 195.349H334.908V146.94H394.322V195.349ZM394.322 143.844H334.908V142.635C334.908 126.861 341.168 111.734 352.31 100.58C363.452 89.4265 378.564 83.1604 394.321 83.1604H394.322V143.844Z" fill="black"/>
<path d="M407.503 217.436C406.842 217.466 406.187 217.293 405.628 216.938C405.068 216.584 404.632 216.066 404.376 215.454C404.121 214.843 404.059 214.168 404.2 213.52C404.341 212.873 404.677 212.284 405.163 211.835C405.245 211.511 405.303 211.278 405.384 210.954C405.355 210.884 405.326 210.813 405.296 210.743C402.324 203.649 392.252 203.698 389.305 210.803C386.689 217.108 383.359 223.425 382.539 230.093C382.178 233.04 382.33 236.027 382.989 238.922C376.846 225.508 373.656 210.928 373.636 196.171C373.634 192.468 373.84 188.768 374.251 185.088C374.591 182.071 375.063 179.076 375.666 176.102C378.959 159.966 386.028 144.842 396.294 131.971C401.262 129.258 405.281 125.085 407.807 120.014C408.722 118.192 409.369 116.246 409.727 114.238C409.167 114.312 408.597 114.358 408.037 114.395C407.862 114.404 407.678 114.413 407.504 114.422L407.438 114.425C406.822 114.453 406.211 114.302 405.679 113.99C405.147 113.678 404.716 113.219 404.438 112.668C404.161 112.117 404.048 111.497 404.114 110.883C404.18 110.27 404.422 109.688 404.811 109.209C405.053 108.911 405.295 108.613 405.537 108.315C405.905 107.855 406.282 107.404 406.649 106.944C406.691 106.901 406.731 106.855 406.768 106.806C407.191 106.282 407.614 105.767 408.036 105.243C407.265 104.044 406.227 103.04 405.004 102.309C400.769 99.8254 394.925 101.545 391.865 105.381C388.796 109.216 388.217 114.597 389.283 119.389C390.193 123.491 392.178 127.253 394.41 130.831C394.181 131.125 393.942 131.41 393.712 131.705C389.513 137.11 385.853 142.914 382.785 149.033C383.531 142.177 382.641 135.242 380.187 128.798C377.7 122.793 373.039 117.735 368.934 112.543C364.003 106.306 353.892 109.028 353.024 116.933C353.015 117.01 353.007 117.087 352.999 117.163C353.609 117.507 354.206 117.873 354.79 118.259C355.523 118.75 356.092 119.451 356.42 120.271C356.749 121.09 356.823 121.99 356.632 122.852C356.441 123.715 355.995 124.499 355.351 125.103C354.707 125.707 353.896 126.102 353.024 126.237L352.935 126.25C353.152 128.45 353.536 130.63 354.083 132.772C355.669 138.75 358.472 144.336 362.316 149.179C366.159 154.022 370.961 158.018 376.42 160.917C376.778 161.1 377.127 161.284 377.486 161.459C374.403 170.204 372.47 179.312 371.734 188.556C371.317 194.009 371.342 199.487 371.807 204.937L371.78 204.744C370.604 198.684 367.374 193.216 362.637 189.264C355.602 183.478 345.662 181.348 338.072 176.698C334.418 174.459 329.737 177.352 330.374 181.592C330.384 181.66 330.395 181.728 330.405 181.795C331.537 182.257 332.638 182.788 333.704 183.386C334.313 183.731 334.91 184.096 335.494 184.483C336.228 184.974 336.796 185.675 337.125 186.494C337.454 187.314 337.528 188.214 337.337 189.076C337.146 189.938 336.699 190.723 336.056 191.327C335.412 191.93 334.601 192.326 333.729 192.46L333.639 192.474C333.575 192.483 333.52 192.492 333.456 192.501C335.389 197.122 338.102 201.375 341.477 205.075C345.646 209.553 350.684 213.131 356.284 215.59C361.883 218.05 367.925 219.338 374.04 219.377H374.049C375.709 226.597 378.114 233.625 381.225 240.348H406.86C406.952 240.063 407.035 239.768 407.118 239.483C404.745 239.633 402.363 239.491 400.024 239.06C401.926 236.724 403.828 234.369 405.73 232.033C405.773 231.989 405.812 231.943 405.85 231.895C406.814 230.699 407.788 229.513 408.753 228.317L408.754 228.316C408.805 224.651 408.385 220.994 407.504 217.436L407.503 217.436ZM378.147 159.629L378.161 159.611L378.147 159.647V159.629ZM372.469 210.869L372.248 210.373C372.258 210.014 372.258 209.655 372.248 209.287C372.248 209.186 372.23 209.085 372.23 208.984C372.313 209.618 372.386 210.253 372.478 210.888L372.469 210.869Z" fill="#1F271B"/>
<path d="M179.231 157.419V122.93C179.231 117.636 177.13 112.559 173.391 108.816C169.651 105.072 164.579 102.969 159.291 102.969H86.2974C81.0088 102.969 75.9369 105.072 72.1974 108.816C68.4578 112.559 66.3569 117.636 66.3569 122.93V312.137C66.3569 317.431 68.4578 322.508 72.1974 326.252C75.9369 329.995 81.0088 332.098 86.2974 332.098H159.291C161.909 332.098 164.502 331.582 166.922 330.579C169.341 329.576 171.539 328.105 173.391 326.252C175.242 324.398 176.711 322.198 177.713 319.776C178.715 317.354 179.231 314.759 179.231 312.137V181.968C179.565 181.968 179.885 181.836 180.121 181.6C180.356 181.364 180.489 181.043 180.489 180.709V158.678C180.489 158.344 180.356 158.024 180.121 157.788C179.885 157.551 179.565 157.419 179.231 157.419V157.419Z" fill="#E6E6E6"/>
<path d="M174.988 123.067V312.001C174.988 315.925 173.442 319.691 170.684 322.481C167.927 325.271 164.181 326.858 160.261 326.899C160.207 326.905 160.152 326.907 160.098 326.906H86.7491C82.8002 326.906 79.0132 325.335 76.2209 322.54C73.4286 319.745 71.8597 315.954 71.8594 312.001V123.067C71.8597 119.114 73.4286 115.323 76.2209 112.528C79.0132 109.733 82.8002 108.162 86.7491 108.162H95.6503C95.2128 109.238 95.046 110.405 95.1647 111.56C95.2834 112.715 95.684 113.824 96.3311 114.788C96.9783 115.752 97.8522 116.542 98.876 117.088C99.8998 117.635 101.042 117.921 102.202 117.922H144.02C145.179 117.919 146.32 117.631 147.342 117.084C148.364 116.536 149.237 115.746 149.883 114.783C150.529 113.819 150.929 112.712 151.048 111.558C151.167 110.403 151.001 109.237 150.565 108.162H160.098C164.047 108.162 167.834 109.733 170.626 112.528C173.418 115.323 174.987 119.114 174.988 123.067Z" fill="white"/>
<path d="M160.444 321.074C160.444 323.032 160.383 324.973 160.261 326.899C160.207 326.905 160.152 326.907 160.098 326.906H86.7491C82.8002 326.906 79.0132 325.335 76.2209 322.54C73.4286 319.745 71.8597 315.954 71.8594 312.001V227.804C95.7576 229.01 118.279 239.363 134.766 256.723C151.254 274.083 160.447 297.121 160.444 321.074V321.074Z" fill="#F2F2F2"/>
<path d="M66.7604 176.713C66.3104 176.713 65.8789 176.533 65.5607 176.215C65.2425 175.896 65.0635 175.464 65.063 175.014V163.46C65.063 163.009 65.2418 162.577 65.5602 162.258C65.8785 161.939 66.3102 161.76 66.7604 161.76C67.2106 161.76 67.6423 161.939 67.9607 162.258C68.279 162.577 68.4578 163.009 68.4578 163.46V175.014C68.4573 175.464 68.2783 175.896 67.9601 176.215C67.6419 176.533 67.2104 176.713 66.7604 176.713Z" fill="#E6E6E6"/>
<path d="M132.429 167.487H114.417C112.79 167.487 111.471 168.808 111.471 170.436V175.033C111.471 176.661 112.79 177.982 114.417 177.982H132.429C134.056 177.982 135.375 176.661 135.375 175.033V170.436C135.375 168.808 134.056 167.487 132.429 167.487Z" fill="url(#paint4_linear_2484_2)"/>
<path d="M157.328 188.476H89.5188C87.8917 188.476 86.5728 189.797 86.5728 191.425V196.022C86.5728 197.65 87.8917 198.971 89.5188 198.971H157.328C158.955 198.971 160.274 197.65 160.274 196.022V191.425C160.274 189.797 158.955 188.476 157.328 188.476Z" fill="#E6E6E6"/>
<path d="M157.328 209.465H89.5188C87.8917 209.465 86.5728 210.785 86.5728 212.414V217.01C86.5728 218.639 87.8917 219.96 89.5188 219.96H157.328C158.955 219.96 160.274 218.639 160.274 217.01V212.414C160.274 210.785 158.955 209.465 157.328 209.465Z" fill="#E6E6E6"/>
<path d="M141.012 316.154C140.702 316.168 140.395 316.087 140.132 315.92C139.87 315.754 139.665 315.511 139.545 315.224C139.425 314.937 139.396 314.621 139.462 314.317C139.528 314.013 139.686 313.737 139.914 313.526L140.018 313.113C140.004 313.079 139.991 313.046 139.977 313.013C139.664 312.274 139.14 311.644 138.471 311.202C137.802 310.76 137.017 310.526 136.215 310.529C135.413 310.532 134.63 310.772 133.965 311.219C133.299 311.666 132.779 312.3 132.472 313.041C131.245 316 129.682 318.965 129.298 322.093C129.128 323.476 129.2 324.878 129.509 326.237C126.626 319.942 125.129 313.1 125.119 306.175C125.119 304.438 125.215 302.701 125.408 300.974C125.568 299.559 125.789 298.153 126.072 296.757C127.618 289.185 130.935 282.088 135.752 276.048C138.084 274.775 139.969 272.817 141.155 270.437C141.584 269.582 141.888 268.669 142.056 267.727C141.793 267.761 141.526 267.783 141.263 267.8C141.181 267.805 141.094 267.809 141.013 267.813L140.982 267.815C140.693 267.828 140.406 267.757 140.156 267.61C139.906 267.464 139.704 267.249 139.574 266.99C139.444 266.731 139.391 266.44 139.422 266.152C139.453 265.864 139.567 265.592 139.749 265.367C139.862 265.227 139.976 265.087 140.09 264.947C140.262 264.731 140.439 264.52 140.612 264.304C140.631 264.284 140.65 264.262 140.668 264.239C140.866 263.993 141.064 263.752 141.263 263.506C140.901 262.943 140.414 262.472 139.84 262.129C137.852 260.963 135.11 261.771 133.674 263.57C132.234 265.37 131.962 267.895 132.462 270.144C132.954 272.057 133.768 273.873 134.868 275.513C134.761 275.651 134.648 275.785 134.541 275.923C132.57 278.46 130.853 281.183 129.413 284.055C129.763 280.838 129.345 277.583 128.194 274.559C127.027 271.741 124.839 269.368 122.913 266.931C122.403 266.277 121.712 265.788 120.925 265.527C120.138 265.266 119.292 265.245 118.492 265.465C117.693 265.686 116.978 266.138 116.435 266.766C115.893 267.394 115.549 268.168 115.447 268.992C115.443 269.028 115.439 269.063 115.435 269.099C115.721 269.261 116.002 269.432 116.276 269.614C116.62 269.844 116.887 270.173 117.041 270.558C117.195 270.942 117.23 271.365 117.14 271.769C117.051 272.174 116.841 272.542 116.539 272.825C116.237 273.109 115.856 273.294 115.447 273.357L115.405 273.364C115.507 274.396 115.687 275.419 115.944 276.424C116.688 279.229 118.004 281.851 119.807 284.123C121.611 286.396 123.864 288.271 126.426 289.631C126.594 289.718 126.758 289.804 126.926 289.886C125.48 293.99 124.572 298.264 124.227 302.602C124.031 305.161 124.043 307.731 124.261 310.289L124.249 310.198C123.697 307.354 122.181 304.789 119.958 302.934C116.657 300.219 111.992 299.219 108.431 297.037C108.052 296.794 107.612 296.664 107.162 296.663C106.712 296.662 106.272 296.789 105.892 297.031C105.512 297.272 105.209 297.617 105.019 298.025C104.829 298.433 104.759 298.887 104.818 299.334L104.833 299.429C105.364 299.646 105.881 299.895 106.381 300.176C106.667 300.337 106.947 300.509 107.221 300.69C107.565 300.921 107.832 301.25 107.986 301.634C108.141 302.019 108.175 302.441 108.086 302.846C107.996 303.25 107.787 303.618 107.484 303.902C107.182 304.185 106.802 304.371 106.392 304.434L106.351 304.44C106.32 304.445 106.294 304.449 106.264 304.453C107.172 306.622 108.445 308.617 110.028 310.353C111.985 312.455 114.349 314.134 116.977 315.288C119.604 316.442 122.44 317.047 125.309 317.065H125.314C126.092 320.453 127.221 323.751 128.681 326.906H140.711C140.754 326.772 140.793 326.634 140.831 326.5C139.718 326.57 138.6 326.504 137.503 326.302C138.395 325.205 139.288 324.1 140.18 323.004C140.2 322.984 140.219 322.962 140.236 322.939C140.689 322.378 141.146 321.821 141.599 321.26L141.599 321.26C141.623 319.54 141.426 317.824 141.012 316.154L141.012 316.154ZM127.237 289.027L127.243 289.019L127.237 289.036V289.027ZM124.572 313.073L124.468 312.84C124.473 312.671 124.473 312.503 124.468 312.33C124.468 312.283 124.46 312.235 124.46 312.188C124.499 312.486 124.533 312.783 124.576 313.081L124.572 313.073Z" fill="#8C8C8C"/>
<path d="M66.4206 154.284C65.9705 154.283 65.5391 154.104 65.2209 153.786C64.9027 153.467 64.7237 153.035 64.7231 152.585V141.03C64.7231 140.58 64.902 140.148 65.2203 139.829C65.5386 139.51 65.9704 139.331 66.4206 139.331C66.8707 139.331 67.3025 139.51 67.6208 139.829C67.9391 140.148 68.118 140.58 68.118 141.03V152.585C68.1174 153.035 67.9384 153.467 67.6202 153.786C67.302 154.104 66.8706 154.283 66.4206 154.284V154.284Z" fill="#E6E6E6"/>
<path d="M111.572 110.106C111.572 109.655 111.751 109.223 112.07 108.905C112.388 108.586 112.819 108.407 113.269 108.406H124.812C125.262 108.406 125.694 108.586 126.012 108.904C126.33 109.223 126.509 109.655 126.509 110.106C126.509 110.556 126.33 110.988 126.012 111.307C125.694 111.626 125.262 111.805 124.812 111.805H113.269C112.819 111.804 112.388 111.625 112.07 111.307C111.751 110.988 111.572 110.556 111.572 110.106Z" fill="white"/>
<path d="M66.7604 196.423C66.3104 196.423 65.8789 196.244 65.5607 195.925C65.2425 195.607 65.0635 195.175 65.063 194.724V183.17C65.063 182.719 65.2418 182.287 65.5602 181.968C65.8785 181.65 66.3102 181.471 66.7604 181.471C67.2106 181.471 67.6423 181.65 67.9607 181.968C68.279 182.287 68.4578 182.719 68.4578 183.17V194.724C68.4573 195.175 68.2783 195.607 67.9601 195.925C67.6419 196.244 67.2104 196.423 66.7604 196.423V196.423Z" fill="#E6E6E6"/>
<path d="M131.262 111.805C132.199 111.805 132.959 111.044 132.959 110.106C132.959 109.167 132.199 108.406 131.262 108.406C130.324 108.406 129.564 109.167 129.564 110.106C129.564 111.044 130.324 111.805 131.262 111.805Z" fill="white"/>
<path d="M583.192 332.094L0.808537 332.302C0.594533 332.302 0.38951 332.216 0.238405 332.065C0.0873002 331.913 0.00244141 331.707 0.00244141 331.493C0.00244141 331.279 0.0873002 331.074 0.238405 330.922C0.38951 330.77 0.594533 330.685 0.808537 330.684L583.192 330.475C583.406 330.475 583.612 330.56 583.763 330.712C583.915 330.864 584 331.07 584 331.284C584 331.499 583.915 331.705 583.763 331.857C583.612 332.008 583.406 332.094 583.192 332.094Z" fill="#CACACA"/>
<path d="M249.026 153.677L245.963 154.334C245.943 153.051 245.783 151.775 245.487 150.527C245.208 152.055 244.621 153.511 243.762 154.804L226.193 158.56L209.325 140.741C209.299 131.831 214.242 125.061 223.104 125.061C223.638 125.061 224.191 125.086 224.751 125.138C229.539 124.336 234.451 125.424 238.453 128.175C242.455 130.925 245.235 135.123 246.208 139.884C252.489 146.075 250.211 149.715 249.026 153.677Z" fill="#1F271B"/>
<path d="M257.664 362.066H264.037L267.069 337.458L257.663 337.459L257.664 362.066Z" fill="#FFB6B6"/>
<path d="M256.084 358.919L266.158 358.317V362.637L275.736 369.259C276.209 369.586 276.565 370.056 276.753 370.6C276.94 371.144 276.949 371.734 276.778 372.283C276.607 372.833 276.265 373.313 275.802 373.654C275.339 373.995 274.779 374.179 274.204 374.179H262.21L260.143 369.905L259.336 374.179H254.813L256.084 358.919Z" fill="#1F271B"/>
<path d="M183.002 355.122L188.546 358.27L203.313 338.366L195.132 333.72L183.002 355.122Z" fill="#FFB6B6"/>
<path d="M183.179 351.604L192.238 356.057L190.108 359.815L195.174 370.306C195.424 370.824 195.502 371.408 195.397 371.974C195.292 372.54 195.009 373.057 194.589 373.451C194.17 373.844 193.636 374.093 193.065 374.161C192.494 374.228 191.916 374.112 191.416 373.828L180.984 367.903L181.293 363.164L178.484 366.483L174.551 364.249L183.179 351.604Z" fill="#1F271B"/>
<path d="M281.221 157.988C280.404 158.106 279.623 158.402 278.933 158.855C278.243 159.308 277.661 159.907 277.227 160.61C276.793 161.312 276.519 162.102 276.423 162.922C276.327 163.742 276.412 164.574 276.671 165.358L266.919 173.807L270.604 180.992L284.208 168.866C285.495 168.342 286.545 167.364 287.159 166.117C287.773 164.869 287.909 163.44 287.541 162.099C287.173 160.758 286.326 159.599 285.161 158.841C283.996 158.083 282.594 157.78 281.221 157.988H281.221Z" fill="#FFB6B6"/>
<path d="M271.4 187.044C268.147 191.976 260.857 196.739 250.036 200.961C249.44 201.201 248.8 201.314 248.157 201.292C247.514 201.271 246.883 201.117 246.303 200.839C242.22 198.979 239.603 192.063 239.357 191.393L231.449 180.713C231.308 180.558 227.61 176.356 228.033 172.226C228.128 171.36 228.41 170.525 228.858 169.779C229.306 169.033 229.91 168.392 230.629 167.902C236.615 163.459 250.033 178.888 251.774 180.94L260.53 175.599L266.911 172.75L272.061 166.476L279.313 173.898L272.791 184.285C272.443 185.259 271.976 186.185 271.4 187.044V187.044Z" fill="#1F271B"/>
<path d="M248.656 205.966C248.656 205.966 267.395 235.844 264 239.243C260.605 242.641 255.322 243.533 255.322 243.533L243.631 228.368L248.656 205.966Z" fill="#1F271B"/>
<path d="M232.088 165.159L240.92 171.139C245.025 173.919 248.112 177.963 249.714 182.658C251.315 187.352 251.344 192.442 249.795 197.154L247.309 204.719L232.088 165.159Z" fill="#1F271B"/>
<path d="M216.472 246.719L215.291 250.836L211.262 300.479L191.134 338.031L200.74 344.899L228.189 309.18L239.046 273.713L256.095 352.227L268.905 351.311L260.008 242.452L243.127 211.811L216.472 246.719Z" fill="#1F271B"/>
<path d="M230.587 166.663L242.878 176.719C245.576 178.926 247.519 181.92 248.435 185.285V185.285C248.851 186.812 249.049 188.392 249.023 189.975L248.656 211.811L259.926 241.961C259.926 241.961 229.373 253.516 225.299 243.321C221.225 233.126 230.587 166.663 230.587 166.663Z" fill="url(#paint5_linear_2484_2)"/>
<path d="M234.263 248.613C219 248.613 215.28 248.728 215.039 248.679L214.797 248.63V239.44L218.509 222.931C218.075 217.805 217.059 211.046 217.151 205.259C217.484 184.342 216.457 163.91 216.457 163.91L224.535 156.446L228.205 158.836L235.013 165.651C242.926 185.145 249.205 203.497 249.244 204.676L249.742 224.97L247.705 233.126C238.49 239.637 246.909 248.613 234.263 248.613Z" fill="#1F271B"/>
<path opacity="0.2" d="M219.881 182.132L218.025 193.726L230.586 198.913L219.881 182.132Z" fill="black"/>
<path d="M232.535 154.271C239.327 154.271 244.833 148.759 244.833 141.96C244.833 135.16 239.327 129.648 232.535 129.648C225.743 129.648 220.236 135.16 220.236 141.96C220.236 148.759 225.743 154.271 232.535 154.271Z" fill="#FFB6B6"/>
<path opacity="0.2" d="M211.927 204.425C215.2 208.219 219.64 210.817 224.549 211.81C229.457 212.803 234.557 212.136 239.045 209.912L241.722 208.586L211.927 204.425Z" fill="black"/>
<path d="M254.723 201.591C254.175 200.974 253.498 200.485 252.74 200.159C251.982 199.832 251.162 199.676 250.337 199.701C249.512 199.725 248.703 199.931 247.966 200.303C247.23 200.675 246.583 201.204 246.073 201.853L233.655 198.363L229.696 205.4L247.301 210.081C248.447 210.868 249.842 211.206 251.22 211.031C252.598 210.857 253.865 210.183 254.78 209.136C255.694 208.09 256.194 206.744 256.184 205.353C256.173 203.963 255.654 202.624 254.723 201.591H254.723Z" fill="#FFB6B6"/>
<path d="M225.091 209.4C219.187 209.401 211.199 205.936 201.716 199.225C201.187 198.858 200.741 198.386 200.404 197.837C200.068 197.289 199.848 196.677 199.76 196.039C199.061 191.603 203.384 185.606 203.807 185.031L208.351 172.54C208.404 172.337 209.868 166.932 213.544 165.009C214.318 164.612 215.169 164.387 216.038 164.35C216.907 164.313 217.774 164.465 218.579 164.795C225.581 167.347 220.114 187.058 219.363 189.642L228.64 194.014L234.532 197.773L242.6 198.618L240.41 208.766L228.156 209.042C227.153 209.288 226.124 209.408 225.091 209.4V209.4Z" fill="#1F271B"/>
<path d="M247.283 133.861C246.298 135.143 242.906 136.276 238.878 137.191C238.884 137.107 238.884 137.024 238.884 136.94C238.864 135.657 238.704 134.381 238.408 133.133C238.129 134.661 237.542 136.116 236.683 137.41C236.619 137.507 236.554 137.603 236.484 137.7C233.028 138.383 229.372 138.911 226.508 139.266C228.478 146.365 236.027 152.189 235.209 156.505L213.09 161.027C213.226 159.234 213.083 157.43 212.666 155.68C212.242 157.989 211.124 160.114 209.461 161.768L207.581 162.155L207.022 159.391C202.169 147.724 208.933 135.78 220.015 129.602C221.991 126.637 225.059 124.576 228.549 123.869L231.309 123.302C233.051 122.945 234.845 122.935 236.591 123.273C238.336 123.61 239.997 124.289 241.481 125.269C242.964 126.25 244.24 127.513 245.235 128.987C246.231 130.461 246.926 132.117 247.283 133.861Z" fill="#1F271B"/>
<path d="M300.121 357.054L300.449 349.692C303.858 347.867 307.661 346.903 311.528 346.884C306.206 351.239 306.871 359.634 303.264 365.49C302.125 367.308 300.592 368.846 298.778 369.99C296.964 371.134 294.917 371.855 292.787 372.099L288.334 374.828C287.723 371.418 287.858 367.917 288.729 364.564C289.6 361.211 291.187 358.088 293.38 355.408C294.626 353.917 296.053 352.589 297.63 351.455C298.697 354.27 300.121 357.054 300.121 357.054Z" fill="#F2F2F2"/>
<path d="M310.917 375H155.853C155.639 374.999 155.434 374.914 155.283 374.762C155.132 374.61 155.047 374.405 155.047 374.191C155.047 373.977 155.132 373.771 155.283 373.619C155.434 373.468 155.639 373.382 155.853 373.381H310.917C311.023 373.381 311.128 373.402 311.227 373.442C311.325 373.483 311.414 373.542 311.49 373.618C311.565 373.693 311.625 373.782 311.666 373.88C311.706 373.979 311.727 374.084 311.727 374.191C311.727 374.297 311.706 374.403 311.666 374.501C311.625 374.599 311.565 374.689 311.49 374.764C311.414 374.839 311.325 374.899 311.227 374.939C311.128 374.98 311.023 375 310.917 375Z" fill="#CACACA"/>
</g>
<defs>
<linearGradient id="paint0_linear_2484_2" x1="452.064" y1="135.325" x2="493.705" y2="135.325" gradientUnits="userSpaceOnUse">
<stop stop-color="#258000"/>
<stop offset="1" stop-color="#45A400"/>
</linearGradient>
<linearGradient id="paint1_linear_2484_2" x1="281.338" y1="124.141" x2="448.939" y2="124.141" gradientUnits="userSpaceOnUse">
<stop stop-color="#258000"/>
<stop offset="1" stop-color="#45A400"/>
</linearGradient>
<linearGradient id="paint2_linear_2484_2" x1="166.477" y1="115.267" x2="215.497" y2="115.267" gradientUnits="userSpaceOnUse">
<stop stop-color="#258000"/>
<stop offset="1" stop-color="#45A400"/>
</linearGradient>
<linearGradient id="paint3_linear_2484_2" x1="107.675" y1="215.886" x2="149.638" y2="215.886" gradientUnits="userSpaceOnUse">
<stop stop-color="#258000"/>
<stop offset="1" stop-color="#45A400"/>
</linearGradient>
<linearGradient id="paint4_linear_2484_2" x1="111.474" y1="172.736" x2="135.375" y2="172.736" gradientUnits="userSpaceOnUse">
<stop stop-color="#258000"/>
<stop offset="1" stop-color="#45A400"/>
</linearGradient>
<linearGradient id="paint5_linear_2484_2" x1="224.276" y1="207.107" x2="259.926" y2="207.107" gradientUnits="userSpaceOnUse">
<stop stop-color="#258000"/>
<stop offset="1" stop-color="#45A400"/>
</linearGradient>
<clipPath id="clip0_2484_2">
<rect width="584" height="375" fill="white"/>
</clipPath>
</defs>
</svg>
