<svg width="452" height="371" viewBox="0 0 452 371" fill="none" xmlns="http://www.w3.org/2000/svg">
<path d="M408.908 30.21C408.128 27.18 406.928 24.32 405.368 21.69L408.968 16.28L403.978 11.29L398.988 6.3L393.578 9.9C390.948 8.35 388.088 7.15 385.058 6.37L383.778 0H369.658L368.378 6.37C365.348 7.15 362.488 8.35 359.858 9.9L354.448 6.3L349.458 11.29L344.468 16.28L348.068 21.69C346.518 24.32 345.318 27.18 344.538 30.21L338.168 31.49V45.61L344.538 46.89C345.318 49.92 346.518 52.78 348.068 55.41L344.468 60.82L349.458 65.81L354.448 70.8L359.858 67.2C362.488 68.75 365.348 69.95 368.378 70.73L369.658 77.1H383.778L385.058 70.73C388.088 69.95 390.948 68.75 393.578 67.2L398.988 70.8L403.978 65.81L408.968 60.82L405.368 55.41C406.918 52.78 408.118 49.92 408.908 46.89L415.278 45.61V31.49L408.908 30.21ZM376.718 63.29C363.058 63.29 351.978 52.21 351.978 38.55C351.978 24.89 363.058 13.81 376.718 13.81C390.378 13.81 401.458 24.89 401.458 38.55C401.458 52.21 390.378 63.29 376.718 63.29Z" fill="url(#paint0_linear_2477_6)"/>
<path d="M418.538 90.25C418.178 88.86 417.628 87.55 416.918 86.34L418.568 83.86L416.278 81.57L413.988 79.28L411.508 80.93C410.298 80.22 408.988 79.67 407.598 79.31L407.008 76.39H400.538L399.948 79.31C398.558 79.67 397.248 80.22 396.038 80.93L393.558 79.28L391.268 81.57L388.978 83.86L390.628 86.34C389.918 87.55 389.368 88.86 389.008 90.25L386.088 90.84V97.31L389.008 97.9C389.368 99.29 389.918 100.6 390.628 101.81L388.978 104.29L391.268 106.58L393.558 108.87L396.038 107.22C397.248 107.93 398.558 108.48 399.948 108.84L400.538 111.76H407.008L407.598 108.84C408.988 108.48 410.298 107.93 411.508 107.22L413.988 108.87L416.278 106.58L418.568 104.29L416.918 101.81C417.628 100.6 418.178 99.29 418.538 97.9L421.458 97.31V90.84L418.538 90.25ZM403.778 105.41C397.518 105.41 392.438 100.33 392.438 94.07C392.438 87.81 397.518 82.73 403.778 82.73C410.038 82.73 415.118 87.81 415.118 94.07C415.118 100.33 410.038 105.41 403.778 105.41Z" fill="url(#paint1_linear_2477_6)"/>
<path d="M213.398 315.16H248.128V209.67H213.398V315.16Z" fill="#DBDBDB"/>
<path d="M96.0685 260.49L365.458 260.49C373.881 260.49 380.708 253.662 380.708 245.24V64.18C380.708 55.7576 373.881 48.93 365.458 48.93L96.0685 48.93C87.6461 48.93 80.8185 55.7576 80.8185 64.18V245.24C80.8185 253.662 87.6461 260.49 96.0685 260.49Z" fill="#E9E9E9"/>
<path d="M92.5682 227.34L368.968 227.34V26.42L92.5682 26.42V227.34Z" fill="white"/>
<path d="M92.5682 50.6801L368.968 50.6801V26.4101L92.5682 26.4101V50.6801Z" fill="url(#paint2_linear_2477_6)"/>
<path d="M221.098 242.51C221.098 247.85 225.428 252.18 230.768 252.18C236.108 252.18 240.438 247.85 240.438 242.51C240.438 237.17 236.108 232.84 230.768 232.84C225.428 232.84 221.098 237.17 221.098 242.51Z" fill="#757575"/>
<path d="M178.129 75.14L268.269 75.14C270.202 75.14 271.769 73.573 271.769 71.64V71.45C271.769 69.517 270.202 67.95 268.269 67.95L178.129 67.95C176.196 67.95 174.629 69.517 174.629 71.45V71.64C174.629 73.573 176.196 75.14 178.129 75.14Z" fill="#E1E8DF"/>
<path d="M178.129 88.11L268.269 88.11C270.202 88.11 271.769 86.543 271.769 84.61V84.42C271.769 82.487 270.202 80.92 268.269 80.92L178.129 80.92C176.196 80.92 174.629 82.487 174.629 84.42V84.61C174.629 86.543 176.196 88.11 178.129 88.11Z" fill="#E1E8DF"/>
<path d="M268.269 101.08L178.129 101.08C176.199 101.08 174.629 99.51 174.629 97.58V97.39C174.629 95.46 176.199 93.89 178.129 93.89L268.269 93.89C270.199 93.89 271.769 95.46 271.769 97.39V97.58C271.769 99.51 270.199 101.08 268.269 101.08Z" fill="#E1E8DF"/>
<path d="M224.638 213.2H121.028C112.388 213.2 105.358 206.17 105.358 197.53V134.51C105.358 125.87 112.388 118.84 121.028 118.84H224.638C233.278 118.84 240.308 125.87 240.308 134.51V197.53C240.308 206.17 233.278 213.2 224.638 213.2ZM121.028 120.8C113.468 120.8 107.328 126.95 107.328 134.5V197.52C107.328 205.08 113.478 211.23 121.028 211.23H224.638C232.198 211.23 238.338 205.08 238.338 197.52V134.5C238.338 126.94 232.188 120.8 224.638 120.8H121.028Z" fill="#E1E8DF"/>
<path d="M216.448 142.59H129.228C125.408 142.59 122.308 139.49 122.308 135.67V134.35C122.308 130.53 125.408 127.43 129.228 127.43L216.448 127.43C220.268 127.43 223.368 130.53 223.368 134.35V135.67C223.368 139.49 220.268 142.59 216.448 142.59V142.59Z" fill="#E1E8DF"/>
<path d="M308.888 311.18H152.648V319.14H308.888V311.18Z" fill="#F0F0F0"/>
<path d="M337.888 139.55C337.888 147.83 333.418 155.06 326.748 158.97C325.408 159.75 323.978 160.4 322.488 160.9C322.358 160.95 322.218 160.99 322.078 161.03C319.968 161.69 317.728 162.04 315.398 162.04C311.808 162.04 308.408 161.2 305.398 159.7C297.998 156.02 292.908 148.38 292.908 139.55C292.908 127.13 302.978 117.06 315.398 117.06C327.818 117.06 337.888 127.13 337.888 139.55Z" fill="#E1E8DF"/>
<path d="M310.018 137.17C310.018 137.17 308.478 127.23 316.708 127.42C324.938 127.6 324.828 132.52 324.678 137.39C324.528 142.27 321.378 141.9 324.938 148.68C328.498 155.46 321.858 155.46 321.858 155.46L316.708 148.38L310.018 137.16V137.17Z" fill="#3C4145"/>
<path d="M315.818 128.37C315.818 128.37 310.248 129.25 310.028 137.17C309.808 145.09 311.528 146.78 316.408 145.13C321.288 143.48 322.828 135.19 322.938 133.91C323.048 132.63 323.338 127.42 315.828 128.37H315.818Z" fill="#EEA886"/>
<path d="M325.608 155.92C325.628 158.29 324.358 159.88 322.488 160.89C322.358 160.94 322.218 160.98 322.078 161.02C319.968 161.68 317.728 162.03 315.398 162.03C311.808 162.03 308.408 161.19 305.398 159.69C304.718 158.34 305.698 156.42 307.698 153.47C309.068 151.44 310.408 149.38 312.708 148.37C316.098 147.83 319.688 147.8 322.218 149.23C324.228 150.37 325.578 152.44 325.608 155.92V155.92Z" fill="#E55353"/>
<path d="M308.788 153.36L306.228 157.4C306.228 157.4 306.408 156.77 306.698 155C306.758 154.66 306.808 154.29 306.878 153.86C306.898 153.74 306.928 153.61 306.958 153.49C308.058 150.96 311.478 149.08 311.598 149.02L308.798 153.37L308.788 153.36Z" fill="#E55353"/>
<path d="M326.748 158.97C325.408 159.75 323.978 160.4 322.488 160.9C322.358 160.95 322.218 160.99 322.078 161.03C321.508 159.56 321.018 158.29 320.908 157.96C320.878 157.86 320.808 157.69 320.708 157.45C320.248 156.33 319.208 153.83 319.198 151.88C319.198 150.62 319.608 149.59 320.878 149.29C321.378 149.17 321.828 149.17 322.218 149.24C323.638 149.5 324.458 150.77 324.918 151.9C324.918 151.92 324.928 151.94 324.938 151.96C325.318 152.92 325.438 153.76 325.438 153.76C325.438 153.76 325.458 153.85 325.498 154.01C325.578 154.32 325.728 154.92 325.928 155.7C326.158 156.6 326.438 157.74 326.738 158.98L326.748 158.97Z" fill="#EEA886"/>
<path d="M319.538 141.56C319.058 142.47 318.548 148.14 318.548 148.14C318.548 148.14 311.728 150.72 312.428 149.26C312.748 148.6 312.838 147.74 312.848 147C312.848 146.42 312.808 145.91 312.768 145.62C312.748 145.47 312.738 145.39 312.738 145.39C312.738 145.39 320.028 140.65 319.538 141.57V141.56Z" fill="#EEA886"/>
<path d="M313.538 134.06C313.538 134.06 316.398 138.72 318.998 140.55C321.598 142.38 320.278 143.85 320.278 143.85C320.278 143.85 327.068 129.55 320.608 128.56C314.148 127.57 310.188 127.5 310.008 137.18C310.008 137.18 312.938 133.99 313.528 134.06H313.538Z" fill="#3C4145"/>
<path d="M316.648 145.04C315.598 146.58 312.838 147 312.838 147C312.838 146.42 312.798 145.91 312.758 145.62C314.538 145.96 316.648 145.04 316.648 145.04Z" fill="#A77860"/>
<path d="M306.958 153.45C306.958 153.45 306.808 153.76 306.688 154.99L307.688 153.47C307.688 153.47 309.478 150.9 310.098 150.23C310.708 149.56 311.598 148.97 311.598 148.97C311.598 148.97 308.028 150.67 306.948 153.44L306.958 153.45Z" fill="#BD4444"/>
<path d="M320.528 157.29C320.528 157.29 324.898 155.57 326.198 155.47C326.198 155.47 325.318 148.44 321.018 149.19C316.718 149.93 320.528 157.29 320.528 157.29Z" fill="#E55353"/>
<path d="M312.708 148.38C312.708 148.38 309.498 153.32 310.588 153.75C311.678 154.18 317.558 153.17 320.068 148.48C320.068 148.48 316.328 146.56 312.718 148.38H312.708Z" fill="#EEA886"/>
<path d="M346.188 73.93C346.188 90.02 333.148 103.19 316.928 103.19C300.708 103.19 287.668 90.08 287.668 73.93C287.668 57.78 300.768 44.67 316.928 44.67C333.088 44.67 346.188 57.77 346.188 73.93Z" fill="#E1E8DF"/>
<path d="M335.989 90.08L333.829 97.82C329.979 100.55 325.439 102.37 320.519 102.97C319.649 103.08 318.779 103.14 317.889 103.17C317.569 103.18 317.249 103.19 316.929 103.19C315.979 103.19 315.049 103.14 314.119 103.06C313.089 102.96 312.069 102.81 311.079 102.61C306.649 101.71 302.579 99.81 299.119 97.15C298.709 94.59 298.259 91.76 297.869 89.11C300.019 88.31 306.869 85.98 311.189 84.52C311.249 84.5 311.309 84.48 311.369 84.46C311.459 84.43 311.559 84.4 311.649 84.36C311.899 84.27 312.149 84.19 312.379 84.11C312.619 84.03 312.839 83.95 313.049 83.88C313.939 83.58 314.559 83.37 314.779 83.3C314.839 83.28 314.869 83.27 314.869 83.27H314.919L320.729 83.71L321.699 83.78L321.999 83.8C321.999 83.8 322.039 83.81 322.129 83.83C322.479 83.92 323.499 84.19 324.849 84.6C328.289 85.65 333.869 87.65 335.979 90.07L335.989 90.08Z" fill="#D9C7C1"/>
<path d="M318.448 59.4001C318.448 59.4001 325.418 60.5801 324.238 71.4801C323.058 82.3901 316.908 81.4301 316.498 81.4101C316.088 81.3901 310.308 81.5401 310.008 68.2101C310.008 68.2101 309.918 58.3501 318.458 59.4001H318.448Z" fill="#EEA987"/>
<path d="M321.508 78.25C321.508 78.25 321.268 82.74 321.688 83.72C322.108 84.7 316.098 87.79 312.358 84.27C312.358 84.27 313.118 79.36 312.878 77.63C312.648 75.9 321.508 78.26 321.508 78.26V78.25Z" fill="#EEA987"/>
<path d="M324.378 68.4C324.378 68.4 325.148 67.59 325.428 68.42C325.698 69.25 324.188 72.93 324.288 73.09C324.288 73.09 324.148 73.41 323.958 73.23C323.778 73.05 324.378 68.4 324.378 68.4V68.4Z" fill="#EEA987"/>
<path d="M310.089 68.11C310.089 68.11 309.349 67.27 309.049 68.09C308.739 68.91 309.859 72.58 309.999 72.81C309.999 72.81 310.239 73.19 310.429 73.02C310.619 72.85 310.099 68.12 310.099 68.12L310.089 68.11Z" fill="#EEA987"/>
<path d="M324.828 67.48C324.588 68.97 324.358 70.08 324.358 70.08L323.348 71.4C323.348 71.4 323.408 68.47 323.258 68.01C323.198 67.84 323.128 67.53 323.058 67.19C322.938 66.64 322.818 66.02 322.738 65.81C322.608 65.48 316.768 63.77 311.568 66.17C311.568 66.17 311.608 66.62 311.608 67.12C311.608 67.7 311.538 68.36 311.278 68.46C310.778 68.64 310.988 71.89 310.988 71.89L310.178 70.95C310.178 70.95 309.948 69.26 309.718 67.31C309.718 67.31 309.718 67.31 309.718 67.3C309.668 66.85 309.608 66.38 309.558 65.92C309.438 63.96 309.638 60.4 312.188 58.31C313.908 57.57 316.658 56.95 321.238 58.35C321.238 58.35 322.288 58.42 322.588 58.7C325.438 61.84 324.848 67.48 324.848 67.48H324.828Z" fill="#E8734D"/>
<path d="M313.358 79.96C313.358 79.96 314.468 81.5 317.058 81.45C319.638 81.39 320.768 80.04 320.768 80.04C320.768 80.04 319.548 82.6 317.048 82.57C314.558 82.54 313.368 79.96 313.368 79.96H313.358Z" fill="#C78D71"/>
<path d="M311.648 84.36C311.648 84.36 313.518 87.61 317.058 87.92C319.308 88.11 321.248 85.27 322.158 83.87C322.158 83.87 317.128 81.72 311.648 84.37V84.36Z" fill="#EEA987"/>
<path d="M321.508 82.84C321.508 82.84 320.088 84.71 317.048 86.7L318.938 89.61L322.158 83.87L321.508 82.84V82.84Z" fill="#EDDAD3"/>
<path d="M312.499 83.27C312.499 83.27 314.309 85.54 317.059 86.7L314.989 89.7L311.369 84.46L312.499 83.28V83.27Z" fill="#EDDAD3"/>
<path d="M317.058 86.7L318.678 89.16C318.678 89.16 316.978 90.12 315.398 89.1L317.058 86.7V86.7Z" fill="#5073AB"/>
<path d="M337.858 89.62C337.578 90.62 337.158 92.08 336.068 96.07C335.738 96.36 335.388 96.64 335.038 96.92C334.648 97.23 334.238 97.53 333.838 97.82C329.988 100.55 325.448 102.37 320.528 102.97C320.958 92.84 322.168 83.86 322.168 83.86C323.118 84.11 324.018 84.36 324.868 84.6C332.298 86.73 336.058 88.6 337.348 89.31C337.348 89.31 337.368 89.32 337.378 89.33C337.708 89.52 337.868 89.62 337.868 89.62H337.858Z" fill="#323657"/>
<path d="M311.079 102.61C306.649 101.71 302.579 99.81 299.119 97.15C298.079 96.35 297.089 95.48 296.169 94.55C295.989 94.37 295.809 94.18 295.639 94C295.129 91.82 294.789 90.4 294.759 90.31C294.759 90.31 298.379 87.93 311.189 84.51C311.189 84.81 311.189 93.03 311.079 102.61V102.61Z" fill="#323657"/>
<path d="M317.979 89.43C317.859 92.1 317.849 97.2701 317.889 103.18C317.569 103.19 317.249 103.2 316.929 103.2C315.979 103.2 315.049 103.15 314.119 103.07C314.679 95.7901 315.629 91.23 316.059 89.43C316.199 88.84 316.289 88.55 316.289 88.55L318.009 88.83C317.999 89.02 317.989 89.22 317.979 89.44V89.43Z" fill="#5073AB"/>
<path d="M339.339 92.76C338.339 93.95 337.249 95.06 336.069 96.08C335.739 96.37 335.389 96.65 335.039 96.93L337.859 89.63C338.549 90.21 339.099 92.2 339.339 92.77V92.76Z" fill="#323657"/>
<path d="M296.159 94.5501C295.979 94.3701 295.799 94.1801 295.629 94.0001C294.969 93.3101 294.349 92.5801 293.769 91.8301C294.099 91.0401 294.429 90.5101 294.749 90.3101L296.159 94.5501V94.5501Z" fill="#323657"/>
<path d="M140.228 33.97H107.408C105.586 33.97 104.108 35.4474 104.108 37.27V39.84C104.108 41.6625 105.586 43.14 107.408 43.14H140.228C142.051 43.14 143.528 41.6625 143.528 39.84V37.27C143.528 35.4474 142.051 33.97 140.228 33.97Z" fill="#F5F7FF"/>
<path d="M315.681 215.65C328.101 215.488 338.038 205.288 337.875 192.868C337.712 180.448 327.512 170.512 315.093 170.674C302.673 170.837 292.736 181.037 292.899 193.457C293.061 205.877 303.262 215.813 315.681 215.65Z" fill="#E1E8DF"/>
<path d="M315.399 202.11C314.779 202.11 314.269 201.6 314.269 200.98V185.31C314.269 184.68 314.779 184.18 315.399 184.18C316.019 184.18 316.529 184.69 316.529 185.31V200.98C316.529 201.6 316.019 202.11 315.399 202.11Z" fill="#949494"/>
<path d="M323.228 194.28H307.558C306.928 194.28 306.428 193.77 306.428 193.15C306.428 192.53 306.938 192.02 307.558 192.02H323.228C323.858 192.02 324.358 192.53 324.358 193.15C324.358 193.77 323.848 194.28 323.228 194.28Z" fill="#949494"/>
<path d="M255.088 119.82H267.358C269.798 119.82 271.768 121.8 271.768 124.23V136.5C271.768 138.94 269.788 140.91 267.358 140.91H255.088C252.648 140.91 250.678 138.93 250.678 136.5V124.23C250.678 121.79 252.658 119.82 255.088 119.82Z" fill="url(#paint3_linear_2477_6)"/>
<path d="M260.558 135.01L255.228 130.36C254.788 129.98 254.748 129.32 255.128 128.88C255.508 128.44 256.168 128.4 256.608 128.78L260.378 132.07L265.758 126.07C266.148 125.64 266.808 125.6 267.238 125.99C267.668 126.38 267.708 127.04 267.318 127.47L260.558 135.01V135.01Z" fill="#F3F3F3"/>
<path d="M255.088 146.85H267.358C269.798 146.85 271.768 148.83 271.768 151.26V163.53C271.768 165.97 269.788 167.94 267.358 167.94H255.098C252.658 167.94 250.688 165.96 250.688 163.53V151.26C250.688 148.82 252.668 146.85 255.098 146.85H255.088Z" fill="url(#paint4_linear_2477_6)"/>
<path d="M260.558 162.04L255.228 157.39C254.788 157.01 254.748 156.35 255.128 155.91C255.508 155.47 256.168 155.43 256.608 155.81L260.378 159.1L265.758 153.1C266.148 152.67 266.808 152.63 267.238 153.02C267.668 153.41 267.708 154.07 267.318 154.5L260.558 162.04V162.04Z" fill="#F3F3F3"/>
<path d="M255.088 173.88H267.358C269.798 173.88 271.768 175.86 271.768 178.29V190.56C271.768 193 269.788 194.97 267.358 194.97H255.088C252.648 194.97 250.678 192.99 250.678 190.56V178.3C250.678 175.86 252.658 173.89 255.088 173.89V173.88Z" fill="url(#paint5_linear_2477_6)"/>
<path d="M165.809 325.65C165.809 325.65 164.739 328.06 163.829 329.02C162.919 329.98 159.459 331.68 159.439 334.52C159.419 337.6 165.279 336.74 167.569 336.63C169.859 336.52 170.029 334.87 170.999 333.13C171.959 331.39 172.939 331.68 173.119 330.28C173.299 328.87 172.379 325.73 172.379 325.73L165.809 325.65V325.65Z" fill="#131C24"/>
<path d="M165.709 324.76L165.539 326.22C165.539 326.22 169.139 327.43 172.549 326.35L172.359 324.35L165.709 324.76Z" fill="#4F4946"/>
<path d="M208.049 325.65C208.049 325.65 209.119 328.06 210.029 329.02C210.939 329.98 214.399 331.68 214.419 334.52C214.439 337.6 208.579 336.74 206.289 336.63C203.999 336.52 203.829 334.87 202.859 333.13C201.899 331.39 200.919 331.68 200.739 330.28C200.559 328.87 201.479 325.73 201.479 325.73L208.049 325.65Z" fill="#131C24"/>
<path d="M208.149 324.76L208.319 326.22C208.319 326.22 204.719 327.43 201.309 326.35L201.499 324.35L208.149 324.76Z" fill="#4F4946"/>
<path d="M206.249 285.91C206.249 289.7 209.789 324.35 209.789 324.35C209.379 325.61 200.689 325.46 199.329 324.83C197.969 324.2 194.029 289.86 193.779 286.04C193.529 282.21 187.869 248.94 186.679 249.06C185.489 249.19 179.849 284.85 178.899 287.76C177.949 290.67 173.639 325.16 173.639 325.16C170.659 326.8 163.559 324.75 163.559 324.75C163.559 324.75 165.049 289.33 165.219 288.27C165.469 286.69 165.209 282.42 165.899 272.96C166.519 264.49 168.749 246.06 170.159 236.08C170.209 235.72 170.259 235.38 170.309 235.06C170.589 233.12 170.799 231.69 170.889 231.01C170.929 230.71 170.959 230.56 170.959 230.56C171.339 230.4 171.739 230.25 172.159 230.11C182.099 226.78 201.009 226.99 201.009 226.99C201.009 226.99 201.269 230.39 201.289 230.55C201.319 230.75 201.359 231.06 201.409 231.47C201.519 232.35 201.689 233.66 201.869 235.18C201.869 235.19 201.869 235.2 201.869 235.21C201.869 235.26 201.879 235.3 201.889 235.35C202.559 240.77 203.499 248.69 203.409 249.52C203.269 250.79 206.239 282.14 206.239 285.93L206.249 285.91Z" fill="#212121"/>
<path d="M207.668 173.68L202.788 191.19C202.618 191.76 202.418 192.46 202.208 193.27V193.3C202.208 193.3 202.198 193.31 202.198 193.32C201.388 196.44 200.378 201.2 200.078 206.49C199.878 210.09 200.538 224.58 200.538 224.58C200.538 224.58 193.148 227.34 182.098 226.64C182.098 226.64 170.208 226.36 171.178 219.07C173.738 199.78 171.238 191.82 170.898 189.89C170.898 189.89 169.498 181 168.338 173.15C171.688 171.9 185.768 166.62 185.768 166.62L193.168 167.17C193.168 167.17 204.418 169.94 207.668 173.68Z" fill="#DBD8E3"/>
<path d="M189.479 141.86C189.479 141.86 196.709 143.08 195.479 154.39C194.249 165.7 187.879 164.7 187.449 164.69C187.019 164.67 181.039 164.83 180.719 150.99C180.719 150.99 180.629 140.76 189.479 141.85V141.86Z" fill="#EEA987"/>
<path d="M192.649 161.41C192.649 161.41 192.399 166.07 192.839 167.08C193.279 168.09 187.039 171.3 183.159 167.65C183.159 167.65 183.939 162.56 183.699 160.76C183.459 158.96 192.649 161.41 192.649 161.41Z" fill="#EEA987"/>
<path d="M195.629 151.19C195.629 151.19 196.429 150.35 196.709 151.21C196.989 152.07 195.429 155.88 195.529 156.06C195.529 156.06 195.379 156.39 195.189 156.21C194.999 156.02 195.629 151.2 195.629 151.2V151.19Z" fill="#EEA987"/>
<path d="M180.799 150.89C180.799 150.89 180.029 150.02 179.719 150.87C179.399 151.72 180.559 155.53 180.699 155.76C180.699 155.76 180.949 156.15 181.139 155.97C181.339 155.79 180.799 150.89 180.799 150.89V150.89Z" fill="#EEA987"/>
<path d="M196.088 150.23C195.838 151.78 195.608 152.93 195.608 152.93L194.558 154.3C194.558 154.3 194.618 151.26 194.458 150.79C194.398 150.61 194.328 150.29 194.248 149.94C194.128 149.37 194.008 148.72 193.918 148.51C193.778 148.17 187.728 146.4 182.328 148.88C182.328 148.88 182.378 149.35 182.368 149.87C182.368 150.48 182.298 151.16 182.018 151.26C181.498 151.45 181.718 154.81 181.718 154.81L180.878 153.84C180.878 153.84 180.638 152.08 180.398 150.06C180.398 150.06 180.398 150.06 180.398 150.05C180.348 149.58 180.288 149.09 180.238 148.61C180.118 146.58 180.318 142.89 182.968 140.72C184.758 139.96 189.638 139.19 192.358 140.76C192.358 140.76 193.818 141.67 194.118 141.96C197.078 145.22 196.088 150.23 196.088 150.23V150.23Z" fill="#E8734D"/>
<path d="M184.189 163.18C184.189 163.18 185.339 164.78 188.019 164.72C190.699 164.66 191.859 163.26 191.859 163.26C191.859 163.26 190.589 165.91 187.999 165.88C185.409 165.85 184.179 163.17 184.179 163.17L184.189 163.18Z" fill="#C78D71"/>
<path d="M182.418 167.75C182.418 167.75 184.358 171.12 188.028 171.44C190.358 171.64 192.358 168.68 193.308 167.23C193.308 167.23 188.108 165 182.418 167.75Z" fill="#EEA987"/>
<path d="M192.648 166.16C192.648 166.16 191.168 168.1 188.028 170.17L189.988 173.19L193.328 167.21L192.658 166.17L192.648 166.16Z" fill="#EDDAD3"/>
<path d="M183.298 166.62C183.298 166.62 185.178 168.98 188.028 170.18L185.878 173.29L182.148 167.99L183.298 166.63V166.62Z" fill="#EDDAD3"/>
<path d="M188.029 170.17L189.709 172.72C189.709 172.72 187.949 173.72 186.309 172.66L188.029 170.17V170.17Z" fill="#D44040"/>
<path d="M170.769 227.95C170.769 227.95 179.839 231.29 200.339 228.15L200.069 224.44C200.069 224.44 188.179 227.95 171.129 224.94L170.769 227.95V227.95Z" fill="#1A2833"/>
<path d="M193.319 167.21C193.319 167.21 191.199 183.07 191.489 196.73C191.779 210.39 196.219 236.01 196.219 236.01C196.219 236.01 204.129 235.24 206.089 232.76C206.089 232.76 201.549 208.11 201.679 204.45C201.809 200.8 207.499 173.32 207.499 173.32C207.499 173.32 205.279 170.36 193.329 167.21H193.319Z" fill="#383838"/>
<path d="M181.979 168.04C181.979 168.04 181.959 183.07 181.669 196.73C181.379 210.39 179.579 235.82 179.579 235.82C179.579 235.82 170.299 234.5 168.339 232.03C168.339 232.03 171.609 208.11 171.479 204.45C171.349 200.8 167.289 173.59 167.289 173.59C167.289 173.59 168.699 171.58 181.979 168.04V168.04Z" fill="#383838"/>
<path d="M188.709 225.58H183.139V229.72H188.709V225.58Z" fill="#9C9C9C"/>
<path d="M187.239 172.08C187.239 172.08 184.749 180.57 184.529 197.44C184.309 214.31 184.839 219.14 184.839 219.14L186.779 222.98L189.369 218.97C189.369 218.97 188.539 180.16 189.019 172.37L187.239 172.08V172.08Z" fill="#D44040"/>
<path d="M197.628 195.81C197.628 195.81 201.308 193.96 201.818 193.63C202.328 193.3 208.478 192.39 209.258 192.42C210.038 192.45 210.068 193.06 209.848 193.28C209.628 193.5 203.478 194.51 203.378 194.66C203.268 194.81 203.898 194.75 203.898 194.75C203.898 194.75 210.528 194.65 210.988 195.09C211.448 195.53 210.918 195.95 210.648 196.06C210.648 196.06 211.248 196.75 210.558 197.04C209.858 197.33 208.918 197.51 208.918 197.51C208.918 197.51 209.798 197.96 209.218 198.36C208.638 198.76 201.618 200.94 201.618 200.94C201.618 200.94 199.008 195.95 197.628 195.81V195.81Z" fill="#EEA886"/>
<path d="M210.279 208.51C205.489 209.65 194.429 207.8 190.219 206.87C189.329 206.67 188.319 206.47 187.279 206.26C185.559 205.92 183.759 205.59 182.299 205.33C180.499 205.01 179.219 204.79 179.219 204.79C179.219 204.79 202.439 199.57 203.289 199.57C204.139 199.57 201.149 186 201.149 186C201.149 186 198.159 174.63 199.709 170.17C199.709 170.17 205.599 171.96 207.509 173.32C208.569 174.08 209.359 179.01 210.079 182.36C210.999 186.61 213.129 196.28 213.369 198.33C213.589 200.19 215.079 207.37 210.289 208.51H210.279Z" fill="#383838"/>
<path d="M174.758 170.23C174.758 170.23 167.628 172.67 167.288 173.59C165.848 177.51 165.178 181.79 164.708 183.51C164.138 185.61 162.848 191.88 162.518 193.92C162.098 196.53 161.278 205.77 161.638 207.19C162.088 208.99 166.328 208.86 168.608 208.5C170.898 208.14 202.658 200.41 202.658 200.41C202.658 200.41 200.848 194.5 200.758 193.98C200.758 193.98 176.268 196.78 173.148 197.44C171.368 197.82 170.978 197.97 170.978 197.97C170.978 197.97 176.378 175.81 174.758 170.22V170.23Z" fill="#383838"/>
<path d="M178.979 196.68C178.979 196.68 175.779 194.08 175.359 193.65C174.929 193.22 169.119 191.01 168.359 190.86C167.599 190.72 167.469 191.33 167.529 191.63C167.629 192.16 173.559 194.15 173.629 194.31C173.699 194.48 173.099 194.29 173.099 194.29C173.099 194.29 166.649 192.76 166.099 193.1C165.549 193.43 165.979 193.96 166.219 194.12C166.219 194.12 165.479 194.67 166.099 195.1C166.719 195.53 167.599 195.91 167.599 195.91C167.599 195.91 166.649 196.16 167.119 196.68C167.599 197.2 170.989 197.97 170.989 197.97C170.989 197.97 177.609 196.52 178.989 196.68H178.979Z" fill="#EEA886"/>
<path d="M198.048 201.53L187.278 206.26C185.558 205.92 183.758 205.59 182.298 205.33L198.058 201.53H198.048Z" fill="#313131"/>
<path d="M192.858 141.78C192.858 141.78 194.648 140.88 195.618 142.06C196.588 143.24 196.688 149.68 195.508 152.15C194.328 154.62 195.698 143.38 192.858 141.78Z" fill="#E8734D"/>
<path d="M124.618 205.61H121.408V351.36H124.618V205.61Z" fill="#65706C"/>
<path d="M42.8583 144.72H129.118C134.428 144.72 138.738 149.03 138.738 154.34V317.67C138.738 322.98 134.428 327.29 129.118 327.29H42.8583C37.5483 327.29 33.2383 322.98 33.2383 317.67V154.34C33.2383 149.03 37.5483 144.72 42.8583 144.72V144.72Z" fill="#818181"/>
<path d="M126.328 147.66H45.6384C40.3862 147.66 36.1284 151.918 36.1284 157.17V310.65C36.1284 315.902 40.3862 320.16 45.6384 320.16H126.328C131.581 320.16 135.838 315.902 135.838 310.65V157.17C135.838 151.918 131.581 147.66 126.328 147.66Z" fill="white"/>
<path d="M101.709 143.33H70.2686V150.43H101.709V143.33Z" fill="#575757"/>
<path d="M116.648 313.27H52.8185C47.6485 313.27 43.4385 309.06 43.4385 303.89V267.56C43.4385 262.39 47.6485 258.18 52.8185 258.18H116.648C121.818 258.18 126.028 262.39 126.028 267.56V303.89C126.028 309.06 121.818 313.27 116.648 313.27V313.27ZM52.8185 259.39C48.3185 259.39 44.6485 263.06 44.6485 267.56V303.89C44.6485 308.39 48.3085 312.06 52.8185 312.06H116.648C121.148 312.06 124.818 308.4 124.818 303.89V267.56C124.818 263.06 121.158 259.39 116.648 259.39H52.8185Z" fill="#91988E"/>
<path d="M59.3884 225.38C59.3884 225.38 59.3884 225.38 59.3784 225.38C59.4384 225.41 59.4484 225.41 59.3884 225.38Z" fill="#323657"/>
<path d="M114.818 221.46C109.078 221.46 104.418 216.79 104.418 211.06C104.418 205.33 109.088 200.66 114.818 200.66C120.548 200.66 125.218 205.33 125.218 211.06C125.218 216.79 120.548 221.46 114.818 221.46ZM114.818 201.87C109.748 201.87 105.628 205.99 105.628 211.06C105.628 216.13 109.748 220.25 114.818 220.25C119.888 220.25 124.008 216.13 124.008 211.06C124.008 205.99 119.888 201.87 114.818 201.87Z" fill="#91988E"/>
<path d="M114.818 245.42C109.078 245.42 104.418 240.75 104.418 235.02C104.418 229.29 109.088 224.62 114.818 224.62C120.548 224.62 125.218 229.29 125.218 235.02C125.218 240.75 120.548 245.42 114.818 245.42ZM114.818 225.83C109.748 225.83 105.628 229.95 105.628 235.02C105.628 240.09 109.748 244.21 114.818 244.21C119.888 244.21 124.008 240.09 124.008 235.02C124.008 229.95 119.888 225.83 114.818 225.83V225.83Z" fill="#91988E"/>
<path d="M67.9383 211.52C67.0783 211.52 66.2083 211.48 65.3583 211.4C64.4083 211.31 63.4683 211.17 62.5583 210.98C58.5883 210.17 54.7783 208.44 51.5483 205.95C50.5883 205.22 49.6783 204.41 48.8283 203.56C48.6583 203.38 48.4883 203.21 48.3383 203.05C47.7383 202.42 47.1683 201.75 46.6283 201.05C42.9483 196.3 41.0083 190.6 41.0083 184.58C41.0083 169.72 53.0983 157.64 67.9483 157.64V158.85C53.7583 158.85 42.2083 170.39 42.2083 184.59C42.2083 190.34 44.0683 195.79 47.5783 200.32C48.0883 200.99 48.6383 201.63 49.2083 202.23C49.3483 202.39 49.5083 202.55 49.6783 202.72C50.4883 203.54 51.3583 204.31 52.2783 205.01C55.3583 207.38 58.9983 209.04 62.7983 209.81C63.6683 209.99 64.5683 210.12 65.4783 210.21C66.2983 210.29 67.1283 210.33 67.9483 210.33C68.2483 210.33 68.5283 210.33 68.7883 210.32C69.5683 210.29 70.3483 210.24 71.1083 210.14C75.3083 209.63 79.3583 208.06 82.8083 205.61C83.1683 205.35 83.5283 205.08 83.8683 204.82C84.1583 204.59 84.4683 204.34 84.7683 204.07C85.7983 203.18 86.7683 202.2 87.6483 201.16C91.5383 196.54 93.6783 190.66 93.6783 184.6C93.6783 183.34 93.5883 182.06 93.3983 180.82L94.5983 180.64C94.7883 181.94 94.8883 183.27 94.8883 184.59C94.8883 190.93 92.6483 197.08 88.5783 201.92C87.6583 203.01 86.6483 204.04 85.5683 204.97C85.2483 205.25 84.9283 205.51 84.6183 205.75C84.2683 206.03 83.8883 206.31 83.5083 206.58C79.8883 209.15 75.6483 210.79 71.2483 211.33C70.4583 211.43 69.6383 211.49 68.8283 211.52C68.5483 211.52 68.2583 211.53 67.9483 211.53L67.9383 211.52Z" fill="#91988E"/>
<path d="M86.7284 198.84C86.6384 198.72 86.5484 198.62 86.4684 198.55C86.4384 198.51 86.3984 198.48 86.3284 198.44C86.3284 198.44 86.3084 198.44 86.3084 198.42C81.2884 195.64 72.2184 193.38 72.2184 193.38C71.9584 192.78 71.9784 190.68 72.0184 189.43C72.9584 188.34 73.8084 186.63 74.2884 183.97C74.4384 184.08 74.5584 183.82 74.5584 183.82C74.4784 183.67 75.8284 180.36 75.5884 179.61C75.4484 179.19 75.1684 179.24 74.9484 179.36C74.9784 179.17 75.0184 178.97 75.0484 178.76C75.0484 178.76 75.5884 173.69 73.0184 170.86C72.7584 170.6 71.8084 170.54 71.8084 170.54C67.6884 169.28 65.2084 169.84 63.6584 170.5C61.3584 172.38 61.1884 175.58 61.2884 177.35C61.3384 177.77 61.3784 178.19 61.4284 178.6V178.61C61.4484 178.77 61.4684 178.93 61.4884 179.09C61.2784 178.96 60.9884 178.9 60.8384 179.31C60.5684 180.05 61.5684 183.35 61.6884 183.55C61.6884 183.55 61.9084 183.89 62.0784 183.74C62.5484 186.64 63.4084 188.43 64.3084 189.53C64.2184 191.16 63.9284 193.2 63.8484 193.74C61.7384 194.4 51.1784 197.21 47.9884 199.31C47.6984 199.49 47.3984 199.97 47.1084 200.68C47.6284 201.36 48.1884 202.01 48.7784 202.64C48.9384 202.81 49.0984 202.97 49.2584 203.14C50.0884 203.98 50.9784 204.76 51.9184 205.48C55.0284 207.87 58.6984 209.58 62.6884 210.39C63.5884 210.57 64.4984 210.71 65.4284 210.8C66.2584 210.88 67.0984 210.92 67.9584 210.92C68.2484 210.92 68.5384 210.92 68.8184 210.91C69.6184 210.88 70.4084 210.82 71.1884 210.73C75.6184 210.19 79.6984 208.55 83.1684 206.09C83.5384 205.83 83.8984 205.56 84.2484 205.28C84.5584 205.03 84.8684 204.78 85.1684 204.52C86.2284 203.6 87.2084 202.61 88.1084 201.54C87.6084 200.33 87.1484 199.39 86.7384 198.86L86.7284 198.84Z" fill="#91988E"/>
<path d="M369.288 259.45H400.498V257.6H369.288V259.45Z" fill="#E2D2CA"/>
<path d="M396.308 264.27H393.578V348.52H396.308V264.27Z" fill="#706865"/>
<path d="M352.478 259.72H374.168V257.07H352.478V259.72Z" fill="#CCBDB7"/>
<path d="M359.218 259.45H367.428V234.5H359.218V259.45Z" fill="#656565"/>
<path d="M291.488 264.28H411.688V259.49H291.488V264.28Z" fill="#B59074"/>
<path d="M434.758 230.49C434.758 230.49 436.068 248.92 432.468 251.13C430.208 252.51 421.218 257.17 421.478 258.05C421.748 258.92 426.558 265.83 426.558 265.83C426.558 265.83 443.838 254.45 444.398 250.86C444.938 247.36 443.548 223.87 441.168 222.78C439.388 221.97 438.448 222.64 436.208 224.31C433.058 226.64 434.748 230.49 434.748 230.49H434.758Z" fill="#383838"/>
<path d="M403.268 235.75L401.748 235.19C401.748 235.19 403.648 230.73 404.478 230.84C405.438 230.96 406.628 231.28 406.628 231.28L403.278 235.75H403.268Z" fill="#EAD8CF"/>
<path d="M402.918 236.52C403.108 236.38 406.158 230.54 406.158 230.54L412.658 231.42L409.148 238.33L402.918 236.51V236.52Z" fill="#DA9B5B"/>
<path d="M413.498 337.02C413.498 337.02 414.038 340.75 414.108 341.31C414.178 341.87 420.088 340.98 420.088 340.98L420.568 336.54C420.568 336.54 414.248 336.49 413.508 337.02H413.498Z" fill="#424773"/>
<path d="M414.038 340.84C414.038 340.84 412.168 343.09 410.358 344.07C408.548 345.05 405.698 345.44 404.628 346.45C403.858 347.18 401.808 350.33 409.338 350.27C416.858 350.21 420.488 350.72 421.298 349.51C422.108 348.3 420.128 340.59 420.128 340.59C420.128 340.59 418.348 341.23 414.048 340.84H414.038Z" fill="#141C12"/>
<path d="M375.628 337.06C375.628 337.06 376.168 340.79 376.228 341.35C376.298 341.91 382.208 341.02 382.208 341.02L382.688 336.58C382.688 336.58 376.368 336.53 375.628 337.06V337.06Z" fill="#424773"/>
<path d="M376.168 340.88C376.168 340.88 374.298 343.13 372.488 344.11C370.678 345.09 364.008 345.9 362.938 346.91C362.168 347.64 360.878 350.59 371.468 350.31C378.988 350.11 382.618 350.76 383.428 349.55C384.238 348.34 382.258 340.63 382.258 340.63C382.258 340.63 380.578 341.32 376.178 340.88H376.168Z" fill="#141C12"/>
<path d="M432.568 272.59C432.568 272.59 411.078 276.23 406.228 276.99C401.378 277.75 375.058 284.3 371.768 286.3C369.148 287.89 373.138 326.04 374.078 340.59H384.448L385.198 296.93C397.638 297.24 406.518 294.02 415.568 295.4C424.628 296.78 432.178 298.73 437.938 291.01C437.938 291.01 438.148 274.28 432.578 272.6L432.568 272.59Z" fill="#2A2A2A"/>
<path d="M411.378 340.62L421.478 340L422.458 296.93C427.808 297.06 429.648 296.72 433.978 296.2L442.138 277.24C434.988 278.67 412.088 284.45 409.038 286.3C406.418 287.89 410.438 326.07 411.378 340.63V340.62Z" fill="#2A2A2A"/>
<path d="M422.668 192.03C422.668 192.03 414.788 189.85 411.788 195.97C408.778 202.09 410.148 213.68 414.118 214.77C418.088 215.86 423.798 214.61 425.448 210.8C427.098 206.99 428.408 201.59 428.018 198.08C427.628 194.58 424.768 192.87 422.678 192.03H422.668Z" fill="#EEA886"/>
<path d="M416.168 213.55C416.168 213.55 416.258 218.2 415.738 219.19C415.228 220.18 426.708 219.93 426.708 219.93C426.708 219.93 424.898 214.35 425.928 209.59C426.948 204.88 416.168 213.55 416.168 213.55V213.55Z" fill="#EEA886"/>
<path d="M426.548 207.83C426.548 207.83 425.938 209.08 422.958 208.88C419.988 208.68 416.068 205.09 414.808 204.77C413.548 204.45 413.468 203.73 413.468 203.73L412.798 204.92L411.508 205.12C411.508 205.12 412.388 201.53 410.468 200.26C408.558 198.99 411.328 188.8 421.018 191.26C421.018 191.26 428.418 192.61 428.518 196.75C428.618 200.88 427.978 205.65 426.538 207.84L426.548 207.83Z" fill="#3A3F47"/>
<path d="M415.138 219.08C415.138 219.08 415.168 217.19 416.028 217C416.888 216.82 425.058 215.7 426.108 216.11L426.558 218.61C426.558 218.61 424.528 219.86 415.138 219.08V219.08Z" fill="#E2D2CA"/>
<path d="M412.778 202.89C412.998 201.34 414.768 199.55 415.778 201.97C416.788 204.39 415.098 207.91 413.958 207.72C412.828 207.53 412.478 204.99 412.778 202.89Z" fill="#EEA886"/>
<path d="M380.938 241.46C380.938 241.46 380.938 241.46 380.948 241.46C380.888 241.49 380.878 241.49 380.938 241.46Z" fill="#323657"/>
<path d="M424.968 193.14C424.968 193.14 434.578 192.69 426.648 207.68L424.968 193.14Z" fill="#3A3F47"/>
<path d="M446.368 345.73L445.658 347.74L415.468 338.39L416.908 334.32L446.368 345.73Z" fill="#918783"/>
<path d="M414.428 336.96H417.858V304.14H414.428V336.96Z" fill="#918783"/>
<path d="M406.018 304.32H426.258V302.39H406.018V304.32Z" fill="#5E5854"/>
<path d="M385.648 345.73L386.368 347.74L416.558 338.39L415.228 334.06L385.648 345.73Z" fill="#918783"/>
<path d="M406.928 347.53V349.86L416.558 338.39L415.228 334.06L406.928 347.53Z" fill="#918783"/>
<path d="M382.828 348.53C382.828 350.09 384.088 351.35 385.648 351.35C387.208 351.35 388.468 350.09 388.468 348.53C388.468 346.97 387.208 345.71 385.648 345.71C384.088 345.71 382.828 346.97 382.828 348.53Z" fill="#BFB2AC"/>
<path d="M406.688 348.53C406.688 350.09 407.948 351.35 409.508 351.35C411.068 351.35 412.328 350.09 412.328 348.53C412.328 346.97 411.068 345.71 409.508 345.71C407.948 345.71 406.688 346.97 406.688 348.53Z" fill="#BFB2AC"/>
<path d="M443.548 348.53C443.548 350.09 444.808 351.35 446.368 351.35C447.928 351.35 449.188 350.09 449.188 348.53C449.188 346.97 447.928 345.71 446.368 345.71C444.808 345.71 443.548 346.97 443.548 348.53Z" fill="#BFB2AC"/>
<path d="M436.368 302.39H395.658C393.658 302.39 392.038 300.77 392.038 298.77V298.68C392.038 296.68 393.658 295.06 395.658 295.06H436.378C438.378 295.06 439.998 296.68 439.998 298.68V298.77C439.998 300.77 438.378 302.39 436.378 302.39H436.368Z" fill="#E2D2CA"/>
<path d="M306.868 348.53H309.608V264.28H306.868V348.53Z" fill="#706865"/>
<path d="M395.178 246.52H331.458C329.468 246.52 327.848 244.9 327.848 242.91V200.08C327.848 198.09 329.468 196.47 331.458 196.47H395.178C397.168 196.47 398.788 198.09 398.788 200.08V242.91C398.788 244.9 397.168 246.52 395.178 246.52V246.52Z" fill="#878787"/>
<path d="M330.628 238.68H396.008V199.19H330.628V238.68Z" fill="#F5F7FF"/>
<path d="M330.628 202.33H396.008V199.19H330.628V202.33Z" fill="#CFD6CE"/>
<path d="M335.288 236.25H338.708C339.94 236.25 340.938 235.252 340.938 234.02V206.92C340.938 205.688 339.94 204.69 338.708 204.69H335.288C334.057 204.69 333.058 205.688 333.058 206.92V234.02C333.058 235.252 334.057 236.25 335.288 236.25Z" fill="#CFD6CE"/>
<path d="M392.958 207.61H380.988C380.318 207.61 379.778 207.07 379.778 206.4V205.89C379.778 205.22 380.318 204.68 380.988 204.68H392.958C393.628 204.68 394.168 205.22 394.168 205.89V206.4C394.168 207.07 393.628 207.61 392.958 207.61Z" fill="#CFD6CE"/>
<path d="M391.668 237.06H382.268C380.898 237.06 379.778 235.94 379.778 234.57V212.07C379.778 210.7 380.898 209.58 382.268 209.58H391.668C393.038 209.58 394.158 210.7 394.158 212.07V234.57C394.158 235.94 393.038 237.06 391.668 237.06Z" fill="#CFD6CE"/>
<path d="M361.038 242.47C361.038 243.73 362.058 244.76 363.328 244.76C364.598 244.76 365.618 243.74 365.618 242.47C365.618 241.2 364.598 240.18 363.328 240.18C362.058 240.18 361.038 241.2 361.038 242.47Z" fill="#59524F"/>
<path d="M348.638 259.55V258.66C348.638 258.66 349.888 253.12 358.748 253.12C367.608 253.12 367.428 259.55 367.428 259.55H348.648H348.638Z" fill="#314875"/>
<path d="M367.528 253.94C367.528 253.94 365.608 253.79 364.898 253.36C364.198 252.94 359.978 250.1 358.988 250.55C357.998 251 351.408 253.02 351.638 253.99C351.868 254.95 352.478 254.86 352.938 254.69C353.398 254.52 358.188 253.51 358.608 253.68C358.608 253.68 353.908 255.4 353.888 256.65C353.868 257.9 354.868 258.21 355.318 258.68C355.768 259.15 356.298 260.33 357.508 260.42C358.718 260.51 364.628 258.45 365.848 258.36C367.068 258.27 369.318 258.44 369.468 258.24C369.618 258.04 367.518 253.94 367.518 253.94H367.528Z" fill="#EEA886"/>
<path d="M402.548 221.7C408.678 220.62 415.138 219.08 415.138 219.08L426.558 218.61C426.558 218.61 437.038 220.92 441.168 222.78C441.558 222.96 441.558 232.13 442.638 234.54L439.218 241.76C439.218 241.76 437.238 256.07 436.828 262.43C436.638 265.35 437.358 290.66 437.358 290.66C437.358 290.66 436.328 291.17 428.538 292.03C420.738 292.89 401.258 291.72 401.138 290.8C401.018 289.88 404.908 256.51 405.088 254.78C405.348 252.13 404.318 239.87 404.318 239.87C402.848 241.84 399.108 250.75 395.198 254.99C392.898 257.48 381.528 259.01 379.388 259.08C374.728 259.24 366.218 260.16 365.968 259.71C365.768 259.44 365.228 252.16 365.758 251.98C366.228 251.82 382.028 250.91 386.078 248.77C387.558 247.98 391.988 238.33 391.988 238.33C391.988 238.33 399.158 223.22 402.548 221.7V221.7Z" fill="#383838"/>
<path d="M444.238 289.93H425.058C421.228 289.93 418.118 286.82 418.118 282.99V251.08C418.118 247.25 421.228 244.14 425.058 244.14H444.238C448.068 244.14 451.178 247.25 451.178 251.08V282.99C451.178 286.82 448.068 289.94 444.228 289.94L444.238 289.93Z" fill="#E2D2CA"/>
<path d="M423.978 300.56C428.848 300.56 432.808 298.92 435.728 295.69C442.338 288.39 441.148 275.56 441.098 275.02C440.998 274.01 440.098 273.27 439.088 273.37C438.078 273.47 437.338 274.37 437.438 275.38C437.448 275.53 438.508 287.15 432.998 293.22C430.768 295.68 427.818 296.87 423.978 296.87C422.958 296.87 422.138 297.69 422.138 298.71C422.138 299.73 422.958 300.55 423.978 300.55V300.56Z" fill="#E2D2CA"/>
<path d="M364.278 215.33C364.278 220.41 360.168 224.56 355.048 224.56C349.928 224.56 345.808 220.43 345.808 215.33C345.808 210.23 349.938 206.1 355.048 206.1C360.158 206.1 364.278 210.23 364.278 215.33Z" fill="#EEF0F7"/>
<path d="M361.058 220.42L360.378 222.86C359.168 223.72 357.728 224.3 356.178 224.49C355.908 224.52 355.628 224.55 355.348 224.55C355.248 224.55 355.148 224.55 355.048 224.55C354.748 224.55 354.458 224.54 354.158 224.51C353.828 224.48 353.508 224.43 353.198 224.37C351.798 224.09 350.518 223.49 349.428 222.65C349.298 221.84 349.158 220.95 349.038 220.11C349.718 219.86 351.878 219.12 353.238 218.66C353.258 218.66 353.278 218.65 353.298 218.64C353.328 218.63 353.358 218.62 353.388 218.61C353.468 218.58 353.548 218.56 353.618 218.53C353.688 218.5 353.768 218.48 353.828 218.46C354.108 218.37 354.308 218.3 354.378 218.28H354.408H354.428L356.258 218.42L356.568 218.44H356.668C356.668 218.44 356.678 218.45 356.708 218.46C356.818 218.49 357.138 218.57 357.568 218.7C358.658 219.03 360.418 219.66 361.078 220.43L361.058 220.42Z" fill="#D9C7C1"/>
<path d="M355.518 210.74C355.518 210.74 357.718 211.11 357.348 214.55C356.978 217.99 355.038 217.69 354.908 217.68C354.778 217.68 352.958 217.72 352.858 213.51C352.858 213.51 352.828 210.4 355.528 210.73L355.518 210.74Z" fill="#EEA987"/>
<path d="M356.478 216.69C356.478 216.69 356.398 218.11 356.538 218.41C356.668 218.72 354.778 219.69 353.588 218.58C353.588 218.58 353.828 217.03 353.748 216.49C353.678 215.94 356.468 216.69 356.468 216.69H356.478Z" fill="#EEA987"/>
<path d="M357.388 213.58C357.388 213.58 357.628 213.33 357.718 213.58C357.808 213.84 357.328 215 357.358 215.05C357.358 215.05 357.318 215.15 357.258 215.09C357.198 215.03 357.388 213.56 357.388 213.56V213.58Z" fill="#EEA987"/>
<path d="M352.878 213.49C352.878 213.49 352.648 213.22 352.548 213.49C352.448 213.75 352.808 214.91 352.848 214.98C352.848 214.98 352.928 215.1 352.978 215.05C353.038 215 352.878 213.5 352.878 213.5V213.49Z" fill="#EEA987"/>
<path d="M357.528 213.29C357.448 213.76 357.378 214.11 357.378 214.11L357.058 214.53C357.058 214.53 357.078 213.61 357.028 213.46C357.008 213.4 356.988 213.31 356.968 213.2C356.928 213.03 356.888 212.83 356.868 212.76C356.828 212.66 354.988 212.12 353.338 212.87C353.338 212.87 353.348 213.01 353.348 213.17C353.348 213.35 353.328 213.56 353.238 213.59C353.078 213.65 353.148 214.67 353.148 214.67L352.888 214.38C352.888 214.38 352.818 213.85 352.738 213.23C352.718 213.08 352.708 212.94 352.688 212.79C352.648 212.17 352.708 211.05 353.518 210.39C354.058 210.16 354.928 209.96 356.378 210.4C356.378 210.4 356.708 210.42 356.798 210.51C357.698 211.5 357.508 213.28 357.508 213.28L357.528 213.29Z" fill="#E8734D"/>
<path d="M353.908 217.23C353.908 217.23 354.258 217.72 355.078 217.7C355.888 217.68 356.248 217.26 356.248 217.26C356.248 217.26 355.858 218.07 355.078 218.06C354.288 218.06 353.918 217.24 353.918 217.24L353.908 217.23Z" fill="#C78D71"/>
<path d="M353.368 218.62C353.368 218.62 353.958 219.65 355.078 219.74C355.788 219.8 356.398 218.9 356.688 218.46C356.688 218.46 355.098 217.78 353.368 218.62Z" fill="#EEA987"/>
<path d="M356.488 218.14C356.488 218.14 356.038 218.73 355.078 219.36L355.678 220.28L356.698 218.47L356.498 218.15L356.488 218.14Z" fill="#EDDAD3"/>
<path d="M353.638 218.27C353.638 218.27 354.208 218.99 355.078 219.35L354.428 220.29L353.288 218.64L353.648 218.27H353.638Z" fill="#EDDAD3"/>
<path d="M355.078 219.36L355.588 220.14C355.588 220.14 355.048 220.44 354.558 220.12L355.078 219.36Z" fill="#5073AB"/>
<path d="M361.648 220.28C361.648 220.28 361.648 220.3 361.638 220.33C361.578 220.53 361.368 221.3 361.088 222.32C360.978 222.41 360.878 222.5 360.768 222.59C360.648 222.69 360.518 222.78 360.388 222.88C359.178 223.74 357.738 224.32 356.188 224.51C356.328 221.31 356.708 218.48 356.708 218.48C357.008 218.56 357.288 218.64 357.558 218.71C359.898 219.38 361.088 219.97 361.498 220.2C361.608 220.26 361.658 220.29 361.658 220.29L361.648 220.28Z" fill="#323657"/>
<path d="M353.188 224.38C351.788 224.1 350.508 223.5 349.418 222.66C349.088 222.41 348.778 222.13 348.488 221.84C348.428 221.78 348.378 221.72 348.318 221.67C348.158 220.98 348.048 220.54 348.038 220.51C348.038 220.51 349.178 219.76 353.218 218.68C353.218 218.77 353.218 221.37 353.188 224.39V224.38Z" fill="#323657"/>
<path d="M355.368 220.22C355.328 221.06 355.328 222.7 355.338 224.56C355.238 224.56 355.138 224.56 355.038 224.56C354.738 224.56 354.448 224.55 354.148 224.52C354.328 222.22 354.628 220.78 354.758 220.22C354.798 220.03 354.828 219.94 354.828 219.94L355.368 220.03C355.368 220.09 355.368 220.15 355.358 220.22H355.368Z" fill="#5073AB"/>
<path d="M362.108 221.27C361.788 221.65 361.448 222 361.078 222.32C360.968 222.41 360.868 222.5 360.758 222.59C360.758 222.58 361.288 221.04 361.648 220.29C361.888 220.45 361.998 221.01 362.118 221.28L362.108 221.27Z" fill="#323657"/>
<path d="M348.488 221.83C348.428 221.77 348.378 221.71 348.318 221.66C348.108 221.44 347.918 221.21 347.728 220.97C347.828 220.72 347.938 220.55 348.038 220.49L348.478 221.83H348.488Z" fill="#323657"/>
<path d="M286.438 332.7C286.438 332.7 285.238 330.73 283.588 329.97C281.938 329.2 278.558 331.88 278.258 333.37L274.338 339.09L275.078 339.6L277.168 336.55C275.748 339.98 273.708 344.08 275.138 346.15C277.058 348.92 281.408 351.72 282.558 351.24C283.708 350.76 283.478 342.7 283.478 342.7C282.238 335.59 286.438 332.72 286.438 332.72V332.7Z" fill="#2F3526"/>
<path d="M286.438 332.7C286.438 332.7 285.008 335.45 284.278 337.58C283.548 339.71 283.408 345.62 282.948 346.03C282.488 346.44 278.838 344.6 278.348 342.39C277.858 340.18 279.338 335.77 280.748 333.45C282.158 331.13 283.588 329.97 283.588 329.97C283.588 329.97 286.078 330.45 286.438 332.7V332.7Z" fill="#DE9673"/>
<path d="M300.518 280.95C300.518 280.95 298.288 292.81 298.288 295.64C298.288 298.47 297.518 303.11 295.708 306.55C293.908 309.99 285.988 333.46 285.298 336.2C284.608 338.93 284.018 341.52 284.018 341.52C284.018 341.52 280.068 339.72 280.068 337.14C280.068 334.56 283.508 313.26 284.108 309.05C284.708 304.84 289.688 283.28 289.688 283.28L300.518 280.96V280.95Z" fill="#DE9673"/>
<path d="M287.888 280.18C287.888 280.18 288.658 290.06 288.578 292.64C288.488 295.22 287.288 301.06 287.288 302.61C287.288 304.16 287.288 336.2 288.568 340.06C289.848 343.93 284.968 341.27 284.968 341.27C284.968 341.27 276.468 320.19 276.468 311.4C276.468 302.61 277.498 298.23 276.898 292.64C276.298 287.05 273.628 279.7 273.628 279.7L287.898 280.18H287.888Z" fill="#EEA886"/>
<path d="M275.018 232.62C275.018 232.62 270.448 238.22 269.238 245.7C268.038 253.17 270.658 267.27 271.598 271.35C272.418 274.93 273.988 286.38 274.068 287.58C274.068 287.58 289.438 289.32 301.128 285.63C301.128 285.63 302.198 269.63 302.888 262.85C303.578 256.06 300.218 233.14 300.218 233.14L275.018 232.63V232.62Z" fill="black"/>
<path d="M292.598 349.8C287.088 344.99 288.568 340.05 288.568 340.05C288.568 340.05 286.368 339.27 284.578 339.71C282.788 340.16 281.828 344.42 282.548 345.78L283.108 352.78L284.018 352.71L283.718 348.97C284.778 352.58 285.788 357.11 288.228 357.82C291.508 358.78 296.718 358.21 297.318 357.1C297.918 355.99 292.608 349.79 292.608 349.79L292.598 349.8Z" fill="#2F3526"/>
<path d="M295.828 180.27C295.828 180.27 294.468 188.38 295.638 191.1C296.818 193.82 289.388 187.92 289.388 187.92C289.388 187.92 292.468 178.99 295.828 180.27Z" fill="#754836"/>
<path d="M293.078 157.74C293.078 157.74 281.148 155.01 279.668 167.75C278.178 180.49 283.548 182.09 279.918 190.73C276.288 199.37 288.788 187.92 288.788 187.92L293.078 157.74V157.74Z" fill="#754836"/>
<path d="M292.048 157.55C295.108 157.49 301.848 159.22 302.668 167.35C302.668 167.35 302.358 169.53 301.788 171.23C301.208 172.93 302.608 178.03 302.198 178.27C301.788 178.51 300.118 178.78 300.118 178.78C300.118 178.78 298.178 184.26 296.238 184.16C294.298 184.06 286.998 182.33 283.728 175.36C280.458 168.38 279.688 157.8 292.048 157.55V157.55Z" fill="#EEA886"/>
<path d="M258.698 258.45C258.698 258.45 258.988 253.55 260.278 252.79C261.578 252.03 260.828 253.55 260.828 253.55C260.828 253.55 260.098 257.11 259.938 258.55C259.938 258.62 258.698 258.46 258.698 258.46V258.45Z" fill="#1D3B54"/>
<path d="M264.708 247.41C264.708 247.41 265.068 249.61 265.738 251.73C266.408 253.85 267.018 254.52 266.748 255.74C266.548 256.66 265.508 257.35 265.248 257.05C264.988 256.76 264.858 253.19 263.378 253.21C261.898 253.23 263.818 257.62 262.938 257.3C262.058 256.98 258.678 255.12 258.888 253.33C259.098 251.53 260.458 250.24 260.368 247.55C260.288 245.12 261.048 244.1 261.048 244.1L264.698 247.42L264.708 247.41Z" fill="#EEA886"/>
<path d="M263.528 253.06C263.528 253.06 265.498 253.56 265.378 260.21L263.148 259.84C263.148 259.84 263.188 256.16 262.528 254.16C262.528 254.16 262.638 252.86 263.528 253.06V253.06Z" fill="#1D3B54"/>
<path d="M271.688 261.71L254.348 256.79L254.398 278.15L271.658 288.49L271.688 261.71Z" fill="#EDDAD3"/>
<path d="M271.658 288.49L269.488 288.89L252.698 278.45L252.908 256.89L254.348 256.79L271.658 288.49Z" fill="#EDDAD3"/>
<path d="M293.698 187.51C293.698 187.51 298.318 189.41 299.148 189.99C299.978 190.57 301.628 197.25 302.038 197.83C302.448 198.41 306.438 203.37 305.888 207.38C305.458 210.54 303.668 212.21 302.518 213.45C301.358 214.69 300.288 221.35 299.928 222.34C299.568 223.33 300.718 236.33 300.718 236.33C300.718 236.33 287.158 241.61 275.018 232.61C275.018 232.61 277.438 223.9 277.438 222.34C277.438 220.78 275.868 209.71 271.658 203.19C267.448 196.67 272.398 189.73 275.618 188.91C278.838 188.08 285.028 185.77 285.028 185.77L293.698 187.5V187.51Z" fill="black"/>
<path d="M278.908 187.93C278.908 187.93 272.118 187.51 268.718 191.47C265.318 195.43 265.498 200.14 264.628 202.18C263.758 204.22 261.778 213.01 261.348 214.44C260.918 215.86 260.488 223.87 259.878 230.31C259.258 236.75 259.388 248.77 259.388 248.77L265.888 247.59C265.888 247.59 266.148 236.13 266.318 229.48C266.478 222.83 271.888 211.09 273.928 205.95C275.968 200.81 284.108 191.14 278.918 187.92L278.908 187.93Z" fill="black"/>
<path d="M298.478 189.61C298.478 189.61 301.468 189.8 302.888 192.77C304.308 195.74 304.858 198.21 305.228 198.96C305.598 199.7 310.748 209.49 311.058 211.66C311.368 213.83 310.868 217.79 308.148 218.84C305.428 219.89 295.648 220.02 295.648 220.02C295.648 220.02 298.128 214.99 295.838 212.39C295.838 212.39 302.938 211.11 304.618 210.94C306.388 210.76 296.238 191.85 298.488 189.62L298.478 189.61Z" fill="#404040"/>
<path d="M282.218 198.02L295.438 228.91L311.928 221.14L299.738 191.47L282.218 198.02Z" fill="#D44040"/>
<path d="M289.798 213.19C289.798 213.19 288.008 213.67 287.438 213.75C286.868 213.83 287.568 214.88 288.268 214.91C288.968 214.94 289.798 213.19 289.798 213.19V213.19Z" fill="#EEA886"/>
<path d="M291.008 221.98C291.008 221.98 291.838 221.94 292.198 221.74C292.198 221.74 292.818 221.33 293.268 221.07C293.418 220.99 293.538 220.92 293.628 220.88C293.998 220.73 294.838 220.51 295.618 219.91C296.398 219.31 298.928 216.9 298.928 216.9L297.258 214.38L295.968 212.37C295.968 212.37 290.528 212.52 289.748 213C289.668 213.05 289.598 213.1 289.528 213.15C288.898 213.62 288.628 214.23 288.328 214.52C288.218 214.63 287.188 215.74 287.258 216.19C287.348 216.81 287.658 217.21 288.048 217.4C288.048 217.4 288.268 218.61 288.898 219.15C288.898 219.15 289.068 220.28 290.048 220.72C290.048 220.72 290.348 221.84 291.028 221.97L291.008 221.98Z" fill="#EEA886"/>
<path d="M295.828 212.38C295.828 212.38 303.878 210.94 306.108 210.71C306.108 210.71 306.258 207.88 305.858 205.49C305.448 203.1 303.488 199.88 303.488 199.88L307.608 203.65C307.608 203.65 310.998 210.14 311.068 211.65C311.148 213.17 311.548 215.51 309.538 217.88C307.538 220.25 298.078 219.17 298.078 219.17C298.078 219.17 298.868 216.26 295.838 212.38H295.828Z" fill="black"/>
<path d="M293.348 182.87C293.348 182.87 293.088 183.64 292.788 184.78C292.628 185.36 292.468 186.04 292.318 186.77C291.908 188.78 291.638 191.13 292.118 192.71C292.118 192.71 287.788 194.08 284.568 187.92C284.568 187.92 286.208 181.43 284.428 177.41C282.648 173.4 293.358 182.87 293.358 182.87H293.348Z" fill="#EEA886"/>
<path d="M302.668 167.35C302.668 167.35 297.608 170.59 292.668 171.14C287.728 171.68 284.968 179.16 284.968 179.16C284.968 179.16 277.198 167.05 283.458 159.61C289.718 152.17 304.008 157.93 302.668 167.34V167.35Z" fill="#754836"/>
<path d="M290.628 170.86C290.628 169.91 289.608 168.45 288.008 169.7C286.408 170.96 288.378 175.55 289.678 175.14C290.968 174.73 290.628 171.84 290.628 170.85V170.86Z" fill="#EEA886"/>
<path d="M293.978 187.63C293.978 187.63 296.018 193.65 291.248 193.61C286.478 193.58 284.408 189.83 283.048 186.51C283.048 186.51 285.248 185.44 286.268 185.29C287.288 185.14 293.978 187.63 293.978 187.63Z" fill="#EEA886"/>
<path d="M265.378 259.92L263.148 260.21V259.17L265.378 259.92Z" fill="#1D3B54"/>
<path d="M259.958 258.38L258.718 258.53C258.718 258.53 258.718 258.16 258.718 258.03C258.728 257.91 259.908 258.3 259.948 258.38H259.958Z" fill="#1D3B54"/>
<path d="M288.568 340.05C288.568 340.05 289.198 343.12 289.978 345.27C290.758 347.42 294.408 352.15 294.308 352.77C294.208 353.39 290.158 354.26 288.368 352.83C286.578 351.4 284.928 346.98 284.558 344.26C284.188 341.54 284.388 339.78 284.388 339.78C284.388 339.78 286.848 338.51 288.568 340.05Z" fill="#EEA886"/>
<path d="M293.168 183.49C293.008 184.07 292.788 184.78 292.608 185.47C288.698 182.83 286.818 179.69 286.818 179.69C289.038 181.81 293.168 183.49 293.168 183.49Z" fill="#A77860"/>
<path d="M157.939 67.73H111.829C108.067 67.73 105.019 70.7789 105.019 74.54V93.17C105.019 96.931 108.067 99.98 111.829 99.98H157.939C161.7 99.98 164.749 96.931 164.749 93.17V74.54C164.749 70.7789 161.7 67.73 157.939 67.73Z" fill="#E1E8DF"/>
<path d="M74.2883 229.68C74.2883 229.68 74.2883 229.68 74.2783 229.68C74.3383 229.71 74.3483 229.71 74.2883 229.68Z" fill="#323657"/>
<path d="M45.8683 224.53H89.9983C91.2243 224.53 92.2183 223.536 92.2183 222.31V220.95C92.2183 219.724 91.2243 218.73 89.9983 218.73H45.8683C44.6422 218.73 43.6483 219.724 43.6483 220.95V222.31C43.6483 223.536 44.6422 224.53 45.8683 224.53Z" fill="#91988E"/>
<path d="M45.8683 235H89.9983C91.2243 235 92.2183 234.006 92.2183 232.78V231.42C92.2183 230.194 91.2243 229.2 89.9983 229.2H45.8683C44.6422 229.2 43.6483 230.194 43.6483 231.42V232.78C43.6483 234.006 44.6422 235 45.8683 235Z" fill="#91988E"/>
<path d="M89.9983 245.47H45.8783C44.6483 245.47 43.6583 244.47 43.6583 243.25V241.89C43.6583 240.66 44.6583 239.67 45.8783 239.67H89.9983C91.2283 239.67 92.2183 240.67 92.2183 241.89V243.25C92.2183 244.48 91.2183 245.47 89.9983 245.47Z" fill="#91988E"/>
<path d="M109.548 155.48H120.088C122.378 155.48 124.228 157.34 124.228 159.62V192.2C124.228 194.49 122.368 196.34 120.088 196.34H109.548C107.258 196.34 105.408 194.48 105.408 192.2V159.62C105.408 157.33 107.268 155.48 109.548 155.48V155.48Z" fill="#91988E"/>
<path d="M6.77834 269.49C6.77834 269.49 7.49834 270.67 7.58834 271.64C7.65834 272.41 8.30834 273.55 8.57834 274.18C8.85834 274.81 9.75834 277.67 9.78834 278.42C9.79834 278.72 9.11834 280.64 9.21834 281.26C9.31834 281.87 9.66834 283.09 9.11834 283.17C8.56834 283.25 7.93834 282.25 7.93834 282.25C7.93834 282.25 7.98834 282.82 7.52834 283.03C6.61834 283.45 6.13834 283.08 6.13834 283.08C6.13834 283.08 5.80834 283.7 5.38834 283.79C4.45834 283.97 4.00834 283.6 4.00834 283.6C4.00834 283.6 3.59834 283.95 2.95834 283.94C2.13834 283.92 1.79834 283.22 1.79834 283.22C1.79834 283.22 0.758344 283.43 0.458344 282.95C0.158344 282.47 0.208342 281.95 0.0883415 281.51C-0.0316585 281.07 0.058339 277.12 1.39834 274.27C2.73834 271.42 1.05834 268.64 1.05834 268.64L6.76834 269.49H6.77834Z" fill="#EEA886"/>
<path d="M8.08837 281.89C8.08837 281.89 8.17836 278.34 7.24836 277.59C6.31836 276.83 6.20837 278.12 6.20837 278.12C6.20837 278.12 6.33836 276.85 5.31836 276.68C4.29836 276.51 4.25836 278.01 4.25836 278.01C4.25836 278.01 4.08837 277.03 3.01837 277.23C1.94837 277.43 2.19837 278.68 2.19837 278.68C2.19837 278.68 1.17836 277.46 0.508364 278.63C-0.611636 280.61 0.468363 282.95 0.468363 282.95C0.468363 282.95 0.788367 283.49 1.80837 283.22C1.80837 283.22 2.48837 284.6 4.01837 283.61C4.01837 283.61 5.57836 284.47 6.14836 283.09C6.14836 283.09 7.86837 283.91 8.09837 281.89H8.08837Z" fill="#DB9C7C"/>
<path d="M18.8185 218.37C18.8185 218.37 12.7385 238.62 10.6885 246.09C10.0485 248.43 8.48852 270.8 8.20852 271.7C7.92852 272.6 0.228516 273.83 0.228516 273.83C0.228516 273.83 1.15851 245.84 1.24851 244.32C1.33851 242.79 9.74852 211.54 12.1985 210.43C14.0285 209.6 14.9985 210.29 17.3085 212C20.5485 214.41 18.8085 218.37 18.8085 218.37H18.8185Z" fill="#2B2B2B"/>
<path d="M91.977 180.89L78.0684 189.988L78.7417 191.017L92.6503 181.919L91.977 180.89Z" fill="#4DA8F2"/>
<path d="M94.1282 186.14C94.1282 186.14 93.9982 186.93 93.7682 187.24C93.7682 187.24 93.3182 187.78 93.0182 188.19C92.9282 188.32 92.8482 188.43 92.7982 188.51C92.6182 188.84 92.3082 189.62 91.6482 190.3C90.9882 190.97 88.4082 193.11 88.4082 193.11L86.1982 191.23L83.9082 190.2C83.9082 190.2 85.1982 184.62 85.7382 183.92C85.7882 183.85 85.8482 183.79 85.9082 183.73C86.4282 183.18 87.0382 183 87.3482 182.74C87.4582 182.65 88.6382 181.8 89.0582 181.91C89.6382 182.06 89.9882 182.4 90.1182 182.79C90.1182 182.79 91.2482 183.14 91.6882 183.8C91.6882 183.8 92.7382 184.09 93.0582 185.07C93.0582 185.07 94.0982 185.48 94.1382 186.14H94.1282Z" fill="#EFAA88"/>
<path d="M13.8882 356.63C13.8882 356.63 13.3382 360.47 13.2682 361.05C13.1982 361.63 7.10816 360.71 7.10816 360.71L6.61816 356.13C6.61816 356.13 13.1382 356.08 13.8982 356.63H13.8882Z" fill="#424773"/>
<path d="M13.3285 360.56C13.3285 360.56 15.2585 362.88 17.1285 363.89C18.9985 364.9 21.9285 365.3 23.0285 366.34C23.8285 367.09 25.9285 370.34 18.1785 370.28C10.4285 370.21 6.68854 370.74 5.85854 369.49C5.02854 368.24 7.05855 360.3 7.05855 360.3C7.05855 360.3 8.89854 360.96 13.3285 360.56V360.56Z" fill="#2E3526"/>
<path d="M57.5283 356.63C57.5283 356.63 56.9783 360.47 56.9083 361.05C56.8383 361.63 50.7483 360.71 50.7483 360.71L50.2583 356.13C50.2583 356.13 56.7783 356.08 57.5383 356.63H57.5283Z" fill="#424773"/>
<path d="M56.9784 360.56C56.9784 360.56 58.9084 362.88 60.7784 363.89C62.6484 364.9 69.5185 365.73 70.6185 366.77C71.4185 367.52 72.7384 370.56 61.8284 370.28C54.0784 370.08 50.3384 370.74 49.5084 369.49C48.6784 368.24 50.7084 360.3 50.7084 360.3C50.7084 360.3 52.4384 361.01 56.9784 360.56V360.56Z" fill="#2E3526"/>
<path d="M18.9285 257.85C18.9285 257.85 13.2086 266.94 13.6286 275.16C14.0586 283.38 11.5486 292.36 10.6986 300.94C9.73855 310.51 5.81855 333.18 5.67855 338.3C5.53855 343.42 6.28855 359.77 6.28855 359.77L14.1385 359.95C14.1385 359.95 20.7386 320.33 22.4386 316.29C24.1486 312.25 32.6186 283.43 32.8986 280.19C33.1786 276.96 18.9285 257.85 18.9285 257.85Z" fill="#454545"/>
<path d="M49.0586 259.08C49.0586 259.08 53.3686 281.61 53.9386 286.64C54.5086 291.67 54.8886 310.99 55.1686 314.13C55.4486 317.27 57.8286 355.18 58.5886 359.95H48.5486C48.5486 359.95 40.8386 332.32 40.8386 319.25C40.8386 306.18 34.8886 290.83 31.0386 282.21C27.1986 273.59 18.3986 273.38 16.0386 257.38C16.0386 257.38 45.8486 254 49.0486 259.08H49.0586Z" fill="#454545"/>
<path d="M28.4784 181.4C28.4784 181.4 36.1584 178.53 39.7084 184.38C43.2484 190.23 42.9084 201.94 39.0384 203.38C35.1684 204.82 29.3484 204.07 27.3684 200.41C25.3884 196.75 23.5984 191.46 23.6784 187.92C23.7684 184.38 26.4684 182.42 28.4884 181.4H28.4784Z" fill="#EEA886"/>
<path d="M38.1982 203.64C38.1982 203.64 37.8782 205.71 38.4082 206.74C38.9382 207.76 28.4582 207.79 28.4582 207.79C28.4582 207.79 27.6082 202.23 25.9982 197.54C24.3882 192.84 38.2082 203.65 38.2082 203.65L38.1982 203.64Z" fill="#EEA886"/>
<path d="M25.9886 197.53C25.9886 197.53 26.7086 198.72 29.6686 198.26C32.6186 197.8 36.2286 193.87 37.4586 193.44C38.6886 193.01 38.6986 192.28 38.6986 192.28L39.4685 193.41L40.7786 193.49C40.7786 193.49 39.5885 189.98 41.3885 188.54C43.1885 187.11 39.5186 177.16 30.0486 180.47C30.0486 180.47 22.7785 182.47 23.0385 186.61C23.2985 190.75 24.3586 195.46 25.9886 197.52V197.53Z" fill="#D88A51"/>
<path d="M39.0283 206.61C39.0283 206.61 38.9983 204.66 38.1083 204.47C37.2283 204.28 28.3383 203.43 27.2583 203.86V206.13C27.2583 206.13 29.3483 207.42 39.0283 206.61Z" fill="#E2D2CA"/>
<path d="M38.5081 190.78C38.3381 190.09 36.5781 188.1 35.8981 190.23C35.2181 192.35 36.9181 195.21 37.8681 194.96C38.8181 194.72 38.9281 192.54 38.5081 190.78V190.78Z" fill="#EEA886"/>
<path d="M53.7282 209.57C47.6382 208.77 39.0382 206.61 39.0382 206.61L27.2682 206.13C27.2682 206.13 16.4682 208.51 12.2082 210.43C11.8082 210.61 11.7982 220.07 10.6982 222.55L14.2282 229.99C14.2282 229.99 16.2682 244.73 16.6882 251.29C16.8782 254.3 12.4882 279.51 12.4882 279.51C12.4882 279.51 17.1982 280.9 25.2382 281.78C33.2682 282.67 53.3482 281.46 53.4682 280.51C53.5982 279.56 49.5782 245.18 49.4082 243.39C49.1382 240.66 50.3482 226.13 50.3482 226.13C52.1982 224.69 68.4882 217.13 72.9382 213.19C74.1282 212.14 79.1482 207.25 80.5782 205.56C85.6282 199.59 89.7682 194.46 90.2782 193.36C90.8482 192.73 84.7882 189.44 84.2382 189.25C83.7582 189.09 76.9282 197.94 74.2982 200.79C73.1282 202.06 68.2582 205.6 68.2582 205.6C68.2582 205.6 57.5682 209.77 53.7582 209.55L53.7282 209.57Z" fill="#2B2B2B"/>
<path d="M26.2886 182.09C26.2886 182.09 16.4886 182.86 25.9886 197.53L26.2886 182.09Z" fill="#D88A51"/>
<path d="M92.6483 181.94L93.4483 180.71L91.9683 180.9L92.6483 181.94Z" fill="#DFE1E8"/>
<defs>
<linearGradient id="paint0_linear_2477_6" x1="338.178" y1="38.5631" x2="415.278" y2="38.5631" gradientUnits="userSpaceOnUse">
<stop stop-color="#4DB600"/>
<stop offset="1" stop-color="#2D9C00"/>
</linearGradient>
<linearGradient id="paint1_linear_2477_6" x1="386.093" y1="94.081" x2="421.458" y2="94.081" gradientUnits="userSpaceOnUse">
<stop stop-color="#4DB600"/>
<stop offset="1" stop-color="#2D9C00"/>
</linearGradient>
<linearGradient id="paint2_linear_2477_6" x1="368.935" y1="38.5409" x2="92.5682" y2="38.5409" gradientUnits="userSpaceOnUse">
<stop stop-color="#2D9C00"/>
<stop offset="0.4" stop-color="#36A300"/>
<stop offset="1" stop-color="#4DB600"/>
</linearGradient>
<linearGradient id="paint3_linear_2477_6" x1="250.678" y1="130.365" x2="271.768" y2="130.365" gradientUnits="userSpaceOnUse">
<stop stop-color="#FF2A00"/>
<stop offset="1" stop-color="#FF720C"/>
</linearGradient>
<linearGradient id="paint4_linear_2477_6" x1="250.688" y1="157.395" x2="271.768" y2="157.395" gradientUnits="userSpaceOnUse">
<stop stop-color="#FF2A00"/>
<stop offset="1" stop-color="#FF720C"/>
</linearGradient>
<linearGradient id="paint5_linear_2477_6" x1="250.678" y1="184.425" x2="271.768" y2="184.425" gradientUnits="userSpaceOnUse">
<stop stop-color="#FF2A00"/>
<stop offset="1" stop-color="#FF720C"/>
</linearGradient>
</defs>
</svg>
