<?xml version="1.0" encoding="UTF-8"?>
<svg id="Layer_2" data-name="Layer 2" xmlns="http://www.w3.org/2000/svg" xmlns:xlink="http://www.w3.org/1999/xlink" viewBox="0 0 607.09 424.44">
  <defs>
    <style>
      .cls-1 {
        fill: #ead8cf;
      }

      .cls-2 {
        fill: url(#linear-gradient-2);
      }

      .cls-3 {
        fill: #f0f0f0;
      }

      .cls-4 {
        fill: #eef0f7;
      }

      .cls-5 {
        fill: #fff;
      }

      .cls-6 {
        fill: #eea886;
      }

      .cls-7 {
        fill: #efaa88;
      }

      .cls-8 {
        fill: #aebecc;
      }

      .cls-9 {
        fill: #706865;
      }

      .cls-10 {
        fill: #131c24;
      }

      .cls-11 {
        fill: #323657;
      }

      .cls-12 {
        fill: #3e5e78;
      }

      .cls-13 {
        fill: #e55353;
      }

      .cls-14 {
        fill: #4da8f2;
      }

      .cls-15 {
        fill: #314875;
      }

      .cls-16 {
        fill: #cecfd6;
      }

      .cls-17 {
        fill: #da9b5b;
      }

      .cls-18 {
        fill: #293e4f;
      }

      .cls-19 {
        fill: #f5f7ff;
      }

      .cls-20 {
        fill: #eddad3;
      }

      .cls-21 {
        fill: #4f4946;
      }

      .cls-22 {
        fill: #4667a8;
      }

      .cls-23 {
        fill: #b59074;
      }

      .cls-24 {
        fill: #1d3b54;
      }

      .cls-25 {
        fill: #c78d71;
      }

      .cls-26 {
        fill: #de9673;
      }

      .cls-27 {
        fill: #5f8be3;
      }

      .cls-28 {
        fill: #e8734d;
      }

      .cls-29 {
        fill: #db9c7c;
      }

      .cls-30 {
        fill: #eb4747;
      }

      .cls-31 {
        fill: #5073ab;
      }

      .cls-32 {
        fill: #1a2833;
      }

      .cls-33 {
        fill: #d88a51;
      }

      .cls-34 {
        fill: #918783;
      }

      .cls-35 {
        fill: #754836;
      }

      .cls-36 {
        fill: #ffbf55;
      }

      .cls-37 {
        fill: #424773;
      }

      .cls-38 {
        fill: #bd4444;
      }

      .cls-39 {
        fill: #a77860;
      }

      .cls-40 {
        fill: #b5deff;
      }

      .cls-41 {
        fill: #dfe1e8;
      }

      .cls-42 {
        fill: #757575;
      }

      .cls-43 {
        fill: #292c47;
      }

      .cls-44 {
        fill: #59524f;
      }

      .cls-45 {
        fill: #eea987;
      }

      .cls-46 {
        fill: #bfb2ac;
      }

      .cls-47 {
        fill: #f7f7f7;
      }

      .cls-48 {
        fill: #3a3f47;
      }

      .cls-49 {
        fill: url(#linear-gradient-3);
      }

      .cls-50 {
        fill: #949494;
      }

      .cls-51 {
        fill: #3c4145;
      }

      .cls-52 {
        fill: url(#linear-gradient);
      }

      .cls-53 {
        fill: #f3f3f3;
      }

      .cls-54 {
        fill: #263947;
      }

      .cls-55 {
        fill: #e2d2ca;
      }

      .cls-56 {
        fill: #d9c7c1;
      }

      .cls-57 {
        fill: #5e5854;
      }

      .cls-58 {
        fill: #ccbdb7;
      }

      .cls-59 {
        fill: #385369;
      }

      .cls-60 {
        fill: #bdafaa;
      }
    </style>
    <linearGradient id="linear-gradient" x1="416.11" y1="65.61" x2="493.23" y2="65.61" gradientUnits="userSpaceOnUse">
      <stop offset="0" stop-color="#ff9f55"/>
      <stop offset="1" stop-color="#ffd255"/>
    </linearGradient>
    <linearGradient id="linear-gradient-2" x1="464.06" y1="121.13" x2="499.41" y2="121.13" xlink:href="#linear-gradient"/>
    <linearGradient id="linear-gradient-3" x1="170.52" x2="446.92" gradientTransform="translate(617.44 131.22) rotate(-180)" xlink:href="#linear-gradient"/>
  </defs>
  <g id="_Слой_1" data-name="Слой 1">
    <g>
      <rect class="cls-47" width="607.09" height="424.44"/>
      <g>
        <path class="cls-52" d="m486.86,57.27c-.78-3.03-1.98-5.89-3.54-8.52l3.6-5.41-4.99-4.99-4.99-4.99-5.41,3.6c-2.63-1.55-5.49-2.75-8.52-3.53l-1.28-6.37h-14.12l-1.28,6.37c-3.03.78-5.89,1.98-8.52,3.53l-5.41-3.6-4.99,4.99-4.99,4.99,3.6,5.41c-1.55,2.63-2.75,5.49-3.53,8.52l-6.37,1.28v14.12l6.37,1.28c.78,3.03,1.98,5.89,3.53,8.52l-3.6,5.41,4.99,4.99,4.99,4.99,5.41-3.6c2.63,1.55,5.49,2.75,8.52,3.53l1.28,6.37h14.12l1.28-6.37c3.03-.78,5.89-1.98,8.52-3.53l5.41,3.6,4.99-4.99,4.99-4.99-3.6-5.41c1.55-2.63,2.75-5.49,3.54-8.52l6.37-1.28v-14.12l-6.37-1.28Zm-32.19,33.08c-13.66,0-24.74-11.08-24.74-24.74s11.08-24.74,24.74-24.74,24.74,11.08,24.74,24.74-11.08,24.74-24.74,24.74Z"/>
        <path class="cls-2" d="m496.49,117.31c-.36-1.39-.91-2.7-1.62-3.91l1.65-2.48-2.29-2.29-2.29-2.29-2.48,1.65c-1.21-.71-2.52-1.26-3.91-1.62l-.59-2.92h-6.47l-.59,2.92c-1.39.36-2.7.91-3.91,1.62l-2.48-1.65-2.29,2.29-2.29,2.29,1.65,2.48c-.71,1.21-1.26,2.52-1.62,3.91l-2.92.59v6.47l2.92.59c.36,1.39.91,2.7,1.62,3.91l-1.65,2.48,2.29,2.29,2.29,2.29,2.48-1.65c1.21.71,2.52,1.26,3.91,1.62l.59,2.92h6.47l.59-2.92c1.39-.36,2.7-.91,3.91-1.62l2.48,1.65,2.29-2.29,2.29-2.29-1.65-2.48c.71-1.21,1.26-2.52,1.62-3.91l2.92-.59v-6.47l-2.92-.59Zm-14.76,15.16c-6.26,0-11.34-5.08-11.34-11.34s5.08-11.34,11.34-11.34,11.34,5.08,11.34,11.34-5.08,11.34-11.34,11.34Z"/>
        <rect class="cls-8" x="291.36" y="236.74" width="34.73" height="105.49" transform="translate(617.44 578.96) rotate(180)"/>
        <rect class="cls-3" x="158.78" y="75.99" width="299.89" height="211.56" rx="15.25" ry="15.25" transform="translate(617.44 363.54) rotate(180)"/>
        <rect class="cls-5" x="170.52" y="53.48" width="276.4" height="200.92" transform="translate(617.44 307.88) rotate(180)"/>
        <rect class="cls-49" x="170.52" y="53.48" width="276.4" height="24.27" transform="translate(617.44 131.22) rotate(180)"/>
        <path class="cls-42" d="m299.05,269.57c0,5.34,4.33,9.67,9.67,9.67s9.67-4.33,9.67-9.67-4.33-9.67-9.67-9.67-9.67,4.33-9.67,9.67Z"/>
        <rect class="cls-41" x="252.58" y="95" width="97.14" height="7.19" rx="3.5" ry="3.5" transform="translate(602.3 197.2) rotate(180)"/>
        <rect class="cls-41" x="252.58" y="107.97" width="97.14" height="7.19" rx="3.5" ry="3.5" transform="translate(602.3 223.14) rotate(180)"/>
        <path class="cls-41" d="m256.08,120.94h90.14c1.93,0,3.5,1.57,3.5,3.5v.19c0,1.93-1.57,3.5-3.5,3.5h-90.14c-1.93,0-3.5-1.57-3.5-3.5v-.19c0-1.93,1.57-3.5,3.5-3.5Z" transform="translate(602.3 249.08) rotate(180)"/>
        <path class="cls-41" d="m302.59,240.26h-103.61c-8.64,0-15.67-7.03-15.67-15.67v-63.02c0-8.64,7.03-15.67,15.67-15.67h103.61c8.64,0,15.67,7.03,15.67,15.67v63.02c0,8.64-7.03,15.67-15.67,15.67Zm-103.61-92.4c-7.56,0-13.7,6.15-13.7,13.7v63.02c0,7.56,6.15,13.71,13.7,13.71h103.61c7.56,0,13.7-6.15,13.7-13.71v-63.02c0-7.56-6.15-13.7-13.7-13.7h-103.61Z"/>
        <path class="cls-41" d="m207.18,154.5h87.22c3.82,0,6.92,3.1,6.92,6.92v1.32c0,3.82-3.1,6.92-6.92,6.92h-87.22c-3.82,0-6.92-3.1-6.92-6.92v-1.32c0-3.82,3.1-6.92,6.92-6.92Z" transform="translate(501.58 324.15) rotate(-180)"/>
        <rect class="cls-3" x="230.6" y="338.24" width="156.24" height="7.96"/>
        <g>
          <path class="cls-4" d="m415.84,166.61c0,8.28-4.47,15.51-11.14,19.42-1.34.78-2.77,1.43-4.26,1.93-.13.05-.27.09-.41.13-2.11.66-4.35,1.01-6.68,1.01-3.59,0-6.99-.84-10-2.34-7.4-3.68-12.49-11.32-12.49-20.15,0-12.42,10.07-22.49,22.49-22.49s22.49,10.07,22.49,22.49Z"/>
          <path class="cls-51" d="m387.97,164.23s-1.54-9.94,6.69-9.75c8.23.18,8.12,5.1,7.97,9.97-.15,4.88-3.3,4.51.26,11.29,3.56,6.78-3.08,6.78-3.08,6.78l-5.15-7.08-6.69-11.22Z"/>
          <path class="cls-6" d="m393.77,155.43s-5.57.88-5.79,8.8c-.22,7.92,1.5,9.61,6.38,7.96,4.88-1.65,6.42-9.94,6.53-11.22.11-1.28.4-6.49-7.11-5.54Z"/>
          <path class="cls-13" d="m403.56,182.98c.02,2.37-1.25,3.96-3.12,4.97-.13.05-.27.09-.41.13-2.11.66-4.35,1.01-6.68,1.01-3.59,0-6.99-.84-10-2.34-.68-1.35.3-3.27,2.3-6.22,1.37-2.03,2.71-4.09,5.01-5.1,3.39-.54,6.98-.57,9.51.86,2.01,1.14,3.36,3.21,3.39,6.69Z"/>
          <path class="cls-13" d="m386.74,180.42l-2.56,4.04s.18-.63.47-2.4c.06-.34.11-.71.18-1.14.02-.12.05-.25.08-.37h0c1.1-2.53,4.52-4.41,4.64-4.47l-2.8,4.35Z"/>
          <path class="cls-6" d="m404.7,186.03c-1.34.78-2.77,1.43-4.26,1.93-.13.05-.27.09-.41.13-.57-1.47-1.06-2.74-1.17-3.07-.03-.1-.1-.27-.2-.51-.46-1.12-1.5-3.62-1.51-5.57,0-1.26.41-2.29,1.68-2.59.5-.12.95-.12,1.34-.05,1.42.26,2.24,1.53,2.7,2.66,0,.02.01.04.02.06.38.96.5,1.8.5,1.8,0,0,.02.09.06.25.08.31.23.91.43,1.69.23.9.51,2.04.81,3.28Z"/>
          <path class="cls-6" d="m397.49,168.62c-.48.91-.99,6.58-.99,6.58,0,0-6.82,2.58-6.12,1.12.32-.66.41-1.52.42-2.26,0-.58-.04-1.09-.08-1.38-.02-.15-.03-.23-.03-.23,0,0,7.29-4.74,6.8-3.82Z"/>
          <path class="cls-51" d="m391.49,161.12s2.86,4.66,5.46,6.49c2.6,1.83,1.28,3.3,1.28,3.3,0,0,6.79-14.3.33-15.29-6.46-.99-10.42-1.06-10.6,8.62,0,0,2.93-3.19,3.52-3.12Z"/>
          <path class="cls-39" d="m394.6,172.1c-1.05,1.54-3.81,1.96-3.81,1.96h0c0-.58-.04-1.09-.08-1.38,1.78.34,3.89-.58,3.89-.58Z"/>
          <path class="cls-38" d="m384.91,180.51h0s-.15.31-.27,1.54l1-1.52s1.79-2.57,2.41-3.24c.61-.67,1.5-1.26,1.5-1.26,0,0-3.57,1.7-4.65,4.47Z"/>
          <path class="cls-13" d="m398.48,184.35s4.37-1.72,5.67-1.82c0,0-.88-7.03-5.18-6.28-4.3.74-.49,8.1-.49,8.1Z"/>
          <path class="cls-6" d="m390.66,175.44s-3.21,4.94-2.12,5.37c1.09.43,6.97-.58,9.48-5.27,0,0-3.74-1.92-7.35-.1Z"/>
        </g>
        <g>
          <path class="cls-4" d="m424.14,100.99c0,16.09-13.04,29.26-29.26,29.26s-29.26-13.11-29.26-29.26,13.1-29.26,29.26-29.26,29.26,13.1,29.26,29.26Z"/>
          <g>
            <path class="cls-56" d="m413.94,117.14l-2.16,7.74c-3.85,2.73-8.39,4.55-13.31,5.15-.87.11-1.74.17-2.63.2-.32.01-.64.02-.96.02-.95,0-1.88-.05-2.81-.13-1.03-.1-2.05-.25-3.04-.45-4.43-.9-8.5-2.8-11.96-5.46-.41-2.56-.86-5.39-1.25-8.04,2.15-.8,9-3.13,13.32-4.59.06-.02.12-.04.18-.06.09-.03.19-.06.28-.1.25-.09.5-.17.73-.25.24-.08.46-.16.67-.23.89-.3,1.51-.51,1.73-.58h0c.06-.02.09-.03.09-.03h.05s5.81.44,5.81.44l.97.07.3.02s.04.01.13.03c.35.09,1.37.36,2.72.77,0,0,0,0,0,0,3.44,1.05,9.02,3.05,11.13,5.47Z"/>
            <path class="cls-45" d="m396.4,86.46s6.97,1.18,5.79,12.08c-1.18,10.91-7.33,9.95-7.74,9.93-.41-.02-6.19.13-6.49-13.2,0,0-.09-9.86,8.45-8.81Z"/>
            <path class="cls-45" d="m399.46,105.31s-.24,4.49.18,5.47c.42.98-5.59,4.07-9.33.55,0,0,.76-4.91.52-6.64-.23-1.73,8.63.63,8.63.63Z"/>
            <path class="cls-45" d="m402.33,95.46s.77-.81,1.05.02c.27.83-1.24,4.51-1.14,4.67,0,0-.14.32-.33.14-.18-.18.42-4.83.42-4.83Z"/>
            <path class="cls-45" d="m388.04,95.17s-.74-.84-1.04-.02c-.31.82.81,4.49.95,4.72,0,0,.24.38.43.21.19-.17-.33-4.9-.33-4.9Z"/>
            <path class="cls-28" d="m402.78,94.54c-.24,1.49-.47,2.6-.47,2.6l-1.01,1.32s.06-2.93-.09-3.39c-.06-.17-.13-.48-.2-.82-.12-.55-.24-1.17-.32-1.38-.13-.33-5.97-2.04-11.17.36,0,0,.04.45.04.95,0,.58-.07,1.24-.33,1.34-.5.18-.29,3.43-.29,3.43l-.81-.94s-.23-1.69-.46-3.64c0,0,0,0,0-.01-.05-.45-.11-.92-.16-1.38-.12-1.96.08-5.52,2.63-7.61,1.72-.74,4.47-1.36,9.05.04,0,0,1.05.07,1.35.35,2.85,3.14,2.26,8.78,2.26,8.78Z"/>
            <path class="cls-25" d="m391.31,107.02s1.11,1.54,3.7,1.49c2.58-.06,3.71-1.41,3.71-1.41,0,0-1.22,2.56-3.72,2.53-2.49-.03-3.68-2.61-3.68-2.61Z"/>
            <path class="cls-45" d="m389.6,111.42s1.87,3.25,5.41,3.56c2.25.19,4.19-2.65,5.1-4.05,0,0-5.03-2.15-10.51.5Z"/>
            <path class="cls-20" d="m399.46,109.9s-1.42,1.87-4.46,3.86l1.89,2.91,3.22-5.74-.65-1.03Z"/>
            <path class="cls-20" d="m390.45,110.33s1.81,2.27,4.56,3.43l-2.07,3-3.62-5.24,1.13-1.18Z"/>
            <path class="cls-31" d="m395.01,113.76l1.62,2.46s-1.7.96-3.28-.06l1.66-2.4Z"/>
            <path class="cls-11" d="m415.81,116.68c-.28,1-.7,2.46-1.79,6.45-.33.29-.68.57-1.03.85-.39.31-.8.61-1.2.9-3.85,2.73-8.39,4.55-13.31,5.15.43-10.13,1.64-19.11,1.64-19.11.95.25,1.85.5,2.7.74,0,0,0,0,0,0,7.43,2.13,11.19,4,12.48,4.71,0,0,.02.01.03.02.33.19.49.29.49.29Z"/>
            <path class="cls-11" d="m389.03,129.67c-4.43-.9-8.5-2.8-11.96-5.46-1.04-.8-2.03-1.67-2.95-2.6-.18-.18-.36-.37-.53-.55-.51-2.18-.85-3.6-.88-3.69h0s3.62-2.38,16.43-5.8h0c0,.3,0,8.52-.11,18.1Z"/>
            <path class="cls-31" d="m395.93,116.49c-.12,2.67-.13,7.84-.09,13.75-.32.01-.64.02-.96.02-.95,0-1.88-.05-2.81-.13.56-7.28,1.51-11.84,1.94-13.64.14-.59.23-.88.23-.88l1.72.28c-.01.19-.02.39-.03.61Z"/>
            <path class="cls-11" d="m417.29,119.82c-1,1.19-2.09,2.3-3.27,3.32-.33.29-.68.57-1.03.85l2.82-7.3c.69.58,1.24,2.57,1.48,3.14Z"/>
            <path class="cls-11" d="m374.11,121.61c-.18-.18-.36-.37-.53-.55-.66-.69-1.28-1.42-1.86-2.17.33-.79.66-1.32.98-1.52h0s1.41,4.24,1.41,4.24Z"/>
          </g>
        </g>
        <rect class="cls-19" x="182.06" y="61.03" width="39.42" height="9.17" rx="3.3" ry="3.3"/>
        <g>
          <circle class="cls-4" cx="393.35" cy="220.2" r="22.49" transform="translate(-2.86 5.19) rotate(-.75)"/>
          <path class="cls-50" d="m393.35,229.17c-.62,0-1.13-.51-1.13-1.13v-15.67c0-.63.51-1.13,1.13-1.13s1.13.51,1.13,1.13v15.67c0,.62-.51,1.13-1.13,1.13Z"/>
          <path class="cls-50" d="m401.18,221.34h-15.67c-.63,0-1.13-.51-1.13-1.13s.51-1.13,1.13-1.13h15.67c.63,0,1.13.51,1.13,1.13s-.51,1.13-1.13,1.13Z"/>
        </g>
        <g>
          <path class="cls-36" d="m333.04,146.88h12.27c2.44,0,4.41,1.98,4.41,4.41v12.27c0,2.44-1.98,4.41-4.41,4.41h-12.27c-2.44,0-4.41-1.98-4.41-4.41v-12.27c0-2.44,1.98-4.41,4.41-4.41Z"/>
          <path class="cls-53" d="m338.51,162.07l-5.33-4.65c-.44-.38-.48-1.04-.1-1.48.38-.44,1.04-.48,1.48-.1l3.77,3.29,5.38-6c.39-.43,1.05-.47,1.48-.08.43.39.47,1.05.08,1.48l-6.76,7.54Z"/>
        </g>
        <g>
          <path class="cls-36" d="m333.04,173.91h12.27c2.44,0,4.41,1.98,4.41,4.41v12.27c0,2.44-1.98,4.41-4.41,4.41h-12.26c-2.44,0-4.41-1.98-4.41-4.41v-12.27c0-2.44,1.98-4.41,4.41-4.41Z"/>
          <path class="cls-53" d="m338.51,189.1l-5.33-4.65c-.44-.38-.48-1.04-.1-1.48.38-.44,1.04-.48,1.48-.1l3.77,3.29,5.38-6c.39-.43,1.05-.47,1.48-.08.43.39.47,1.05.08,1.48l-6.76,7.54Z"/>
        </g>
        <path class="cls-36" d="m333.04,200.94h12.27c2.44,0,4.41,1.98,4.41,4.41v12.27c0,2.44-1.98,4.41-4.41,4.41h-12.27c-2.44,0-4.41-1.98-4.41-4.41v-12.26c0-2.44,1.98-4.41,4.41-4.41Z"/>
        <g>
          <path class="cls-10" d="m243.76,352.71s-1.07,2.41-1.98,3.37c-.91.96-4.37,2.66-4.39,5.5-.02,3.08,5.84,2.22,8.13,2.11s2.46-1.76,3.43-3.5c.96-1.74,1.94-1.45,2.12-2.85.18-1.41-.74-4.55-.74-4.55l-6.57-.08Z"/>
          <path class="cls-21" d="m243.66,351.82l-.17,1.46s3.6,1.21,7.01.13l-.19-2-6.65.41Z"/>
          <path class="cls-10" d="m286,352.71s1.07,2.41,1.98,3.37c.91.96,4.37,2.66,4.39,5.5.02,3.08-5.84,2.22-8.13,2.11-2.29-.11-2.46-1.76-3.43-3.5-.96-1.74-1.94-1.45-2.12-2.85-.18-1.41.74-4.55.74-4.55l6.57-.08Z"/>
          <path class="cls-21" d="m286.1,351.82l.17,1.46s-3.6,1.21-7.01.13l.19-2,6.65.41Z"/>
          <path class="cls-18" d="m284.2,312.97c0,3.79,3.54,38.44,3.54,38.44-.41,1.26-9.1,1.11-10.46.48-1.36-.63-5.3-34.97-5.55-38.79-.25-3.83-5.91-37.1-7.1-36.98-1.19.13-6.83,35.79-7.78,38.7-.95,2.91-5.26,37.4-5.26,37.4-2.98,1.64-10.08-.41-10.08-.41,0,0,1.49-35.42,1.66-36.48.25-1.58-.01-5.85.68-15.31.62-8.47,2.85-26.9,4.26-36.88.05-.36.1-.7.15-1.02.28-1.94.49-3.37.58-4.05.04-.3.07-.45.07-.45.38-.16.78-.31,1.2-.45,9.94-3.33,28.85-3.12,28.85-3.12,0,0,.26,3.4.28,3.56.03.2.07.51.12.92.11.88.28,2.19.46,3.71,0,.01,0,.02,0,.03,0,.05.01.09.02.14.67,5.42,1.61,13.34,1.52,14.17-.14,1.27,2.83,32.62,2.83,36.41Z"/>
          <path class="cls-56" d="m285.62,200.74l-4.88,17.51c-.17.57-.37,1.27-.58,2.08v.03s-.01.01-.01.02c-.81,3.12-1.82,7.88-2.12,13.17-.2,3.6.46,18.09.46,18.09,0,0-7.39,2.76-18.44,2.06,0,0-11.89-.28-10.92-7.57,2.56-19.29.06-27.25-.28-29.18,0,0-1.4-8.89-2.56-16.74,3.35-1.25,17.43-6.53,17.43-6.53l7.4.55s11.25,2.77,14.5,6.51Z"/>
          <path class="cls-45" d="m267.43,168.92s7.23,1.22,6,12.53c-1.23,11.31-7.6,10.31-8.03,10.3-.43-.02-6.41.14-6.73-13.7,0,0-.09-10.23,8.76-9.14Z"/>
          <path class="cls-45" d="m270.6,188.47s-.25,4.66.19,5.67c.44,1.01-5.8,4.22-9.68.57,0,0,.78-5.09.54-6.89-.24-1.8,8.95.65,8.95.65Z"/>
          <path class="cls-45" d="m273.58,178.25s.8-.84,1.08.02c.28.86-1.28,4.67-1.18,4.85,0,0-.15.33-.34.15-.19-.19.44-5.01.44-5.01Z"/>
          <path class="cls-45" d="m258.75,177.95s-.77-.87-1.08-.02c-.32.85.84,4.66.98,4.89,0,0,.25.39.44.21.2-.18-.34-5.08-.34-5.08Z"/>
          <path class="cls-28" d="m274.04,177.29c-.25,1.55-.48,2.7-.48,2.7l-1.05,1.37s.06-3.04-.1-3.51c-.06-.18-.13-.5-.21-.85-.12-.57-.24-1.22-.33-1.43-.14-.34-6.19-2.11-11.59.37,0,0,.05.47.04.99,0,.61-.07,1.29-.35,1.39-.52.19-.3,3.55-.3,3.55l-.84-.97s-.24-1.76-.48-3.78c0,0,0,0,0-.01-.05-.47-.11-.96-.16-1.44-.12-2.03.08-5.72,2.73-7.89,1.79-.76,6.67-1.53,9.39.04,0,0,1.46.91,1.76,1.2,2.96,3.26,1.97,8.27,1.97,8.27Z"/>
          <path class="cls-25" d="m262.14,190.24s1.15,1.6,3.83,1.54c2.68-.06,3.84-1.46,3.84-1.46,0,0-1.27,2.65-3.86,2.62-2.59-.03-3.82-2.71-3.82-2.71Z"/>
          <path class="cls-45" d="m260.37,194.81s1.94,3.37,5.61,3.69c2.33.2,4.33-2.76,5.28-4.21,0,0-5.2-2.23-10.89.52Z"/>
          <path class="cls-20" d="m270.6,193.22s-1.48,1.94-4.62,4.01l1.96,3.02,3.34-5.98-.67-1.04Z"/>
          <path class="cls-20" d="m261.25,193.68s1.88,2.36,4.73,3.56l-2.15,3.11-3.73-5.3,1.15-1.36Z"/>
          <path class="cls-31" d="m265.98,197.23l1.68,2.55s-1.76,1-3.4-.06l1.72-2.49Z"/>
          <path class="cls-32" d="m248.72,255.01s9.07,3.34,29.57.2l-.27-3.71s-11.89,3.51-28.94.5l-.36,3.01Z"/>
          <path class="cls-59" d="m271.27,194.27s-2.12,15.86-1.83,29.52c.29,13.66,4.73,39.28,4.73,39.28,0,0,7.91-.77,9.87-3.25,0,0-4.54-24.65-4.41-28.31.13-3.65,5.82-31.13,5.82-31.13,0,0-2.22-2.96-14.17-6.11Z"/>
          <path class="cls-59" d="m259.93,195.1s-.02,15.03-.31,28.69c-.29,13.66-2.09,39.09-2.09,39.09,0,0-9.28-1.32-11.24-3.79,0,0,3.27-23.92,3.14-27.58-.13-3.65-4.19-30.86-4.19-30.86,0,0,1.41-2.01,14.69-5.55Z"/>
          <rect class="cls-12" x="261.09" y="252.64" width="5.57" height="4.14"/>
          <path class="cls-31" d="m265.19,199.14s-2.49,8.49-2.71,25.36c-.22,16.87.31,21.7.31,21.7l1.94,3.84,2.59-4.01s-.83-38.81-.35-46.6l-1.78-.29Z"/>
          <path class="cls-6" d="m275.58,222.87s3.68-1.85,4.19-2.18c.51-.33,6.66-1.24,7.44-1.21.78.03.81.64.59.86-.22.22-6.37,1.23-6.47,1.38-.11.15.52.09.52.09,0,0,6.63-.1,7.09.34.46.44-.07.86-.34.97,0,0,.6.69-.09.98-.7.29-1.64.47-1.64.47,0,0,.88.45.3.85-.58.4-7.6,2.58-7.6,2.58,0,0-2.61-4.99-3.99-5.13Z"/>
          <path class="cls-59" d="m288.23,235.57c-4.79,1.14-15.85-.71-20.06-1.64-.89-.2-1.9-.4-2.94-.61h0c-1.72-.34-3.52-.67-4.98-.93h0c-1.8-.32-3.08-.54-3.08-.54,0,0,23.22-5.22,24.07-5.22s-2.14-13.57-2.14-13.57c0,0-2.99-11.37-1.44-15.83,0,0,5.89,1.79,7.8,3.15,1.06.76,1.85,5.69,2.57,9.04.92,4.25,3.05,13.92,3.29,15.97.22,1.86,1.71,9.04-3.08,10.18Z"/>
          <path class="cls-59" d="m252.71,197.29s-7.13,2.44-7.47,3.36c-1.44,3.92-2.11,8.2-2.58,9.92-.57,2.1-1.86,8.37-2.19,10.41-.42,2.61-1.24,11.85-.88,13.27.45,1.8,4.69,1.67,6.97,1.31,2.29-.36,34.05-8.09,34.05-8.09,0,0-1.81-5.91-1.9-6.43,0,0-24.49,2.8-27.61,3.46-1.78.38-2.17.53-2.17.53,0,0,5.4-22.16,3.78-27.75Z"/>
          <path class="cls-6" d="m256.93,223.74s-3.2-2.6-3.62-3.03c-.43-.43-6.24-2.64-7-2.79-.76-.14-.89.47-.83.77.1.53,6.03,2.52,6.1,2.68.07.17-.53-.02-.53-.02,0,0-6.45-1.53-7-1.19-.55.33-.12.86.12,1.02,0,0-.74.55-.12.98.62.43,1.5.81,1.5.81,0,0-.95.25-.48.77.48.52,3.87,1.29,3.87,1.29,0,0,6.62-1.45,8-1.29Z"/>
          <path class="cls-54" d="m276,228.59l-10.77,4.73h0c-1.72-.34-3.52-.67-4.98-.93l15.76-3.8Z"/>
          <path class="cls-28" d="m270.81,168.84s1.79-.9,2.76.28c.97,1.18,1.07,7.62-.11,10.09-1.18,2.47.19-8.77-2.65-10.37Z"/>
        </g>
        <rect class="cls-9" x="199.36" y="232.67" width="3.21" height="145.75"/>
        <path class="cls-60" d="m120.81,171.78h86.26c5.31,0,9.62,4.31,9.62,9.62v163.33c0,5.31-4.31,9.62-9.62,9.62h-86.26c-5.31,0-9.62-4.31-9.62-9.62v-163.33c0-5.31,4.31-9.62,9.62-9.62Z"/>
        <rect class="cls-5" x="114.08" y="174.72" width="99.71" height="172.5" rx="9.51" ry="9.51"/>
        <rect class="cls-9" x="148.22" y="170.39" width="31.44" height="7.1"/>
        <path class="cls-40" d="m194.6,340.33h-63.83c-5.17,0-9.38-4.21-9.38-9.38v-36.33c0-5.17,4.21-9.38,9.38-9.38h63.83c5.17,0,9.38,4.21,9.38,9.38v36.33c0,5.17-4.21,9.38-9.38,9.38Zm-63.83-53.88c-4.5,0-8.17,3.67-8.17,8.17v36.33c0,4.5,3.66,8.17,8.17,8.17h63.83c4.5,0,8.17-3.66,8.17-8.17v-36.33c0-4.5-3.66-8.17-8.17-8.17h-63.83Z"/>
        <path class="cls-11" d="m137.34,252.44s0,0-.01,0c.06.03.07.03.01,0Z"/>
        <path class="cls-40" d="m192.77,248.52c-5.74,0-10.4-4.67-10.4-10.4s4.67-10.4,10.4-10.4,10.4,4.67,10.4,10.4-4.67,10.4-10.4,10.4Zm0-19.59c-5.07,0-9.19,4.12-9.19,9.19s4.12,9.19,9.19,9.19,9.19-4.12,9.19-9.19-4.12-9.19-9.19-9.19Z"/>
        <path class="cls-40" d="m192.77,272.48c-5.74,0-10.4-4.67-10.4-10.4s4.67-10.4,10.4-10.4,10.4,4.67,10.4,10.4-4.67,10.4-10.4,10.4Zm0-19.59c-5.07,0-9.19,4.12-9.19,9.19s4.12,9.19,9.19,9.19,9.19-4.12,9.19-9.19-4.12-9.19-9.19-9.19Z"/>
        <path class="cls-40" d="m145.89,238.58c-.86,0-1.73-.04-2.58-.12-.95-.09-1.89-.23-2.8-.42-3.97-.81-7.78-2.54-11.01-5.03-.96-.73-1.87-1.54-2.72-2.39-.17-.18-.34-.35-.49-.51-.6-.63-1.17-1.3-1.71-2-3.68-4.75-5.62-10.45-5.62-16.47,0-14.86,12.09-26.94,26.94-26.94v1.21c-14.19,0-25.74,11.54-25.74,25.74,0,5.75,1.86,11.2,5.37,15.73.51.67,1.06,1.31,1.63,1.91.14.16.3.32.47.49.81.82,1.68,1.59,2.6,2.29,3.08,2.37,6.72,4.03,10.52,4.8.87.18,1.77.31,2.68.4.82.08,1.65.12,2.47.12.3,0,.58,0,.84-.01.78-.03,1.56-.08,2.32-.18,4.2-.51,8.25-2.08,11.7-4.53.36-.26.72-.53,1.06-.79.29-.23.6-.48.9-.75,1.03-.89,2-1.87,2.88-2.91,3.89-4.62,6.03-10.5,6.03-16.56,0-1.26-.09-2.54-.28-3.78l1.2-.18c.19,1.3.29,2.63.29,3.95,0,6.34-2.24,12.49-6.31,17.33-.92,1.09-1.93,2.12-3.01,3.05-.32.28-.64.54-.95.78-.35.28-.73.56-1.11.83-3.62,2.57-7.86,4.21-12.26,4.75-.79.1-1.61.16-2.42.19-.28,0-.57.01-.88.01Z"/>
        <path class="cls-40" d="m164.68,225.9c-.09-.12-.18-.22-.26-.29-.03-.04-.07-.07-.14-.11,0,0-.02,0-.02-.02h0c-5.02-2.78-14.09-5.04-14.09-5.04-.26-.6-.24-2.7-.2-3.95.94-1.09,1.79-2.8,2.27-5.46.15.11.27-.15.27-.15-.08-.15,1.27-3.46,1.03-4.21-.14-.42-.42-.37-.64-.25.03-.19.07-.39.1-.6,0,0,.54-5.07-2.03-7.9-.26-.26-1.21-.32-1.21-.32-4.12-1.26-6.6-.7-8.15-.04-2.3,1.88-2.47,5.08-2.37,6.85.05.42.09.84.14,1.25,0,0,0,.01,0,.01.02.16.04.32.06.48-.21-.13-.5-.19-.65.22-.27.74.73,4.04.85,4.24,0,0,.22.34.39.19h0c.47,2.9,1.33,4.69,2.23,5.79-.09,1.63-.38,3.67-.46,4.21,0,0,0,0,0,0-2.11.66-12.67,3.47-15.86,5.57-.29.18-.59.66-.88,1.37.52.68,1.08,1.33,1.67,1.96.16.17.32.33.48.5.83.84,1.72,1.62,2.66,2.34,3.11,2.39,6.78,4.1,10.77,4.91.9.18,1.81.32,2.74.41.83.08,1.67.12,2.53.12.29,0,.58,0,.86-.01.8-.03,1.59-.09,2.37-.18,4.43-.54,8.51-2.18,11.98-4.64.37-.26.73-.53,1.08-.81.31-.25.62-.5.92-.76,1.06-.92,2.04-1.91,2.94-2.98-.5-1.21-.96-2.15-1.37-2.68Z"/>
        <g>
          <rect class="cls-55" x="447.24" y="284.66" width="31.21" height="1.85" transform="translate(925.69 571.17) rotate(180)"/>
          <rect class="cls-9" x="471.53" y="291.33" width="2.73" height="84.25"/>
          <rect class="cls-58" x="430.43" y="284.13" width="21.69" height="2.65" transform="translate(882.55 570.91) rotate(180)"/>
          <rect class="cls-22" x="437.17" y="261.56" width="8.21" height="24.95" transform="translate(882.55 548.07) rotate(180)"/>
          <rect class="cls-23" x="369.45" y="286.54" width="120.2" height="4.79" transform="translate(859.09 577.88) rotate(180)"/>
          <path class="cls-11" d="m512.71,257.55s1.31,18.43-2.29,20.64c-2.26,1.38-11.25,6.04-10.99,6.92.27.87,5.08,7.78,5.08,7.78,0,0,17.28-11.38,17.84-14.97.54-3.5-.85-26.99-3.23-28.08-1.78-.81-2.72-.14-4.96,1.53-3.15,2.33-1.46,6.18-1.46,6.18Z"/>
          <path class="cls-1" d="m481.22,262.81l-1.52-.56s1.9-4.46,2.73-4.35c.96.12,2.15.44,2.15.44l-3.35,4.47Z"/>
          <path class="cls-17" d="m480.87,263.58c.19-.14,3.24-5.98,3.24-5.98l6.5.88-3.51,6.91-6.23-1.82Z"/>
          <path class="cls-37" d="m491.45,364.08s.54,3.73.61,4.29c.07.56,5.98-.33,5.98-.33l.48-4.44s-6.32-.05-7.06.48Z"/>
          <path class="cls-43" d="m491.99,367.9s-1.87,2.25-3.68,3.23c-1.81.98-4.66,1.37-5.73,2.38-.77.73-2.82,3.88,4.71,3.82,7.52-.06,11.15.45,11.96-.76.81-1.21-1.17-8.92-1.17-8.92,0,0-1.78.64-6.08.25Z"/>
          <path class="cls-37" d="m453.58,364.12s.54,3.73.6,4.29c.07.56,5.98-.33,5.98-.33l.48-4.44s-6.32-.05-7.06.48Z"/>
          <path class="cls-43" d="m454.12,367.94s-1.87,2.25-3.68,3.23c-1.81.98-8.48,1.79-9.55,2.8-.77.73-2.06,3.68,8.53,3.4,7.52-.2,11.15.45,11.96-.76.81-1.21-1.17-8.92-1.17-8.92,0,0-1.68.69-6.08.25Z"/>
          <path class="cls-43" d="m510.52,299.65s-21.49,3.64-26.34,4.4c-4.85.76-31.17,7.31-34.46,9.31-2.62,1.59,1.37,39.74,2.31,54.29h10.37l.75-43.66c12.44.31,21.32-2.91,30.37-1.53,9.06,1.38,16.61,3.33,22.37-4.39,0,0,.21-16.73-5.36-18.41Z"/>
          <path class="cls-43" d="m489.33,367.68l10.1-.62.98-43.07c5.35.13,7.19-.21,11.52-.73l8.16-18.96c-7.15,1.43-30.05,7.21-33.1,9.06-2.62,1.59,1.4,39.77,2.34,54.33Z"/>
          <path class="cls-6" d="m500.62,219.09s-7.88-2.18-10.88,3.94c-3.01,6.12-1.64,17.71,2.33,18.8,3.97,1.09,9.68-.16,11.33-3.97,1.65-3.81,2.96-9.21,2.57-12.72-.39-3.5-3.25-5.21-5.34-6.05Z"/>
          <path class="cls-6" d="m494.12,240.61s.09,4.65-.43,5.64c-.51.99,10.97.74,10.97.74,0,0-1.81-5.58-.78-10.34,1.02-4.71-9.76,3.96-9.76,3.96Z"/>
          <path class="cls-48" d="m504.5,234.89s-.61,1.25-3.59,1.05c-2.97-.2-6.89-3.79-8.15-4.11-1.26-.32-1.34-1.04-1.34-1.04l-.67,1.19-1.29.2s.88-3.59-1.04-4.86c-1.91-1.27.86-11.46,10.55-9,0,0,7.4,1.35,7.5,5.49.1,4.13-.54,8.9-1.98,11.09Z"/>
          <path class="cls-55" d="m493.09,246.14s.03-1.89.89-2.08c.86-.18,9.03-1.3,10.08-.89l.45,2.5s-2.03,1.25-11.42.47Z"/>
          <path class="cls-6" d="m490.73,229.95c.22-1.55,1.99-3.34,3-.92s-.68,5.94-1.82,5.75c-1.13-.19-1.48-2.73-1.18-4.83Z"/>
          <path class="cls-11" d="m458.89,268.52s0,0,.01,0c-.06.03-.07.03-.01,0Z"/>
          <path class="cls-48" d="m502.92,220.2s9.61-.45,1.68,14.54l-1.68-14.54Z"/>
          <polygon class="cls-34" points="524.32 372.79 523.61 374.8 493.42 365.45 494.86 361.38 524.32 372.79"/>
          <rect class="cls-34" x="492.38" y="331.19" width="3.43" height="32.82" transform="translate(988.19 695.21) rotate(180)"/>
          <rect class="cls-57" x="483.98" y="329.45" width="20.24" height="1.93" transform="translate(988.19 660.83) rotate(180)"/>
          <polygon class="cls-34" points="463.6 372.79 464.32 374.8 494.51 365.45 493.18 361.12 463.6 372.79"/>
          <polygon class="cls-34" points="484.88 374.59 484.88 376.92 494.51 365.45 493.18 361.12 484.88 374.59"/>
          <path class="cls-46" d="m460.78,375.59c0,1.56,1.26,2.82,2.82,2.82s2.82-1.26,2.82-2.82-1.26-2.82-2.82-2.82-2.82,1.26-2.82,2.82Z"/>
          <path class="cls-46" d="m484.64,375.59c0,1.56,1.26,2.82,2.82,2.82s2.82-1.26,2.82-2.82-1.26-2.82-2.82-2.82-2.82,1.26-2.82,2.82Z"/>
          <path class="cls-46" d="m521.5,375.59c0,1.56,1.26,2.82,2.82,2.82s2.82-1.26,2.82-2.82-1.26-2.82-2.82-2.82-2.82,1.26-2.82,2.82Z"/>
          <path class="cls-55" d="m473.61,322.12h40.71c2,0,3.62,1.62,3.62,3.62v.09c0,2-1.62,3.62-3.62,3.62h-40.72c-2,0-3.62-1.62-3.62-3.62v-.09c0-2,1.62-3.62,3.62-3.62Z" transform="translate(987.93 651.57) rotate(-180)"/>
          <rect class="cls-9" x="384.83" y="291.33" width="2.74" height="84.25" transform="translate(772.39 666.92) rotate(180)"/>
          <path class="cls-27" d="m409.42,223.54h63.72c1.99,0,3.61,1.62,3.61,3.61v42.83c0,1.99-1.62,3.61-3.61,3.61h-63.72c-1.99,0-3.61-1.62-3.61-3.61v-42.83c0-1.99,1.62-3.61,3.61-3.61Z" transform="translate(882.55 497.12) rotate(180)"/>
          <rect class="cls-19" x="408.59" y="226.24" width="65.38" height="39.49" transform="translate(882.55 491.98) rotate(180)"/>
          <rect class="cls-16" x="408.59" y="226.24" width="65.38" height="3.14" transform="translate(882.55 455.63) rotate(180)"/>
          <rect class="cls-16" x="411" y="231.75" width="7.88" height="31.56" rx="2.23" ry="2.23" transform="translate(829.89 495.06) rotate(180)"/>
          <path class="cls-16" d="m458.94,231.75h11.97c.67,0,1.21.54,1.21,1.21v.51c0,.67-.54,1.21-1.21,1.21h-11.97c-.67,0-1.21-.54-1.21-1.21v-.51c0-.67.54-1.21,1.21-1.21Z" transform="translate(929.85 466.42) rotate(180)"/>
          <path class="cls-16" d="m460.23,236.63h9.4c1.37,0,2.49,1.12,2.49,2.49v22.5c0,1.37-1.12,2.49-2.49,2.49h-9.4c-1.37,0-2.49-1.12-2.49-2.49v-22.5c0-1.37,1.12-2.49,2.49-2.49Z" transform="translate(929.85 500.75) rotate(180)"/>
          <path class="cls-44" d="m438.99,269.53c0,1.26,1.02,2.29,2.29,2.29s2.29-1.02,2.29-2.29-1.02-2.29-2.29-2.29-2.29,1.02-2.29,2.29Z"/>
          <path class="cls-15" d="m426.59,286.61v-.89s1.25-5.54,10.11-5.54,8.68,6.43,8.68,6.43h-18.78Z"/>
          <path class="cls-6" d="m445.48,281s-1.92-.15-2.63-.58c-.7-.42-4.92-3.26-5.91-2.81-.99.45-7.58,2.47-7.35,3.44.23.96.84.87,1.3.7.46-.17,5.25-1.18,5.67-1.01,0,0-4.7,1.72-4.72,2.97-.02,1.25.98,1.56,1.43,2.03.45.47.98,1.65,2.19,1.74,1.21.09,7.12-1.97,8.34-2.06,1.22-.09,3.47.08,3.62-.12.15-.2-1.95-4.3-1.95-4.3Z"/>
          <path class="cls-11" d="m480.5,248.76c6.13-1.08,12.59-2.62,12.59-2.62l11.42-.47s10.48,2.31,14.61,4.17c.39.18.39,9.35,1.47,11.76l-3.42,7.22s-1.98,14.31-2.39,20.67c-.19,2.92.53,28.23.53,28.23,0,0-1.03.51-8.82,1.37-7.8.86-27.28-.31-27.4-1.23-.12-.92,3.77-34.29,3.95-36.02.26-2.65-.77-14.91-.77-14.91-1.47,1.97-5.21,10.88-9.12,15.12-2.3,2.49-13.67,4.02-15.81,4.09-4.66.16-13.17,1.08-13.42.63-.2-.27-.74-7.55-.21-7.73.47-.16,16.27-1.07,20.32-3.21,1.48-.79,5.91-10.44,5.91-10.44,0,0,7.17-15.11,10.56-16.63Z"/>
          <path class="cls-55" d="m503.02,271.19h19.18c3.83,0,6.94,3.11,6.94,6.94v31.91c0,3.83-3.11,6.94-6.94,6.94h-19.18c-3.83,0-6.94-3.11-6.94-6.94v-31.91c0-3.83,3.11-6.95,6.95-6.95Z" transform="translate(1025.21 588.18) rotate(180)"/>
          <path class="cls-55" d="m501.93,327.62c4.87,0,8.83-1.64,11.75-4.87,6.61-7.3,5.42-20.13,5.37-20.67-.1-1.01-1-1.75-2.01-1.65-1.01.1-1.75,1-1.65,2.01.01.15,1.07,11.77-4.44,17.84-2.23,2.46-5.18,3.65-9.02,3.65-1.02,0-1.84.82-1.84,1.84s.82,1.84,1.84,1.84Z"/>
          <g>
            <path class="cls-4" d="m442.23,242.39c0,5.08-4.11,9.23-9.23,9.23s-9.24-4.13-9.24-9.23,4.13-9.23,9.24-9.23,9.23,4.13,9.23,9.23Z"/>
            <g>
              <path class="cls-56" d="m439.01,247.48l-.68,2.44c-1.21.86-2.65,1.44-4.2,1.63-.27.03-.55.06-.83.06-.1,0-.2,0-.3,0-.3,0-.59-.01-.89-.04-.33-.03-.65-.08-.96-.14-1.4-.28-2.68-.88-3.77-1.72-.13-.81-.27-1.7-.39-2.54.68-.25,2.84-.99,4.2-1.45.02,0,.04-.01.06-.02.03-.01.06-.02.09-.03.08-.03.16-.05.23-.08.07-.03.15-.05.21-.07.28-.09.48-.16.55-.18h0s.03,0,.03,0h.02s1.83.14,1.83.14l.31.02h.1s.01.01.04.02c.11.03.43.11.86.24,0,0,0,0,0,0,1.09.33,2.85.96,3.51,1.73Z"/>
              <path class="cls-45" d="m433.47,237.8s2.2.37,1.83,3.81c-.37,3.44-2.31,3.14-2.44,3.13-.13,0-1.95.04-2.05-4.17,0,0-.03-3.11,2.67-2.78Z"/>
              <path class="cls-45" d="m434.43,243.75s-.08,1.42.06,1.72c.13.31-1.76,1.28-2.95.17,0,0,.24-1.55.16-2.09-.07-.55,2.72.2,2.72.2Z"/>
              <path class="cls-45" d="m435.34,240.64s.24-.25.33,0c.09.26-.39,1.42-.36,1.47,0,0-.04.1-.1.04-.06-.06.13-1.53.13-1.53Z"/>
              <path class="cls-45" d="m430.83,240.55s-.23-.27-.33,0c-.1.26.26,1.42.3,1.49,0,0,.08.12.13.07.06-.05-.1-1.55-.1-1.55Z"/>
              <path class="cls-28" d="m435.48,240.35c-.08.47-.15.82-.15.82l-.32.42s.02-.92-.03-1.07c-.02-.06-.04-.15-.06-.26-.04-.17-.08-.37-.1-.44-.04-.1-1.88-.64-3.53.11,0,0,.01.14.01.3,0,.18-.02.39-.11.42-.16.06-.09,1.08-.09,1.08l-.26-.29s-.07-.53-.15-1.15h0c-.02-.15-.03-.29-.05-.44-.04-.62.02-1.74.83-2.4.54-.23,1.41-.43,2.86.01,0,0,.33.02.42.11.9.99.71,2.77.71,2.77Z"/>
              <path class="cls-25" d="m431.86,244.29s.35.49,1.17.47c.81-.02,1.17-.44,1.17-.44,0,0-.39.81-1.17.8-.79,0-1.16-.82-1.16-.82Z"/>
              <path class="cls-45" d="m431.32,245.68s.59,1.03,1.71,1.12c.71.06,1.32-.84,1.61-1.28,0,0-1.59-.68-3.32.16Z"/>
              <path class="cls-20" d="m434.44,245.2s-.45.59-1.41,1.22l.6.92,1.02-1.81-.2-.32Z"/>
              <path class="cls-20" d="m431.59,245.33s.57.72,1.44,1.08l-.65.94-1.14-1.65.36-.37Z"/>
              <path class="cls-31" d="m433.03,246.42l.51.78s-.54.3-1.03-.02l.52-.76Z"/>
              <path class="cls-11" d="m439.6,247.34s0,.02-.01.05c-.06.2-.27.97-.55,1.99-.11.09-.21.18-.32.27-.12.1-.25.19-.38.29-1.21.86-2.65,1.44-4.2,1.63.14-3.2.52-6.03.52-6.03.3.08.58.16.85.23,0,0,0,0,0,0,2.34.67,3.53,1.26,3.94,1.49,0,0,0,0,0,0,.11.06.16.09.16.09Z"/>
              <path class="cls-11" d="m431.14,251.44c-1.4-.28-2.68-.88-3.77-1.72-.33-.25-.64-.53-.93-.82-.06-.06-.11-.12-.17-.17-.16-.69-.27-1.13-.28-1.16h0s1.14-.75,5.18-1.83h0c0,.09,0,2.69-.03,5.71Z"/>
              <path class="cls-31" d="m433.32,247.28c-.04.84-.04,2.48-.03,4.34-.1,0-.2,0-.3,0-.3,0-.59-.01-.89-.04.18-2.3.48-3.74.61-4.3.04-.19.07-.28.07-.28l.54.09c0,.06,0,.12-.01.19Z"/>
              <path class="cls-11" d="m440.06,248.33c-.32.38-.66.73-1.03,1.05-.11.09-.21.18-.32.27,0-.01.53-1.55.89-2.3.24.16.35.72.47.99Z"/>
              <path class="cls-11" d="m426.44,248.89c-.06-.06-.11-.12-.17-.17-.21-.22-.4-.45-.59-.69.1-.25.21-.42.31-.48h0s.44,1.34.44,1.34Z"/>
            </g>
          </g>
        </g>
        <g>
          <path class="cls-24" d="m364.39,359.76s-1.2-1.97-2.85-2.73c-1.65-.77-5.03,1.91-5.33,3.4l-3.92,5.72.74.51,2.09-3.05c-1.42,3.43-3.46,7.53-2.03,9.6,1.92,2.77,6.27,5.57,7.42,5.09,1.15-.48.92-8.54.92-8.54-1.24-7.11,2.96-9.98,2.96-9.98Z"/>
          <path class="cls-26" d="m364.39,359.76s-1.43,2.75-2.16,4.88c-.73,2.13-.87,8.04-1.33,8.45-.46.41-4.11-1.43-4.6-3.64-.49-2.21.99-6.62,2.4-8.94s2.84-3.48,2.84-3.48c0,0,2.49.48,2.85,2.73Z"/>
          <path class="cls-26" d="m378.47,308.01s-2.23,11.86-2.23,14.69-.77,7.47-2.58,10.91c-1.8,3.44-9.72,26.91-10.41,29.65-.69,2.73-1.28,5.32-1.28,5.32,0,0-3.95-1.8-3.95-4.38s3.44-23.88,4.04-28.09c.6-4.21,5.58-25.77,5.58-25.77l10.83-2.32Z"/>
          <path class="cls-6" d="m365.84,307.24s.77,9.88.69,12.46c-.09,2.58-1.29,8.42-1.29,9.97s0,33.59,1.28,37.45c1.28,3.87-3.6,1.21-3.6,1.21,0,0-8.5-21.08-8.5-29.87s1.03-13.17.43-18.76c-.6-5.59-3.27-12.94-3.27-12.94l14.27.48Z"/>
          <path class="cls-30" d="m352.97,259.68s-4.57,5.6-5.78,13.08c-1.2,7.47,1.42,21.57,2.36,25.65.82,3.58,2.39,15.03,2.47,16.23,0,0,15.37,1.74,27.06-1.95,0,0,1.07-16,1.76-22.78.69-6.79-2.67-29.71-2.67-29.71l-25.2-.51Z"/>
          <path class="cls-24" d="m370.55,376.86c-5.51-4.81-4.03-9.75-4.03-9.75,0,0-2.2-.78-3.99-.34-1.79.45-2.75,4.71-2.03,6.07l.56,7,.91-.07-.3-3.74c1.06,3.61,2.07,8.14,4.51,8.85,3.28.96,8.49.39,9.09-.72.6-1.11-4.71-7.31-4.71-7.31Z"/>
          <path class="cls-35" d="m373.78,207.33s-1.36,8.11-.19,10.83c1.18,2.72-6.25-3.18-6.25-3.18,0,0,3.08-8.93,6.44-7.65Z"/>
          <path class="cls-35" d="m371.03,184.8s-11.93-2.73-13.41,10.01c-1.49,12.74,3.88,14.34.25,22.98-3.63,8.64,8.87-2.81,8.87-2.81l4.29-30.18Z"/>
          <path class="cls-6" d="m370,184.61c3.06-.06,9.8,1.67,10.62,9.8,0,0-.31,2.18-.88,3.88-.58,1.7.82,6.8.41,7.04-.41.24-2.08.51-2.08.51,0,0-1.94,5.48-3.88,5.38-1.94-.1-9.24-1.83-12.51-8.8-3.27-6.98-4.04-17.56,8.32-17.81Z"/>
          <path class="cls-24" d="m336.65,285.51s.29-4.9,1.58-5.66c1.3-.76.55.76.55.76,0,0-.73,3.56-.89,5,0,.07-1.24-.09-1.24-.09Z"/>
          <path class="cls-6" d="m342.66,274.47s.36,2.2,1.03,4.32c.67,2.12,1.28,2.79,1.01,4.01-.2.92-1.24,1.61-1.5,1.31-.26-.29-.39-3.86-1.87-3.84-1.48.02.44,4.41-.44,4.09-.88-.32-4.26-2.18-4.05-3.97.21-1.8,1.57-3.09,1.48-5.78-.08-2.43.68-3.45.68-3.45l3.65,3.32Z"/>
          <path class="cls-24" d="m341.48,280.12s1.97.5,1.85,7.15l-2.23-.37s.04-3.68-.62-5.68c0,0,.11-1.3,1-1.1Z"/>
          <polygon class="cls-20" points="349.64 288.77 332.3 283.85 332.35 305.21 349.61 315.55 349.64 288.77"/>
          <polygon class="cls-20" points="349.61 315.55 347.44 315.95 330.65 305.51 330.86 283.95 332.3 283.85 349.61 315.55"/>
          <path class="cls-30" d="m371.65,214.57s4.62,1.9,5.45,2.48c.83.58,2.48,7.26,2.89,7.84.41.58,4.4,5.54,3.85,9.55-.43,3.16-2.22,4.83-3.37,6.07-1.16,1.24-2.23,7.9-2.59,8.89-.36.99.79,13.99.79,13.99,0,0-13.56,5.28-25.7-3.72,0,0,2.42-8.71,2.42-10.27s-1.57-12.63-5.78-19.15c-4.21-6.52.74-13.46,3.96-14.28,3.22-.83,9.41-3.14,9.41-3.14l8.67,1.73Z"/>
          <path class="cls-30" d="m356.86,214.99s-6.79-.42-10.19,3.54c-3.4,3.96-3.22,8.67-4.09,10.71-.87,2.04-2.85,10.83-3.28,12.26-.43,1.42-.86,9.43-1.47,15.87-.62,6.44-.49,18.46-.49,18.46l6.5-1.18s.26-11.46.43-18.11c.16-6.65,5.57-18.39,7.61-23.53,2.04-5.14,10.18-14.81,4.99-18.03Z"/>
          <path class="cls-30" d="m376.43,216.67s2.99.19,4.41,3.16c1.42,2.97,1.97,5.44,2.34,6.19.37.74,5.52,10.53,5.83,12.7.31,2.17-.19,6.13-2.91,7.18-2.72,1.05-12.5,1.18-12.5,1.18,0,0,2.48-5.03.19-7.63,0,0,7.1-1.28,8.78-1.45,1.77-.18-8.38-19.09-6.13-21.32Z"/>
          <polygon class="cls-24" points="360.17 225.08 373.39 255.97 389.88 248.2 377.69 218.53 360.17 225.08"/>
          <path class="cls-6" d="m367.75,240.25s-1.79.48-2.36.56c-.57.08.13,1.13.83,1.16.7.03,1.53-1.72,1.53-1.72Z"/>
          <path class="cls-6" d="m368.96,249.04s.83-.04,1.19-.24c0,0,.62-.41,1.07-.67.15-.08.27-.15.36-.19.37-.15,1.21-.37,1.99-.97.78-.6,3.31-3.01,3.31-3.01l-1.67-2.52-1.29-2.01s-5.44.15-6.22.63c-.08.05-.15.1-.22.15-.63.47-.9,1.08-1.2,1.37-.11.11-1.14,1.22-1.07,1.67.09.62.4,1.02.79,1.21,0,0,.22,1.21.85,1.75,0,0,.17,1.13,1.15,1.57,0,0,.3,1.12.98,1.25Z"/>
          <path class="cls-30" d="m373.78,239.44s8.05-1.44,10.28-1.67c0,0,.15-2.83-.25-5.22-.41-2.39-2.37-5.61-2.37-5.61l4.12,3.77s3.39,6.49,3.46,8c.08,1.52.48,3.86-1.53,6.23-2,2.37-11.46,1.29-11.46,1.29,0,0,.79-2.91-2.24-6.79Z"/>
          <path class="cls-6" d="m371.3,209.93s-.26.77-.56,1.91c-.16.58-.32,1.26-.47,1.99-.41,2.01-.68,4.36-.2,5.94,0,0-4.33,1.37-7.55-4.79,0,0,1.64-6.49-.14-10.51-1.78-4.01,8.93,5.46,8.93,5.46Z"/>
          <path class="cls-35" d="m380.62,194.41s-5.06,3.24-10,3.79c-4.94.54-7.7,8.02-7.7,8.02,0,0-7.77-12.11-1.51-19.55,6.26-7.44,20.55-1.68,19.21,7.73Z"/>
          <path class="cls-6" d="m368.58,197.92c0-.95-1.02-2.41-2.62-1.16-1.6,1.26.37,5.85,1.67,5.44,1.29-.41.95-3.3.95-4.29Z"/>
          <path class="cls-6" d="m371.93,214.69s2.04,6.02-2.73,5.98c-4.77-.03-6.84-3.78-8.2-7.1,0,0,2.2-1.07,3.22-1.22,1.02-.15,7.71,2.34,7.71,2.34Z"/>
          <polygon class="cls-24" points="343.33 286.98 341.1 287.27 341.1 286.23 343.33 286.98"/>
          <path class="cls-24" d="m337.91,285.44l-1.24.15s0-.37,0-.5c.01-.12,1.19.27,1.23.35Z"/>
          <path class="cls-6" d="m366.52,367.11s.63,3.07,1.41,5.22c.78,2.15,4.43,6.88,4.33,7.5-.1.62-4.15,1.49-5.94.06-1.79-1.43-3.44-5.85-3.81-8.57s-.17-4.48-.17-4.48c0,0,2.46-1.27,4.18.27Z"/>
          <path class="cls-39" d="m371.12,210.55c-.16.58-.38,1.29-.56,1.98-3.91-2.64-5.79-5.78-5.79-5.78,2.22,2.12,6.35,3.8,6.35,3.8Z"/>
        </g>
        <rect class="cls-41" x="182.97" y="94.79" width="59.73" height="32.25" rx="6.81" ry="6.81"/>
        <path class="cls-11" d="m152.24,256.74s0,0-.01,0c.06.03.07.03.01,0Z"/>
        <rect class="cls-40" x="121.6" y="245.79" width="48.57" height="5.8" rx="2.22" ry="2.22" transform="translate(291.77 497.38) rotate(180)"/>
        <rect class="cls-40" x="121.6" y="256.26" width="48.57" height="5.8" rx="2.22" ry="2.22" transform="translate(291.77 518.32) rotate(180)"/>
        <path class="cls-40" d="m123.82,266.73h44.12c1.23,0,2.22,1,2.22,2.22v1.36c0,1.23-1,2.22-2.22,2.22h-44.12c-1.23,0-2.22-1-2.22-2.22v-1.36c0-1.23,1-2.22,2.22-2.22Z" transform="translate(291.77 539.26) rotate(180)"/>
        <path class="cls-40" d="m187.5,182.54h10.54c2.29,0,4.14,1.86,4.14,4.14v32.58c0,2.29-1.86,4.14-4.14,4.14h-10.54c-2.29,0-4.14-1.86-4.14-4.14v-32.58c0-2.29,1.86-4.14,4.14-4.14Z"/>
        <g>
          <path class="cls-6" d="m84.73,296.55s.72,1.18.81,2.15c.07.77.72,1.91.99,2.54.28.63,1.18,3.49,1.21,4.24.01.3-.67,2.22-.57,2.84.1.61.45,1.83-.1,1.91-.55.08-1.18-.92-1.18-.92,0,0,.05.57-.41.78-.91.42-1.39.05-1.39.05,0,0-.33.62-.75.71-.93.18-1.38-.19-1.38-.19,0,0-.41.35-1.05.34-.82-.02-1.16-.72-1.16-.72,0,0-1.04.21-1.34-.27-.3-.48-.25-1-.37-1.44-.12-.44-.03-4.39,1.31-7.24,1.34-2.85-.34-5.63-.34-5.63l5.71.85Z"/>
          <path class="cls-29" d="m86.04,308.95s.09-3.55-.84-4.3c-.93-.76-1.04.53-1.04.53,0,0,.13-1.27-.89-1.44-1.02-.17-1.06,1.33-1.06,1.33,0,0-.17-.98-1.24-.78-1.07.2-.82,1.45-.82,1.45,0,0-1.02-1.22-1.69-.05-1.12,1.98-.04,4.32-.04,4.32,0,0,.32.54,1.34.27,0,0,.68,1.38,2.21.39,0,0,1.56.86,2.13-.52,0,0,1.72.82,1.95-1.2Z"/>
          <path class="cls-11" d="m96.77,245.43s-6.08,20.25-8.13,27.72c-.64,2.34-2.2,24.71-2.48,25.61-.28.9-7.98,2.13-7.98,2.13,0,0,.93-27.99,1.02-29.51.09-1.53,8.5-32.78,10.95-33.89,1.83-.83,2.8-.14,5.11,1.57,3.24,2.41,1.5,6.37,1.5,6.37Z"/>
          <rect class="cls-14" x="155" y="212.41" width="16.62" height="1.23" transform="translate(-89.97 124.14) rotate(-33.19)"/>
          <path class="cls-7" d="m172.08,213.2s-.13.79-.36,1.1c0,0-.45.54-.75.95-.09.13-.17.24-.22.32-.18.33-.49,1.11-1.15,1.79-.66.67-3.24,2.81-3.24,2.81l-2.21-1.88-2.29-1.03s1.29-5.58,1.83-6.28c.05-.07.11-.13.17-.19.52-.55,1.13-.73,1.44-.99.11-.09,1.29-.94,1.71-.83.58.15.93.49,1.06.88,0,0,1.13.35,1.57,1.01,0,0,1.05.29,1.37,1.27,0,0,1.04.41,1.08,1.07Z"/>
          <path class="cls-37" d="m91.84,383.69s-.55,3.84-.62,4.42c-.07.58-6.16-.34-6.16-.34l-.49-4.58s6.52-.05,7.28.5Z"/>
          <path class="cls-43" d="m91.28,387.62s1.93,2.32,3.8,3.33c1.87,1.01,4.8,1.41,5.9,2.45.8.75,2.9,4-4.85,3.94-7.75-.07-11.49.46-12.32-.79-.83-1.25,1.2-9.19,1.2-9.19,0,0,1.84.66,6.27.26Z"/>
          <path class="cls-37" d="m135.48,383.69s-.55,3.84-.62,4.42c-.07.58-6.16-.34-6.16-.34l-.49-4.58s6.52-.05,7.28.5Z"/>
          <path class="cls-43" d="m134.93,387.62s1.93,2.32,3.8,3.33c1.87,1.01,8.74,1.84,9.84,2.88.8.75,2.12,3.79-8.79,3.51-7.75-.2-11.49.46-12.32-.79-.83-1.25,1.2-9.19,1.2-9.19,0,0,1.73.71,6.27.26Z"/>
          <path class="cls-43" d="m96.88,284.91s-5.72,9.09-5.3,17.31c.43,8.22-2.08,17.2-2.93,25.78-.96,9.57-4.88,32.24-5.02,37.36-.14,5.12.61,21.47.61,21.47l7.85.18s6.6-39.62,8.3-43.66c1.71-4.04,10.18-32.86,10.46-36.1.28-3.23-13.97-22.34-13.97-22.34Z"/>
          <path class="cls-43" d="m127.01,286.14s4.31,22.53,4.88,27.56c.57,5.03.95,24.35,1.23,27.49.28,3.14,2.66,41.05,3.42,45.82h-10.04s-7.71-27.63-7.71-40.7-5.95-28.42-9.8-37.04c-3.84-8.62-12.64-8.83-15-24.83,0,0,29.81-3.38,33.01,1.7Z"/>
          <path class="cls-6" d="m106.43,208.46s7.68-2.87,11.23,2.98c3.54,5.85,3.2,17.56-.67,19-3.87,1.44-9.69.69-11.67-2.97-1.98-3.66-3.77-8.95-3.69-12.49.09-3.54,2.79-5.5,4.81-6.52Z"/>
          <path class="cls-6" d="m116.15,230.7s-.32,2.07.21,3.1c.53,1.02-9.95,1.05-9.95,1.05,0,0-.85-5.56-2.46-10.25-1.61-4.7,12.21,6.11,12.21,6.11Z"/>
          <path class="cls-33" d="m103.94,224.59s.72,1.19,3.68.73c2.95-.46,6.56-4.39,7.79-4.82,1.23-.43,1.24-1.16,1.24-1.16l.77,1.13,1.31.08s-1.19-3.51.61-4.95c1.8-1.43-1.87-11.38-11.34-8.07,0,0-7.27,2-7.01,6.14.26,4.14,1.32,8.85,2.95,10.91Z"/>
          <path class="cls-55" d="m116.98,233.67s-.03-1.95-.92-2.14c-.88-.19-9.77-1.04-10.85-.61v2.27s2.09,1.29,11.77.48Z"/>
          <path class="cls-6" d="m116.46,217.84c-.17-.69-1.93-2.68-2.61-.55-.68,2.12,1.02,4.98,1.97,4.73.95-.24,1.06-2.42.64-4.18Z"/>
          <path class="cls-11" d="m131.68,236.63c-6.09-.8-14.69-2.96-14.69-2.96l-11.77-.48s-10.8,2.38-15.06,4.3c-.4.18-.41,9.64-1.51,12.12l3.53,7.44s2.04,14.74,2.46,21.3c.19,3.01-4.2,28.22-4.2,28.22,0,0,4.71,1.39,12.75,2.27,8.03.89,28.11-.32,28.23-1.27.13-.95-3.89-35.33-4.06-37.12-.27-2.73.94-17.26.94-17.26,1.85-1.44,18.14-9,22.59-12.94,1.19-1.05,6.21-5.94,7.64-7.63,5.05-5.97,9.19-11.1,9.7-12.2.57-.63-5.49-3.92-6.04-4.11-.48-.16-7.31,8.69-9.94,11.54-1.17,1.27-6.04,4.81-6.04,4.81,0,0-10.69,4.17-14.5,3.95Z"/>
          <path class="cls-33" d="m104.24,209.15s-9.8.77-.3,15.44l.3-15.44Z"/>
          <polygon class="cls-41" points="170.6 209 171.4 207.77 169.92 207.96 170.6 209"/>
        </g>
      </g>
    </g>
  </g>
</svg>