<svg width="151" height="60" viewBox="0 0 151 60" fill="none" xmlns="http://www.w3.org/2000/svg">
<path d="M31.0593 56.8221C37.2032 56.4188 43.594 55.2175 50.2317 53.218C42.5309 58.257 34.8009 59.1997 30.9547 59.621C30.7036 59.6502 30.3143 59.692 29.8163 59.7378C26.5937 60.0382 10.0329 61.5107 2.67947 51.8957C1.9638 50.9571 0.946794 49.6014 0.34831 47.5491C-0.425951 44.8794 -0.3841 41.4088 5.60073 29.8708C8.78567 23.7306 10.3802 20.6563 12.7156 17.7572C15.8587 13.8569 19.1901 9.72312 25.2209 7.1327C30.3771 4.9177 37.8058 3.70801 41.7567 5.86878C42.2421 6.13574 44.3013 7.21613 47.2058 8.68445C47.9926 9.08073 48.9301 9.50621 50.1312 9.96089C50.9641 10.2779 51.6379 10.499 52.2071 10.6617C53.0818 10.9161 53.7012 11.0371 54.262 11.1664C53.4961 11.279 52.3285 11.3958 50.9181 11.3249C46.5403 11.108 44.5691 9.31016 41.3926 8.68028C38.1407 8.03789 35.4872 8.98896 32.6413 10.0068C26.5309 12.1967 22.7391 16.3848 20.0522 19.7177C17.7169 22.6168 16.5743 23.8808 13.3894 30.021C7.40455 41.559 7.35852 45.0338 8.13696 47.6993C8.73545 49.7516 9.74827 51.1115 10.4681 52.0458C14.0088 56.6802 22.488 57.381 31.0593 56.8179V56.8221Z" fill="url(#paint0_linear_3354_354)"/>
<path d="M49.4418 4.82184C49.9859 5.40171 50.1407 10.3201 50.1407 10.3201C50.7099 10.4703 51.4047 10.6246 52.2836 10.779C52.6477 7.88802 54.644 4.86773 53.8112 5.83556C52.9783 6.80338 48.8977 4.24198 49.446 4.82184H49.4418Z" fill="url(#paint1_linear_3354_354)"/>
<path d="M52.8186 9.92769C53.7143 14.1408 55.6395 16.4309 56.7444 17.5029C63.0556 23.7057 74.4017 21.7535 81.1608 18.1995C84.283 16.556 86.4258 14.5537 87.6855 13.2106C81.7802 2.76962 71.0284 -1.99408 62.7417 0.775705C56.9118 2.71956 53.8775 7.87955 52.8186 9.92769C53.5092 9.16016 57.4056 5.0013 63.6499 4.86782C71.9827 4.68845 76.6324 11.8507 76.8626 12.2219C76.2432 12.7851 70.363 17.92 62.5032 16.2682C56.7695 15.0668 53.6096 11.0122 52.8145 9.92769H52.8186Z" fill="url(#paint2_linear_3354_354)"/>
<path d="M60.0157 41.1753C60.0157 42.118 59.2624 42.8689 58.3625 42.8689C57.4167 42.8689 56.6634 42.1139 56.6634 41.1753V34.8223C56.6634 32.186 54.4912 29.9752 51.8001 29.9752C49.1091 29.9752 46.9369 32.186 46.9369 34.8223V41.459C46.9369 42.3516 46.1794 43.1067 45.2838 43.1067C44.3379 43.1067 43.5846 42.3558 43.5846 41.459V34.8223C43.5846 32.186 41.4125 29.9752 38.6754 29.9752C35.9382 29.9752 33.8122 32.186 33.8122 34.8223V41.1753C33.8122 42.118 33.0546 42.8689 32.159 42.8689C31.2132 42.8689 30.5059 42.1139 30.5059 41.1753V34.8223C30.5059 30.3506 34.1888 26.6798 38.6754 26.6798C41.5087 26.6798 43.7729 27.7602 45.2838 29.8792C46.7486 27.7602 49.063 26.6798 51.8001 26.6798C56.3327 26.6798 60.0157 30.3506 60.0157 34.8223V41.1753V41.1753Z" fill="#404040" stroke="#404040" stroke-linejoin="bevel"/>
<path d="M77.8537 34.9183V41.3673C77.8537 42.3559 77.0041 43.1067 76.0583 43.015C75.1124 42.919 74.5014 42.2599 74.5014 41.4632C73.1328 42.4518 71.3374 43.065 69.4959 43.015C65.0596 42.9691 61.4687 39.39 61.4226 34.9684C61.3264 30.3548 65.2479 26.5464 69.9228 26.684C74.3591 26.78 77.8537 30.4967 77.8537 34.9183V34.9183ZM69.7805 39.7196C72.3795 39.6737 74.4553 37.5546 74.5014 34.9684C74.5976 32.1902 72.3293 29.8877 69.4959 29.9794C66.8969 30.0253 64.8671 32.1444 64.775 34.7807C64.6787 37.5087 66.9471 39.7696 69.7344 39.7237H69.7805V39.7196Z" fill="#404040" stroke="#404040" stroke-linejoin="bevel"/>
<path d="M95.8883 34.8223V41.459C95.8883 42.3516 95.1349 43.1067 94.2351 43.1067C93.2893 43.1067 92.5359 42.3558 92.5359 41.459V34.8223C92.5359 32.186 90.3638 29.9752 87.6267 29.9752C84.8896 29.9752 82.7635 32.186 82.7635 34.8223V41.1753C82.7635 42.118 82.006 42.8689 81.1103 42.8689C80.1645 42.8689 79.4111 42.1139 79.4111 41.1753V34.8223C79.4111 30.3506 83.0941 26.6798 87.6267 26.6798C92.1592 26.6798 95.8883 30.3506 95.8883 34.8223Z" fill="#404040" stroke="#404040" stroke-linejoin="bevel"/>
<path d="M113.88 34.8227V50.824C113.88 55.3416 110.197 59.0124 105.619 59.0124C101.04 59.0124 97.4033 55.3416 97.4033 50.824C97.4033 49.8813 98.1567 49.1305 99.1025 49.1305C100.048 49.1305 100.756 49.8855 100.756 50.824C100.756 53.5062 102.928 55.7171 105.619 55.7171C108.31 55.7171 110.528 53.5062 110.528 50.824V41.4134C109.16 42.3562 107.41 43.0152 105.619 43.0152C101.086 43.0152 97.4033 39.3444 97.4033 34.8268C97.4033 30.3092 101.086 26.6843 105.619 26.6843C110.151 26.6843 113.88 30.3551 113.88 34.8268V34.8227ZM110.528 34.8227C110.528 32.1864 108.356 29.9755 105.619 29.9755C102.882 29.9755 100.756 32.1864 100.756 34.8227C100.756 37.459 102.928 39.7157 105.619 39.7157C108.31 39.7157 110.528 37.5049 110.528 34.8227Z" fill="#404040" stroke="#404040" stroke-linejoin="bevel"/>
<path d="M131.916 34.8727C131.916 39.3903 128.233 43.107 123.654 43.107C119.076 43.107 115.393 39.3903 115.393 34.8727C115.393 30.3551 119.076 26.6843 123.654 26.6843C128.233 26.6843 131.916 30.3551 131.916 34.8727ZM128.563 34.8727C128.563 32.1905 126.391 29.9797 123.654 29.9797C120.917 29.9797 118.745 32.1905 118.745 34.8727C118.745 37.5549 120.917 39.7657 123.654 39.7657C126.391 39.7657 128.563 37.6008 128.563 34.8727Z" fill="#404040" stroke="#404040" stroke-linejoin="bevel"/>
<path d="M150.001 34.8727C150.001 39.3903 146.318 43.107 141.739 43.107C137.161 43.107 133.478 39.3903 133.478 34.8727C133.478 30.3551 137.161 26.6843 141.739 26.6843C146.318 26.6843 150.001 30.3551 150.001 34.8727ZM146.648 34.8727C146.648 32.1905 144.476 29.9797 141.739 29.9797C139.002 29.9797 136.83 32.1905 136.83 34.8727C136.83 37.5549 139.002 39.7657 141.739 39.7657C144.476 39.7657 146.648 37.6008 146.648 34.8727Z" fill="#404040" stroke="#404040" stroke-linejoin="bevel"/>
<defs>
<linearGradient id="paint0_linear_3354_354" x1="58.2463" y1="17.7697" x2="4.80762" y2="49.987" gradientUnits="userSpaceOnUse">
<stop stop-color="#73B31C"/>
<stop offset="0.08" stop-color="#7CAB1C"/>
<stop offset="0.2" stop-color="#95971C"/>
<stop offset="0.36" stop-color="#BF771E"/>
<stop offset="0.55" stop-color="#F84A1F"/>
<stop offset="0.57" stop-color="#FF4520"/>
<stop offset="0.99" stop-color="#F2B705"/>
</linearGradient>
<linearGradient id="paint1_linear_3354_354" x1="51.1243" y1="10.658" x2="51.7231" y2="4.97579" gradientUnits="userSpaceOnUse">
<stop stop-color="#633423"/>
<stop offset="0.25" stop-color="#592E1E"/>
<stop offset="0.66" stop-color="#401F13"/>
<stop offset="1" stop-color="#261008"/>
</linearGradient>
<linearGradient id="paint2_linear_3354_354" x1="52.8186" y1="10.7661" x2="87.6855" y2="10.7661" gradientUnits="userSpaceOnUse">
<stop stop-color="#2D9C00"/>
<stop offset="0.4" stop-color="#36A300"/>
<stop offset="1" stop-color="#4DB600"/>
</linearGradient>
</defs>
</svg>
