<svg width="18" height="18" viewBox="0 0 18 18" fill="none" xmlns="http://www.w3.org/2000/svg">
<path d="M7.84236 14.684C9.36049 14.6837 10.8349 14.1755 12.0307 13.2403L15.7906 17L17 15.7907L13.2401 12.031C14.1758 10.8351 14.6844 9.36043 14.6847 7.84199C14.6847 4.06949 11.6151 1 7.84236 1C4.06965 1 1 4.06949 1 7.84199C1 11.6145 4.06965 14.684 7.84236 14.684ZM7.84236 2.7105C10.6725 2.7105 12.9741 5.01197 12.9741 7.84199C12.9741 10.672 10.6725 12.9735 7.84236 12.9735C5.01219 12.9735 2.71059 10.672 2.71059 7.84199C2.71059 5.01197 5.01219 2.7105 7.84236 2.7105Z" fill="#FDFDFD" stroke="#FDFDFD"/>
</svg>
