<svg width="20" height="20" viewBox="0 0 20 20" fill="none" xmlns="http://www.w3.org/2000/svg">
<path d="M12.0648 9.56124H14.337H14.9188L14.8313 10.1365L14.3888 13.0436L14.3242 13.4684H13.8945H12.0636V19.3949C16.3155 18.4473 19.5 14.6294 19.5 10.0612C19.5 4.77769 15.2441 0.500061 10.0014 0.5L12.0648 9.56124ZM12.0648 9.56124V8.17398C12.0648 7.84786 12.1451 7.58733 12.2931 7.41495C12.4289 7.2567 12.6827 7.10168 13.1933 7.10168H14.4544H14.9544V6.60168V4.12698V3.70547L14.539 3.63419L14.4544 4.12698L14.5389 3.63417L14.5388 3.63415L14.5385 3.6341L14.5375 3.63394L14.5344 3.63341L14.5233 3.63155L14.4824 3.62488C14.4472 3.61921 14.3962 3.61123 14.3318 3.60171C14.2032 3.58268 14.0208 3.55743 13.8034 3.5322C13.3708 3.482 12.7901 3.43076 12.216 3.43076C10.9724 3.43076 9.8891 3.81187 9.11644 4.58966C8.34362 5.3676 7.93894 6.48453 7.93894 7.84402V9.56249H5.89926H5.39926V10.0625V12.9696V13.4696H5.89926H7.93645V19.3962C3.68454 18.4486 0.5 14.6307 0.5 10.0625C0.5 4.77784 4.75582 0.501248 10.0012 0.5L12.0648 9.56124Z" fill="white" stroke="white"/>
</svg>
