<svg width="158" height="108" viewBox="0 0 158 108" fill="none" xmlns="http://www.w3.org/2000/svg">
<g filter="url(#filter0_d_1735_162)">
<path d="M45.8983 99.6532C33.7915 99.6532 17.5392 97.3378 8.86902 86.2891C7.70917 84.8151 5.96223 82.5761 4.94557 79.1552C3.69981 74.9763 3.44207 69.5945 13.9093 49.9448C19.3435 39.7445 22.0712 34.62 26.0448 29.8154C31.4646 23.2655 37.0705 16.4861 47.3015 12.2099C53.244 9.72761 60.2532 8.23962 66.0596 8.23962C69.8756 8.23962 72.9757 8.85846 75.274 10.0892C76.0544 10.5064 79.4838 12.2586 84.6029 14.7895C86.135 15.5474 87.7817 16.2427 89.6432 16.9311C90.9391 17.4109 92.1061 17.7933 93.223 18.1062C93.76 18.2592 94.2468 18.3843 94.6907 18.4886C93.9891 18.5373 93.2803 18.5651 92.5786 18.5651C92.1204 18.5651 91.6407 18.5512 91.1395 18.5303C86.6648 18.3148 83.6793 17.1467 80.8011 16.0133C78.8824 15.2623 77.071 14.5462 74.8945 14.129C73.6702 13.8926 72.4245 13.7744 71.193 13.7744C67.1264 13.7744 63.5394 15.0259 59.7377 16.354C49.5711 19.9001 43.0631 26.5821 38.0442 32.6523L37.3283 33.5145C33.8416 37.7142 31.7367 40.2521 26.6033 49.8892C16.0214 69.7684 16.3006 75.2962 17.5894 79.6141C18.649 83.1741 20.5176 85.5521 21.6345 86.9775C25.9875 92.5262 35.2019 95.3422 49.0198 95.3422C51.5543 95.3422 54.2964 95.2518 57.1674 95.0641C72.1452 94.1045 72.9328 94.0559 87.4882 89.7936C74.8229 97.1292 62.4082 98.4503 56.924 99.0343C56.4944 99.083 55.8357 99.1525 54.9838 99.229C53.5662 99.3542 50.2441 99.6601 45.9054 99.6601L45.8983 99.6532Z" fill="white"/>
<path d="M66.0523 8.58655C69.8039 8.58655 72.8468 9.19148 75.0949 10.3874C75.8753 10.8046 79.3047 12.5638 84.4381 15.0878C85.9774 15.8457 87.6384 16.5549 89.5142 17.2433C90.5309 17.6187 91.4688 17.9386 92.3637 18.2098C91.9628 18.2098 91.5547 18.1959 91.1538 18.175C86.7363 17.9595 83.7866 16.8052 80.9299 15.6858C78.9968 14.9279 77.164 14.2117 74.9588 13.7806C73.6916 13.5372 72.4601 13.419 71.1857 13.419C67.0618 13.419 63.4391 14.6845 59.6087 16.0195C49.3562 19.5935 42.8124 26.3172 37.7577 32.429L37.0418 33.2912C33.5408 37.5049 31.4287 40.0497 26.281 49.7216C15.6347 69.719 15.9282 75.3093 17.2384 79.7038C18.3195 83.3264 20.2097 85.7391 21.3409 87.1784C25.8299 92.9009 34.8796 95.6822 49.0054 95.6822C51.5471 95.6822 54.2963 95.5848 57.1816 95.4041C71.0569 94.5141 72.7823 94.4028 84.4882 91.0166C72.8969 96.9755 61.9284 98.1436 56.8738 98.679C56.4442 98.7277 55.7855 98.7972 54.9407 98.8737C53.5303 98.9988 50.2154 99.3048 45.8982 99.3048C33.8701 99.3048 17.7324 97.0102 9.15529 86.0729C8.01692 84.6127 6.29146 82.4155 5.28912 79.0502C4.11495 75.1077 3.82857 69.6216 14.2243 50.0971C19.644 39.9176 22.3718 34.807 26.3239 30.0232C31.7151 23.5081 37.2924 16.7635 47.4375 12.5221C53.337 10.0537 60.296 8.58655 66.0523 8.58655M66.0523 7.89124C59.8593 7.89124 52.7284 9.55305 47.1511 11.8893C36.8342 16.2003 31.1351 23.0909 25.7583 29.5991C21.7633 34.4316 19.0355 39.5561 13.5871 49.7911C3.34888 69.0167 3.27013 74.8018 4.59464 79.2518C5.61846 82.6728 7.35824 84.9395 8.58252 86.497C17.6465 98.0532 34.9082 100 45.8982 100C50.1509 100 53.4658 99.7081 55.0051 99.569C55.8571 99.4925 56.523 99.416 56.9525 99.3743C63.5322 98.672 76.7559 97.1006 89.9295 88.7012C78.5744 92.0341 67.6418 94.0366 57.1315 94.7087C54.3966 94.8826 51.6759 94.9869 49.0054 94.9869C37.3568 94.9869 26.8394 93.04 21.9065 86.7543C20.6822 85.1898 18.9424 82.93 17.9186 79.5091C16.5941 75.066 16.6657 69.274 26.9038 50.0415C32.3523 39.8064 34.3068 37.6995 38.3019 32.8671C42.8983 27.3115 49.3849 20.3235 59.8378 16.6801C63.6038 15.3659 67.1692 14.1213 71.1714 14.1213C72.3384 14.1213 73.5484 14.2256 74.8013 14.469C80.2426 15.5119 83.6147 18.5088 91.0965 18.8773C91.6048 18.9051 92.0845 18.912 92.5499 18.912C94.3111 18.912 95.7788 18.7591 96.817 18.6131C95.8576 18.4045 94.7908 18.1959 93.3016 17.7717C92.3279 17.5005 91.1752 17.132 89.7505 16.6036C87.6957 15.8457 86.0848 15.1365 84.746 14.4759C79.7844 12.0284 76.2547 10.2275 75.4242 9.7825C72.9398 8.45444 69.6464 7.89124 66.038 7.89124H66.0523Z" fill="white"/>
<path d="M88.5767 8.03711C89.5075 9.0036 89.7724 17.2014 89.7724 17.2014C90.7461 17.4517 91.9346 17.709 93.4381 17.9663C94.061 13.1477 97.4761 8.11359 96.0513 9.72673C94.6266 11.3399 87.646 7.07061 88.5839 8.03711H88.5767Z" fill="white" stroke="white" stroke-miterlimit="10"/>
<path d="M94.3543 16.5483C95.8865 23.571 99.1799 27.3883 101.07 29.1753C111.867 39.5147 131.276 36.2606 142.839 30.3365C148.18 27.5969 151.846 24.2594 154.001 22.0205C143.899 4.61663 125.506 -3.32391 111.33 1.29301C101.356 4.53319 96.1657 13.1343 94.3543 16.5483C95.5357 15.2689 102.201 8.33659 112.883 8.11409C127.138 7.8151 135.092 19.7537 135.486 20.3726C134.426 21.3112 124.367 29.8706 110.922 27.1171C101.113 25.1146 95.7075 18.3561 94.3472 16.5483H94.3543Z" fill="white"/>
</g>
<defs>
<filter id="filter0_d_1735_162" x="0" y="0" width="158" height="108" filterUnits="userSpaceOnUse" color-interpolation-filters="sRGB">
<feFlood flood-opacity="0" result="BackgroundImageFix"/>
<feColorMatrix in="SourceAlpha" type="matrix" values="0 0 0 0 0 0 0 0 0 0 0 0 0 0 0 0 0 0 127 0" result="hardAlpha"/>
<feOffset dy="4"/>
<feGaussianBlur stdDeviation="2"/>
<feComposite in2="hardAlpha" operator="out"/>
<feColorMatrix type="matrix" values="0 0 0 0 0 0 0 0 0 0 0 0 0 0 0 0 0 0 0.25 0"/>
<feBlend mode="normal" in2="BackgroundImageFix" result="effect1_dropShadow_1735_162"/>
<feBlend mode="normal" in="SourceGraphic" in2="effect1_dropShadow_1735_162" result="shape"/>
</filter>
</defs>
</svg>
