<svg width="150" height="60" viewBox="0 0 150 60" fill="none" xmlns="http://www.w3.org/2000/svg">
<g clip-path="url(#clip0_2291_2)">
<path d="M24.4581 59.7913C17.3907 59.7913 7.90335 58.4021 2.84205 51.773C2.16498 50.8885 1.1452 49.5452 0.551717 47.4926C-0.175505 44.9853 -0.325964 41.7563 5.78437 29.9665C8.95657 23.8464 10.5489 20.7717 12.8685 17.889C16.0324 13.959 19.3048 9.89145 25.2773 7.32575C28.7462 5.83639 32.8379 4.9436 36.2274 4.9436C38.455 4.9436 40.2647 5.3149 41.6063 6.05332C42.0619 6.30364 44.0638 7.35495 47.0521 8.87352C47.9465 9.32825 48.9078 9.74544 49.9945 10.1585C50.7509 10.4463 51.4322 10.6758 52.0842 10.8635C52.3976 10.9553 52.6818 11.0304 52.941 11.093C52.5314 11.1222 52.1176 11.1388 51.708 11.1388C51.4405 11.1388 51.1605 11.1305 50.868 11.118C48.2558 10.9887 46.513 10.2878 44.8328 9.60777C43.7128 9.1572 42.6554 8.7275 41.3848 8.47719C40.6701 8.33534 39.9429 8.26442 39.224 8.26442C36.8501 8.26442 34.7562 9.01536 32.5369 9.81219C26.6021 11.9398 22.803 15.949 19.8733 19.5911L19.4553 20.1084C17.4199 22.6282 16.1912 24.1509 13.1945 29.9332C7.01731 41.8606 7.1803 45.1772 7.9326 47.768C8.55116 49.904 9.64199 51.3307 10.294 52.186C12.8351 55.5151 18.214 57.2048 26.2803 57.2048C27.7599 57.2048 29.3606 57.1505 31.0365 57.0379C39.7799 56.4622 40.2396 56.433 48.7364 53.8756C41.343 58.2769 34.0959 59.0696 30.8944 59.42C30.6437 59.4492 30.2592 59.4909 29.7618 59.5368C28.9343 59.6119 26.995 59.7955 24.4623 59.7955L24.4581 59.7913Z" fill="#404040"/>
<path d="M36.2234 5.1523C38.4134 5.1523 40.1897 5.51525 41.502 6.23281C41.9576 6.48313 43.9596 7.53861 46.9562 9.053C47.8548 9.50774 48.8244 9.93327 49.9194 10.3463C50.5129 10.5716 51.0604 10.7635 51.5828 10.9262C51.3488 10.9262 51.1106 10.9178 50.8765 10.9053C48.2978 10.776 46.5759 10.0835 44.9083 9.41179C43.7798 8.95705 42.7099 8.52735 41.4226 8.26869C40.6829 8.12267 39.964 8.05175 39.2201 8.05175C36.8127 8.05175 34.6979 8.81104 32.4619 9.61204C26.477 11.7564 22.657 15.7906 19.7063 19.4577L19.2883 19.975C17.2446 22.5031 16.0117 24.0301 13.0066 29.8331C6.79182 41.8315 6.96318 45.1857 7.72801 47.8223C8.35911 49.9958 9.46248 51.4435 10.1228 52.3071C12.7433 55.7405 18.0261 57.4093 26.2722 57.4093C27.7559 57.4093 29.3608 57.3509 31.0451 57.2424C39.1448 56.7084 40.1521 56.6416 46.9855 54.6099C40.219 58.1852 33.8161 58.8861 30.8654 59.2074C30.6146 59.2366 30.2301 59.2783 29.7369 59.3242C28.9136 59.3993 26.9785 59.5828 24.4583 59.5828C17.4368 59.5828 8.01639 58.2061 3.00943 51.6437C2.3449 50.7676 1.33765 49.4493 0.752533 47.4301C0.067105 45.0647 -0.100073 41.7731 5.96847 30.0584C9.1323 23.9508 10.7247 20.8845 13.0317 18.0142C16.1788 14.1052 19.4346 10.0584 25.3569 7.51358C28.8007 6.03256 32.8631 5.1523 36.2234 5.1523M36.2234 4.73511C32.6082 4.73511 28.4455 5.73219 25.1897 7.13394C19.1671 9.72051 15.8403 13.8548 12.7015 17.7597C10.3694 20.6592 8.77705 23.7339 5.5965 29.8749C-0.380095 41.4101 -0.426069 44.8811 0.347127 47.5511C0.944787 49.6037 1.96039 50.9637 2.67507 51.8982C7.96624 58.8319 18.0429 60 24.4583 60C26.9409 60 28.876 59.8248 29.7745 59.7414C30.2719 59.6955 30.6606 59.6496 30.9114 59.6245C34.7523 59.2032 42.4717 58.2603 50.1618 53.2207C43.5333 55.2204 37.1513 56.4219 31.0158 56.8252C29.4193 56.9295 27.8311 56.9921 26.2722 56.9921C19.4722 56.9921 13.3326 55.824 10.453 52.0526C9.73832 51.1139 8.72272 49.758 8.12506 47.7055C7.35187 45.0397 7.39366 41.5645 13.3703 30.0251C16.5508 23.884 17.6918 22.62 20.0239 19.7205C22.7071 16.3872 26.4937 12.1944 32.5957 10.0084C34.794 9.21988 36.8754 8.47311 39.2117 8.47311C39.893 8.47311 40.5993 8.53569 41.3307 8.68171C44.5071 9.30749 46.4756 11.1056 50.8431 11.3267C51.1398 11.3434 51.4199 11.3475 51.6915 11.3475C52.7197 11.3475 53.5764 11.2558 54.1825 11.1681C53.6224 11.043 52.9997 10.9178 52.1304 10.6634C51.562 10.5006 50.8891 10.2795 50.0574 9.96247C48.8579 9.50774 47.9175 9.08221 47.1359 8.68588C44.2396 7.21738 42.1791 6.13686 41.6943 5.86986C40.244 5.07303 38.3215 4.73511 36.2151 4.73511H36.2234Z" fill="#404040"/>
<path d="M49.3719 4.82258C49.9152 5.40247 50.0699 10.3211 50.0699 10.3211C50.6383 10.4713 51.3321 10.6257 52.2097 10.78C52.5734 7.88891 54.567 4.86847 53.7352 5.83635C52.9035 6.80422 48.8286 4.24269 49.3761 4.82258H49.3719Z" fill="#404040" stroke="#404040" stroke-miterlimit="10"/>
<path d="M52.7444 9.92915C53.6388 14.1428 55.5614 16.4331 56.6647 17.5053C62.9673 23.7089 74.2978 21.7564 81.0476 18.202C84.1654 16.5583 86.3053 14.5558 87.5633 13.2124C81.6661 2.7702 70.9291 -1.99408 62.6539 0.776044C56.8319 2.72014 53.8018 7.88076 52.7444 9.92915C53.434 9.16153 57.3251 5.00216 63.5608 4.86866C71.8821 4.68927 76.5254 11.8524 76.7553 12.2237C76.1367 12.7869 70.2646 17.9225 62.4156 16.2704C56.6898 15.0689 53.5343 11.0138 52.7402 9.92915H52.7444Z" fill="#404040"/>
<path d="M59.9331 41.1806C59.9331 42.1235 59.1808 42.8744 58.2822 42.8744C57.3376 42.8744 56.5853 42.1193 56.5853 41.1806V34.8269C56.5853 32.1902 54.4162 29.9791 51.7288 29.9791C49.0415 29.9791 46.8723 32.1902 46.8723 34.8269V41.4643C46.8723 42.3571 46.1159 43.1122 45.2215 43.1122C44.2769 43.1122 43.5246 42.3613 43.5246 41.4643V34.8269C43.5246 32.1902 41.3555 29.9791 38.6221 29.9791C35.8888 29.9791 33.7656 32.1902 33.7656 34.8269V41.1806C33.7656 42.1235 33.0091 42.8744 32.1147 42.8744C31.1702 42.8744 30.4639 42.1193 30.4639 41.1806V34.8269C30.4639 30.3546 34.1418 26.6833 38.6221 26.6833C41.4516 26.6833 43.7127 27.7639 45.2215 29.8832C46.6843 27.7639 48.9955 26.6833 51.7288 26.6833C56.2552 26.6833 59.9331 30.3546 59.9331 34.8269V41.1806V41.1806Z" fill="#404040" stroke="#404040" stroke-linejoin="bevel"/>
<path d="M77.7457 34.9228V41.3725C77.7457 42.3612 76.8972 43.1122 75.9527 43.0204C75.0081 42.9244 74.3979 42.2653 74.3979 41.4684C73.0312 42.4572 71.2383 43.0704 69.3993 43.0204C64.9691 42.9745 61.3832 39.395 61.3372 34.9728C61.2411 30.3587 65.1572 26.5498 69.8256 26.6875C74.2558 26.7834 77.7457 30.5006 77.7457 34.9228V34.9228ZM69.6835 39.7246C72.2789 39.6787 74.3519 37.5594 74.3979 34.9728C74.4941 32.1943 72.2288 29.8915 69.3993 29.9832C66.8039 30.0291 64.7769 32.1484 64.6849 34.7851C64.5888 37.5135 66.854 39.7747 69.6375 39.7288H69.6835V39.7246Z" fill="#404040" stroke="#404040" stroke-linejoin="bevel"/>
<path d="M95.7552 34.8269V41.4643C95.7552 42.3571 95.0029 43.1122 94.1043 43.1122C93.1598 43.1122 92.4075 42.3613 92.4075 41.4643V34.8269C92.4075 32.1902 90.2384 29.9791 87.505 29.9791C84.7717 29.9791 82.6485 32.1902 82.6485 34.8269V41.1806C82.6485 42.1235 81.892 42.8744 80.9976 42.8744C80.0531 42.8744 79.3008 42.1193 79.3008 41.1806V34.8269C79.3008 30.3546 82.9787 26.6833 87.505 26.6833C92.0313 26.6833 95.7552 30.3546 95.7552 34.8269V34.8269Z" fill="#404040" stroke="#404040" stroke-linejoin="bevel"/>
<path d="M113.723 34.8268V50.8302C113.723 55.3483 110.045 59.0196 105.472 59.0196C100.9 59.0196 97.2681 55.3483 97.2681 50.8302C97.2681 49.8873 98.0204 49.1364 98.9649 49.1364C99.9095 49.1364 100.616 49.8915 100.616 50.8302C100.616 53.5127 102.785 55.7238 105.472 55.7238C108.16 55.7238 110.375 53.5127 110.375 50.8302V41.4184C109.008 42.3613 107.261 43.0204 105.472 43.0204C100.946 43.0204 97.2681 39.3492 97.2681 34.831C97.2681 30.3129 100.946 26.6875 105.472 26.6875C109.999 26.6875 113.723 30.3588 113.723 34.831V34.8268ZM110.375 34.8268C110.375 32.1902 108.206 29.9791 105.472 29.9791C102.739 29.9791 100.616 32.1902 100.616 34.8268C100.616 37.4635 102.785 39.7205 105.472 39.7205C108.16 39.7205 110.375 37.5094 110.375 34.8268Z" fill="#404040" stroke="#404040" stroke-linejoin="bevel"/>
<path d="M131.732 34.8769C131.732 39.395 128.054 43.1122 123.482 43.1122C118.909 43.1122 115.231 39.395 115.231 34.8769C115.231 30.3588 118.909 26.6875 123.482 26.6875C128.054 26.6875 131.732 30.3588 131.732 34.8769ZM128.384 34.8769C128.384 32.1944 126.215 29.9833 123.482 29.9833C120.748 29.9833 118.579 32.1944 118.579 34.8769C118.579 37.5594 120.748 39.7705 123.482 39.7705C126.215 39.7705 128.384 37.6053 128.384 34.8769Z" fill="#404040" stroke="#404040" stroke-linejoin="bevel"/>
<path d="M149.791 34.8769C149.791 39.395 146.113 43.1122 141.541 43.1122C136.968 43.1122 133.291 39.395 133.291 34.8769C133.291 30.3588 136.968 26.6875 141.541 26.6875C146.113 26.6875 149.791 30.3588 149.791 34.8769ZM146.443 34.8769C146.443 32.1944 144.274 29.9833 141.541 29.9833C138.807 29.9833 136.638 32.1944 136.638 34.8769C136.638 37.5594 138.807 39.7705 141.541 39.7705C144.274 39.7705 146.443 37.6053 146.443 34.8769Z" fill="#404040" stroke="#404040" stroke-linejoin="bevel"/>
</g>
<defs>
<clipPath id="clip0_2291_2">
<rect width="150" height="60" fill="white"/>
</clipPath>
</defs>
</svg>
