<svg width="150" height="60" viewBox="0 0 150 60" fill="none" xmlns="http://www.w3.org/2000/svg">
<g clip-path="url(#clip0_2086_26)">
<path d="M24.4581 59.7921C17.3907 59.7921 7.90335 58.4077 2.84205 51.8015C2.16498 50.9202 1.1452 49.5856 0.551717 47.536C-0.175505 45.0374 -0.325964 41.8195 5.78437 30.0707C8.95657 23.9717 10.5489 20.9077 12.8685 18.0349C16.0324 14.1186 19.3049 10.0651 25.2773 7.50829C28.7462 6.02409 32.8379 5.1344 36.2274 5.1344C38.455 5.1344 40.2647 5.50441 41.6063 6.24028C42.0619 6.48972 44.0638 7.53739 47.0521 9.0507C47.9465 9.50386 48.9078 9.9196 49.9945 10.3312C50.7551 10.618 51.4364 10.8509 52.0842 11.0338C52.3976 11.1253 52.6818 11.2001 52.9368 11.2624C52.5272 11.2915 52.1134 11.3082 51.7038 11.3082C51.4364 11.3082 51.1563 11.2999 50.8638 11.2874C48.2516 11.1585 46.5088 10.4601 44.8287 9.7824C43.7086 9.3334 42.6512 8.90519 41.3806 8.65574C40.666 8.51439 39.9387 8.44371 39.2199 8.44371C36.8501 8.44371 34.752 9.19205 32.5328 9.98612C26.5938 12.1064 22.7989 16.1017 19.8649 19.7311L19.447 20.2466C17.4116 22.7577 16.1828 24.2752 13.1862 30.0374C7.00895 41.9235 7.17195 45.2286 7.92424 47.8104C8.5428 49.939 9.63363 51.3608 10.2856 52.2131C12.8267 55.5307 18.2057 57.2145 26.272 57.2145C27.7515 57.2145 29.3522 57.1605 31.0282 57.0482C39.7716 56.4745 40.2313 56.4454 48.7281 53.8969C41.3347 58.283 34.0875 59.0729 30.8861 59.4221C30.6353 59.4512 30.2508 59.4928 29.7534 59.5385C28.9259 59.6133 26.9867 59.7963 24.4581 59.7963V59.7921Z" fill="white"/>
<path d="M36.2234 5.34226C38.4134 5.34226 40.1897 5.70395 41.502 6.41903C41.9576 6.66848 43.9596 7.72031 46.9562 9.22945C47.8548 9.68261 48.8244 10.1067 49.9194 10.5183C50.5129 10.7428 51.0604 10.934 51.5828 11.0961C51.3488 11.0961 51.1106 11.0878 50.8765 11.0753C48.2978 10.9465 46.5759 10.2563 44.9083 9.58699C43.7798 9.13383 42.7099 8.70562 41.4226 8.44786C40.6829 8.30235 39.964 8.23167 39.2201 8.23167C36.8127 8.23167 34.6979 8.98832 32.4619 9.78655C26.477 11.9235 22.657 15.9437 19.7063 19.5981L19.2883 20.1136C17.2446 22.633 16.0117 24.1546 13.0066 29.9376C6.79182 41.8944 6.96318 45.2369 7.72801 47.8644C8.35911 50.0305 9.46248 51.4731 10.1228 52.3337C12.7433 55.7552 18.0261 57.4182 26.2722 57.4182C27.7559 57.4182 29.3608 57.36 31.0451 57.2519C39.1448 56.7198 40.1521 56.6532 46.9855 54.6286C40.219 58.1915 33.8161 58.8899 30.8654 59.21C30.6146 59.2392 30.2301 59.2807 29.7369 59.3265C28.9136 59.4013 26.9785 59.5842 24.4583 59.5842C17.4368 59.5842 8.01639 58.2123 3.00943 51.6726C2.3449 50.7996 1.33765 49.4858 0.752533 47.4736C0.067105 45.1164 -0.100073 41.8362 5.96847 30.1621C9.1323 24.0756 10.7247 21.0199 13.0317 18.1596C16.1788 14.2641 19.4346 10.2314 25.3569 7.69536C28.8007 6.21947 32.8631 5.34226 36.2234 5.34226M36.2234 4.92651C32.6082 4.92651 28.4455 5.92014 25.1897 7.31703C19.1671 9.89464 15.8403 14.0147 12.7015 17.906C10.3694 20.7954 8.77705 23.8594 5.5965 29.9792C-0.380095 41.4745 -0.426069 44.9334 0.347127 47.5942C0.944787 49.6397 1.96039 50.995 2.67507 51.9262C7.96624 58.8359 18.0429 60 24.4583 60C26.9409 60 28.876 59.8253 29.7745 59.7422C30.2719 59.6965 30.6606 59.6507 30.9113 59.6258C34.7523 59.2059 42.4717 58.2663 50.1618 53.2441C43.5332 55.2369 37.1512 56.4343 31.0158 56.8362C29.4193 56.9401 27.8311 57.0025 26.2722 57.0025C19.4722 57.0025 13.3326 55.8384 10.453 52.0801C9.73832 51.1446 8.72272 49.7935 8.12506 47.748C7.35186 45.0914 7.39366 41.6283 13.3703 30.1288C16.5508 24.0091 17.6918 22.7494 20.0239 19.86C22.7071 16.5382 26.4937 12.36 32.5957 10.1815C34.794 9.39575 36.8754 8.65157 39.2117 8.65157C39.893 8.65157 40.5993 8.71393 41.3307 8.85944C44.5071 9.48305 46.4756 11.2749 50.8431 11.4952C51.1398 11.5119 51.4198 11.516 51.6957 11.516C52.7238 11.516 53.5806 11.4246 54.1866 11.3373C53.6266 11.2125 53.0039 11.0878 52.1345 10.8342C51.5661 10.6721 50.8932 10.4517 50.0615 10.1358C48.862 9.68261 47.9217 9.25855 47.1401 8.8636C44.2438 7.40018 42.1833 6.32341 41.6985 6.05733C40.2482 5.26327 38.3257 4.92651 36.2192 4.92651H36.2234Z" fill="white"/>
<path d="M49.3719 5.01381C49.9152 5.59169 50.0699 10.4933 50.0699 10.4933C50.6383 10.643 51.3321 10.7968 52.2097 10.9506C52.5734 8.06952 54.567 5.05954 53.7352 6.02406C52.9035 6.98859 48.8286 4.43593 49.3761 5.01381H49.3719Z" fill="white" stroke="white" stroke-miterlimit="10"/>
<path d="M52.7449 10.1025C53.6393 14.3015 55.5618 16.5839 56.6652 17.6524C62.9678 23.8345 74.2983 21.8888 81.0481 18.3467C84.1659 16.7087 86.3058 14.7131 87.5638 13.3744C81.6666 2.96837 70.9296 -1.77941 62.6543 0.98112C56.8324 2.91848 53.8023 8.06122 52.7449 10.1025C53.4345 9.33755 57.3256 5.19259 63.5613 5.05956C71.8825 4.88079 76.5259 12.0191 76.7558 12.3891C76.1372 12.9504 70.2651 18.0681 62.4161 16.4218C56.6903 15.2245 53.5348 11.1834 52.7407 10.1025H52.7449Z" fill="white"/>
<path d="M59.9336 41.2458C59.9336 42.1853 59.1813 42.9337 58.2827 42.9337C57.3381 42.9337 56.5858 42.1812 56.5858 41.2458V34.914C56.5858 32.2865 54.4167 30.0831 51.7293 30.0831C49.0419 30.0831 46.8728 32.2865 46.8728 34.914V41.5285C46.8728 42.4182 46.1163 43.1707 45.2219 43.1707C44.2774 43.1707 43.5251 42.4223 43.5251 41.5285V34.914C43.5251 32.2865 41.356 30.0831 38.6226 30.0831C35.8893 30.0831 33.7661 32.2865 33.7661 34.914V41.2458C33.7661 42.1853 33.0096 42.9337 32.1152 42.9337C31.1707 42.9337 30.4644 42.1812 30.4644 41.2458V34.914C30.4644 30.4572 34.1423 26.7987 38.6226 26.7987C41.4521 26.7987 43.7132 27.8755 45.2219 29.9875C46.6847 27.8755 48.996 26.7987 51.7293 26.7987C56.2557 26.7987 59.9336 30.4572 59.9336 34.914V41.2458V41.2458Z" fill="white"/>
<path d="M77.7461 35.0097V41.4371C77.7461 42.4224 76.8977 43.1707 75.9532 43.0793C75.0086 42.9836 74.3984 42.3268 74.3984 41.5327C73.0317 42.518 71.2388 43.1291 69.3998 43.0793C64.9696 43.0335 61.3836 39.4664 61.3377 35.0596C61.2415 30.4615 65.1577 26.6657 69.8261 26.8029C74.2563 26.8985 77.7461 30.6028 77.7461 35.0097V35.0097ZM69.684 39.7949C72.2794 39.7492 74.3524 37.6372 74.3984 35.0596C74.4945 32.2907 72.2293 29.9958 69.3998 30.0873C66.8044 30.133 64.7774 32.245 64.6854 34.8725C64.5893 37.5914 66.8545 39.8448 69.638 39.799H69.684V39.7949Z" fill="white"/>
<path d="M95.7557 34.914V41.5285C95.7557 42.4182 95.0034 43.1707 94.1048 43.1707C93.1603 43.1707 92.408 42.4223 92.408 41.5285V34.914C92.408 32.2865 90.2389 30.0831 87.5055 30.0831C84.7721 30.0831 82.649 32.2865 82.649 34.914V41.2458C82.649 42.1853 81.8925 42.9337 80.9981 42.9337C80.0536 42.9337 79.3013 42.1812 79.3013 41.2458V34.914C79.3013 30.4572 82.9792 26.7987 87.5055 26.7987C92.0318 26.7987 95.7557 30.4572 95.7557 34.914V34.914Z" fill="white"/>
<path d="M113.723 34.914V50.8619C113.723 55.3644 110.045 59.0229 105.473 59.0229C100.9 59.0229 97.2686 55.3644 97.2686 50.8619C97.2686 49.9223 98.0209 49.174 98.9654 49.174C99.91 49.174 100.616 49.9265 100.616 50.8619C100.616 53.5351 102.785 55.7386 105.473 55.7386C108.16 55.7386 110.375 53.5351 110.375 50.8619V41.4827C109.009 42.4223 107.262 43.0792 105.473 43.0792C100.946 43.0792 97.2686 39.4207 97.2686 34.9182C97.2686 30.4157 100.946 26.8029 105.473 26.8029C109.999 26.8029 113.723 30.4614 113.723 34.9182V34.914ZM110.375 34.914C110.375 32.2865 108.206 30.0831 105.473 30.0831C102.739 30.0831 100.616 32.2865 100.616 34.914C100.616 37.5415 102.785 39.7907 105.473 39.7907C108.16 39.7907 110.375 37.5872 110.375 34.914Z" fill="white"/>
<path d="M131.732 34.9639C131.732 39.4664 128.054 43.1706 123.482 43.1706C118.909 43.1706 115.231 39.4664 115.231 34.9639C115.231 30.4614 118.909 26.8029 123.482 26.8029C128.054 26.8029 131.732 30.4614 131.732 34.9639ZM128.384 34.9639C128.384 32.2907 126.215 30.0872 123.482 30.0872C120.748 30.0872 118.579 32.2907 118.579 34.9639C118.579 37.6371 120.748 39.8405 123.482 39.8405C126.215 39.8405 128.384 37.6828 128.384 34.9639Z" fill="white"/>
<path d="M149.791 34.9639C149.791 39.4664 146.114 43.1706 141.541 43.1706C136.969 43.1706 133.291 39.4664 133.291 34.9639C133.291 30.4614 136.969 26.8029 141.541 26.8029C146.114 26.8029 149.791 30.4614 149.791 34.9639ZM146.444 34.9639C146.444 32.2907 144.275 30.0872 141.541 30.0872C138.808 30.0872 136.639 32.2907 136.639 34.9639C136.639 37.6371 138.808 39.8405 141.541 39.8405C144.275 39.8405 146.444 37.6828 146.444 34.9639Z" fill="white"/>
</g>
<defs>
<clipPath id="clip0_2086_26">
<rect width="150" height="60" fill="white"/>
</clipPath>
</defs>
</svg>
