<svg width="1280" height="742" viewBox="0 0 1280 742" fill="none" xmlns="http://www.w3.org/2000/svg">
<path d="M1280 372H0V0L42.7 10.5C85.3 21 170.7 42 256 37.5C341.3 33 426.7 3 512 1.5C597.3 0 682.7 27 768 33C853.3 39 938.7 24 1024 21C1109.3 18 1194.7 27 1237.3 31.5L1280 36V372Z" fill="#FA9600"/>
<path d="M1280 370H0V742L42.7 731.5C85.3 721 170.7 700 256 704.5C341.3 709 426.7 739 512 740.5C597.3 742 682.7 715 768 709C853.3 703 938.7 718 1024 721C1109.3 724 1194.7 715 1237.3 710.5L1280 706V370Z" fill="#FA9600"/>
</svg>
