<svg width="1280" height="674" viewBox="0 0 1280 674" fill="none" xmlns="http://www.w3.org/2000/svg">
<path d="M1280 338H0V26.7616L42.7 23.7616C85.3 20.7616 170.7 14.7616 256 8.76162C341.3 2.76162 426.7 -3.23838 512 14.7616C597.3 32.7616 682.7 74.7616 768 71.7616C853.3 68.7616 938.7 20.7616 1024 5.76162C1109.3 -9.23838 1194.7 8.76162 1237.3 17.7616L1280 26.7616V338Z" fill="#FD8500"/>
<path d="M1280 336H0V647.238L42.7 650.238C85.3 653.238 170.7 659.238 256 665.238C341.3 671.238 426.7 677.238 512 659.238C597.3 641.238 682.7 599.238 768 602.238C853.3 605.238 938.7 653.238 1024 668.238C1109.3 683.238 1194.7 665.238 1237.3 656.238L1280 647.238V336Z" fill="#FD8500"/>
</svg>
