<svg width="1280" height="1026" viewBox="0 0 1280 1026" fill="none" xmlns="http://www.w3.org/2000/svg">
<path d="M42.7 69.5568L0 83.0568L0.00018394 513H1280V83.0568L1237.3 71.0568C1194.7 59.0568 1109.3 35.0568 1024 18.5568C938.7 2.05676 853.3 -6.94324 768 6.55676C682.7 20.0568 597.3 56.0568 512 59.0568C426.7 62.0568 341.3 32.0568 256 30.5568C170.7 29.0568 85.3 56.0568 42.7 69.5568Z" fill="#F2B705"/>
<path d="M42.7 956.443L0 942.943L0.00018394 513H1280V942.943L1237.3 954.943C1194.7 966.943 1109.3 990.943 1024 1007.44C938.7 1023.94 853.3 1032.94 768 1019.44C682.7 1005.94 597.3 969.943 512 966.943C426.7 963.943 341.3 993.943 256 995.443C170.7 996.943 85.3 969.943 42.7 956.443Z" fill="#F2B705"/>
</svg>
