<svg width="1280" height="834" viewBox="0 0 1280 834" fill="none" xmlns="http://www.w3.org/2000/svg">
<path d="M1280 417H0V0L42.7 13.5C85.3 27 170.7 54 256 52.5C341.3 51 426.7 21 512 24C597.3 27 682.7 63 768 76.5C853.3 90 938.7 81 1024 64.5C1109.3 48 1194.7 24 1237.3 12L1280 0V417Z" fill="#F7A700"/>
<path d="M1280 417H0V834L42.7 820.5C85.3 807 170.7 780 256 781.5C341.3 783 426.7 813 512 810C597.3 807 682.7 771 768 757.5C853.3 744 938.7 753 1024 769.5C1109.3 786 1194.7 810 1237.3 822L1280 834V417Z" fill="#F7A700"/>
</svg>
