<svg width="1280" height="578" viewBox="0 0 1280 578" fill="none" xmlns="http://www.w3.org/2000/svg">
<path d="M0 289H42.7H256H512H768H806H1024H1237.3H1280V9.76491L1237.3 5.27129C1194.7 0.777663 1109.3 -8.20959 1024 17.2543C938.7 42.7182 853.3 102.633 768 111.62C682.7 120.608 597.3 78.6672 512 50.2075C426.7 21.7479 341.3 6.76916 256 9.76491C170.7 12.7607 85.3 33.7309 42.7 44.216L0 54.7012V289Z" fill="#FF7209"/>
<path d="M0 289H42.7H256H512H768H806H1024H1237.3H1280V568.235L1237.3 572.729C1194.7 577.222 1109.3 586.21 1024 560.746C938.7 535.282 853.3 475.367 768 466.38C682.7 457.392 597.3 499.333 512 527.792C426.7 556.252 341.3 571.231 256 568.235C170.7 565.239 85.3 544.269 42.7 533.784L0 523.299V289Z" fill="#FF7209"/>
</svg>
