<svg width="1280" height="502" viewBox="0 0 1280 502" fill="none" xmlns="http://www.w3.org/2000/svg">
<path d="M0 251H169.5C251 251 311.5 251 417 251C522.5 251 525.5 251 601.5 251C696.5 251 678.5 251 779 251C854 251 849 251 971 251C1059.5 251 1068.5 251 1151 251H1280V178.907L1237.3 163.933C1194.7 148.96 1109.3 119.012 1024 119.012C938.7 119.012 853.3 148.96 768 160.938C682.7 172.917 597.3 166.928 512 129.494C426.7 92.0597 341.3 23.181 256 5.21263C170.7 -12.7557 85.3 20.1863 42.7 36.6573L0 53.1283V251Z" fill="#FF5D16"/>
<path d="M1280 251H1110.5C1029 251 968.5 251 863 251C757.5 251 754.5 251 678.5 251C583.5 251 601.5 251 501 251C426 251 431 251 309 251C220.5 251 211.5 251 129 251H0V323.093L42.7 338.067C85.2999 353.04 170.7 382.988 256 382.988C341.3 382.988 426.7 353.04 512 341.062C597.3 329.083 682.7 335.072 768 372.506C853.3 409.94 938.7 478.819 1024 496.787C1109.3 514.756 1194.7 481.814 1237.3 465.343L1280 448.872V251Z" fill="#FF5D16"/>
</svg>
